<svg id="tree-svg" xmlns="http://www.w3.org/2000/svg" viewBox="0 0 1200 509">
  <linearGradient id="ground_1_" gradientUnits="userSpaceOnUse" x1="600" y1="509" x2="600" y2="351.583">
    <stop offset="0" stop-color="#A67C52"/>
    <stop offset=".565" stop-color="#A87E54"/>
    <stop offset=".769" stop-color="#AF8559"/>
    <stop offset=".914" stop-color="#BA9063"/>
    <stop offset="1" stop-color="#C69C6D"/>
  </linearGradient>
  <path id="ground" fill="url(#ground_1_)" d="M0 351.6h1200V509H0z"/>
  <ellipse id="ground-base" fill="#754C24" cx="832" cy="455.7" rx="101.6" ry="34"/>
  <g id="tree">
    <g id="trunk">
      <g id="XMLID_52_">
        <g id="XMLID_30_">
          <path id="XMLID_35_" fill="#281D13" d="M824.9 446.9c0-.1.2-.2.9-1.9.2-.4.4-1 .6-1.6.2-.7.4-1.4.6-2.3.4-1.7.9-3.9 1.2-6.6.7-5.3 1.1-12.4 1-20.7-.1-4.1-.3-8.6-.7-13.3-.4-4.7-.9-9.6-1.7-14.5l-.6-3.6c-.1-.6-.2-1.2-.3-1.7l-.2-1-.2-1.1c-.6-2.8-1.3-5.7-2-8.6-1.4-5.8-2.8-11.8-4.2-18-2.9-12.3-6.2-25.2-9.8-38.4-1.9-6.6-3.8-13.2-6-19.8-2.2-6.6-4.5-13.4-6.9-20.5-2.4-7-4.7-14.3-6.8-21.7-2.1-7.4-3.8-15.2-5.1-23-1.3-7.9-1.8-15.9-1.5-24l.1-3c0-.5 0-1 .1-1.5l.2-1.5.6-6c.3-2 .7-3.9 1-5.9.2-1 .3-2 .6-2.9l.7-2.9c1.8-7.7 4.7-14.9 7.6-21.7 2.9-6.8 6.1-13.2 9-19.4 5.9-12.4 10.8-24.4 12.8-36.4.9-5.9 1.3-12.1 1.5-18 .2-5.9.1-11.6-.1-17.1-.5-11-1.9-21-3.8-29.7s-4.5-16.1-7.2-22c-1.4-2.9-2.8-5.4-4.1-7.6-.7-1.1-1.3-2-1.9-2.9-.6-.8-1.2-1.6-1.7-2.3-.6-.7-1-1.3-1.5-1.8-.4-.5-.8-.9-1.1-1.2-.6-.7-.9-1-.9-1s.3.3 1 .9c.3.3.8.7 1.2 1.1.5.5 1 1 1.6 1.7 2.4 2.5 5.7 6.6 8.9 12.3 3.3 5.7 6.5 13.1 9.3 21.8 2.7 8.8 5 18.9 6.5 30.1.8 5.6 1.3 11.5 1.6 17.6.3 6.1.5 12.4 0 19.2-.5 6.7-1.8 13.5-3.7 20.2-1.8 6.7-4.2 13.4-6.6 20-4.9 13.2-10.3 26.3-12.3 39.6l-.4 2.5c-.1.8-.2 1.7-.3 2.5-.1 1.7-.3 3.4-.5 5 0 1.7-.1 3.4-.1 5.1v1.3c0 .4 0 .8.1 1.3l.1 2.5c.3 6.8 1.3 13.5 3 20.2 1.6 6.7 3.7 13.4 6.2 20s5.3 13.2 8.2 19.8c2.9 6.6 5.9 13.3 8.8 20.1 2.9 6.8 5.5 13.6 8 20.2 5 13.3 9.4 26.3 13.5 38.5 2 6.1 3.9 12.1 5.8 17.8.9 2.9 1.8 5.7 2.7 8.5.2.7.5 1.4.7 2.2.2.8.5 1.6.7 2.4.5 1.6.9 3.1 1.2 4.6 1.5 6 2.6 11.6 3.5 17 .9 5.4 1.6 10.5 2.1 15.4 1 9.8 1.3 18.5 1 26.2-.2 3.8-.5 7.4-1 10.6-.2 1.6-.5 3.2-.8 4.6-.3 1.5-.6 2.8-1 4-.2.6-.4 1.2-.5 1.8-.2.6-.4 1.1-.5 1.6-.3 1-.6 1.8-1 2.6-.6 1.4-.9 2.2-.9 2.2l-36.3-17.9z"/>
        </g>
      </g>
    </g>
    <g id="left-branch-2">
      <g id="XMLID_45_">
        <g id="XMLID_19_">
          <path id="XMLID_29_" fill="#281D13" d="M811 132.2s-.7-.2-2-.6c-.7-.2-1.5-.4-2.4-.7-.5-.1-1-.3-1.5-.4-.5-.2-1.1-.4-1.7-.6-1.2-.4-2.5-.9-4-1.5-1.4-.6-2.9-1.3-4.5-2-3.2-1.5-6.7-3.5-10.3-5.9-7.3-4.7-14.6-11.6-21.1-19.4-3.3-3.9-6.3-8.2-9.3-12.5-2.9-4.3-5.7-8.8-8.5-13.2-5.4-8.9-10.7-17.7-16-25.6-5.4-7.9-10.9-14.9-16.3-20.3-1.4-1.3-2.6-2.7-4-3.8-1.3-1.1-2.5-2.3-3.8-3.2-1.2-1-2.4-1.9-3.5-2.7-1.1-.8-2.1-1.5-3.1-2.1-.5-.3-.9-.6-1.3-.9-.4-.3-.8-.5-1.2-.7-.8-.4-1.4-.8-1.9-1.1-1-.6-1.6-.9-1.6-.9s.6.3 1.7.7c.6.2 1.2.5 2.1.9.4.2.8.4 1.3.6.4.2.9.5 1.4.7 1 .5 2.1 1.1 3.4 1.7 1.2.7 2.5 1.5 3.8 2.3 1.4.8 2.7 1.8 4.2 2.8 1.5 1 3 2.2 4.5 3.4 6.2 4.8 12.8 11.3 19.4 18.7 6.5 7.4 12.9 15.6 19.3 23.7 3.2 4 6.5 7.9 9.7 11.6 3.3 3.7 6.6 7.2 9.9 10.3 6.7 6.2 13.5 11 19.6 14 3.1 1.5 6 2.7 8.6 3.5 1.3.4 2.5.8 3.7 1.1 1.2.3 2.2.5 3.2.7.5.1.9.2 1.4.3.4.1.8.1 1.2.2.8.1 1.4.2 1.9.3 1 .2 1.6.3 1.6.3l-3.9 20.3z"/>
        </g>
      </g>
    </g>
    <g id="left-branch-1">
      <g id="XMLID_38_">
        <g id="XMLID_16_">
          <path id="XMLID_17_" fill="#281D13" d="M793 202.4s-.9 0-2.6-.1c-1.8 0-4.4.1-8.1.3-3.7.2-8.2.6-13.9.7-1.4.1-2.9 0-4.4 0-.8 0-1.6-.1-2.4-.1-.8 0-1.6-.1-2.5-.2-.9-.1-1.7-.2-2.6-.3-.9-.2-1.8-.3-2.7-.5-.9-.1-1.9-.4-2.8-.6-1-.3-1.9-.4-2.9-.8-1-.3-2-.7-2.9-1.1-1-.5-2-.9-3-1.4-1-.5-1.9-1.2-2.9-1.8-1-.6-1.8-1.3-2.7-2-3.4-2.8-6.3-6-8.7-9.4-4.8-6.7-8.4-14-12-21-1.8-3.5-3.6-7-5.6-10.2-.5-.8-1-1.6-1.5-2.3-.5-.8-1-1.5-1.7-2.3-1.2-1.6-2.5-3.3-3.8-4.9-5.1-6.6-10.4-13.1-16-19.2-5.6-6.2-11.6-12-17.9-17.1-6.3-5.2-13-9.7-19.8-13.5-6.9-3.7-13.9-6.7-20.7-9.1-1.7-.6-3.4-1.1-5.1-1.6-1.7-.5-3.3-1-5-1.4-3.3-.8-6.5-1.5-9.7-2.1-6.3-1.2-12.1-2.3-17.2-3.6-5.1-1.3-9.4-2.9-12.8-4.5-.9-.4-1.6-.8-2.4-1.2-.7-.4-1.4-.7-2-1.2-1.2-.8-2.3-1.4-3.1-2.1-1.6-1.2-2.4-1.9-2.4-1.9s.9.6 2.6 1.7c.8.6 1.9 1.1 3.2 1.8.6.4 1.4.6 2.1 1 .8.3 1.5.7 2.4 1 3.4 1.4 7.8 2.6 12.9 3.5 5.1.9 10.9 1.5 17.3 2.2 12.8 1.3 27.9 4.8 42.9 11.5 7.5 3.4 14.9 7.7 22 12.6 7.1 5 13.9 10.6 20.2 16.6 6.4 6 12.4 12.3 18.1 18.6l4.2 4.8c.7.7 1.5 1.7 2.2 2.6.8.9 1.4 1.8 2.1 2.7 2.6 3.6 4.9 7.2 7 10.7 4.2 6.9 8.1 13.3 12.3 18.2 2.1 2.4 4.2 4.4 6.3 5.8.5.4 1 .7 1.5 1 .5.2 1 .6 1.5.8.5.2 1.1.4 1.6.6.6.1 1.1.3 1.7.4.5.2 1.1.2 1.7.3.6.1 1.1.2 1.8.2.6.1 1.2.1 1.8.2h3.6c.6 0 1.2 0 1.8-.1 1.2-.1 2.4-.1 3.6-.3 4.7-.5 9.2-1.2 13-1.7 3.8-.5 7-.9 9.2-1 2.3-.1 3.5-.2 3.5-.2l-.3 21z"/>
        </g>
      </g>
    </g>
    <g id="right-branch">
      <g id="XMLID_31_">
        <g id="XMLID_14_">
          <path id="XMLID_15_" fill="#281D13" d="M790.2 204s-.2-.5-.7-1.4c-.1-.1-.1-.2-.2-.3.1 0 .1 0 .2-.1.4-.2 1.6-1 3.3-2.8 1.7-1.8 3.8-4.5 6.2-7.9 2.4-3.4 5.1-7.6 8.2-12.2 1.5-2.3 3.2-4.8 5.1-7.5 1.9-2.6 3.9-5.4 6.7-8.4 4.9-5 10.5-9.8 16.7-13.9 6.2-4.2 12.9-7.7 19.4-11 3.2-1.6 6.5-3.3 9.7-4.9 1.6-.8 3.2-1.7 4.8-2.5 1.7-.9 3.4-1.8 5.1-2.6 13.7-6.8 27.9-11.5 40.9-16 6.5-2.2 12.9-4.3 18.4-6.7 5.6-2.4 10.4-5.4 14.2-9.1 3.7-3.7 6.3-7.9 8.4-11.8 2.1-3.9 3.9-7.4 5.4-10.2 1.5-2.8 2.8-5 3.7-6.5.9-1.5 1.3-2.3 1.3-2.3s-.4.8-1.1 2.4c-.7 1.6-1.7 3.9-2.9 6.9-1.2 3-2.6 6.6-4.3 10.8-1.7 4.1-3.9 8.9-7.6 13.5-3.7 4.5-8.8 8.5-14.4 11.7-5.7 3.3-11.8 6-18.1 8.9-12.5 5.9-25.7 12-37.6 19.7-1.5.9-2.9 1.9-4.4 2.9-1.5 1-3.1 2.1-4.7 3.1-3.1 2-6.2 4-9.2 6-6 3.9-11.6 7.7-16.4 11.8-4.8 4.1-8.9 8.5-12.4 13-1.3 1.7-2.7 4.1-4 6.5-1.3 2.4-2.6 4.8-3.8 7.3-4.9 9.7-9.3 18.4-14 24.8-2.3 3.2-4.9 5.9-7.2 7.7-1.2.9-2.2 1.6-3 2.1-.8.5-1.2.7-1.2.7L790.2 204z"/>
        </g>
      </g>
    </g>
  </g>
  <g id="leaf">
    <linearGradient id="XMLID_68_" gradientUnits="userSpaceOnUse" x1="538.256" y1="337.128" x2="564.116" y2="362.988" gradientTransform="matrix(1 0 0 -1 0 420)">
      <stop offset="0" stop-color="#5B5B5B"/>
      <stop offset="0" stop-color="#5A5D5A"/>
      <stop offset="0" stop-color="#566456"/>
      <stop offset="0" stop-color="#506F50"/>
      <stop offset="0" stop-color="#468046"/>
      <stop offset="0" stop-color="#3A963A"/>
      <stop offset="0" stop-color="#2BB22B"/>
      <stop offset="0" stop-color="#19D21A"/>
      <stop offset="0" stop-color="#05F606"/>
      <stop offset="0" stop-color="#00FF01"/>
      <stop offset=".828" stop-color="#007C01"/>
      <stop offset="1" stop-color="#006001"/>
      <stop offset="1"/>
    </linearGradient>
    <path id="XMLID_65_" fill="url(#XMLID_68_)" d="M564.6 65.5s-6.2-3.7-5-1.8c0 0-8.4-3.4-5.9-1.5 0 0-9.3.4-8.5.9 0 0-.6.2 1.1.3l1.7.1s-6.9 1.7-6.1 2.1c0 0 1.9-.1 2.6-.4 0 0-8.7 3-7.6 3.3 0 0 1.1 0 1.9-.2l.8-.2s-6.5 3.3-7.7 2.5c0 0-2-1-1.8-.6 0 0 0 .1.3.5l-6.8-2.9 4.1 4.3c-.6-.2-.7-.6-.6-.2.1.4 3.5 2.9 3.8 2.8 0 0-1.2.1-.8.2.4.1 5.7 2.4 7.5 1.9 0 0-2.2.4-1.3.4.9.1 8.3 2.2 9.9 1.5 0 0-1.7.7-.6.5 0 0 9.3.3 11-.6 0 0-1.3.9-.7.6 0 0 7.9-.8 8.6-2.1 0 0-.8.9-.2.6l14.8-5.7s-6.1-5.6-10.1-5.5c0 0 .7.6.9 1.2 0 .1-7.8-5.2-6.5-3.5 0 .1.4.8 1.2 1.5"/>
    <linearGradient id="XMLID_70_" gradientUnits="userSpaceOnUse" x1="562.633" y1="333.451" x2="544.652" y2="364.594" gradientTransform="matrix(1 0 0 -1 0 420)">
      <stop offset="0" stop-color="#5B5B5B"/>
      <stop offset="0" stop-color="#5A5D5A"/>
      <stop offset="0" stop-color="#566456"/>
      <stop offset="0" stop-color="#506F50"/>
      <stop offset="0" stop-color="#468046"/>
      <stop offset="0" stop-color="#3A963A"/>
      <stop offset="0" stop-color="#2BB22B"/>
      <stop offset="0" stop-color="#19D21A"/>
      <stop offset="0" stop-color="#05F606"/>
      <stop offset="0" stop-color="#00FF01"/>
      <stop offset=".844" stop-color="#007C01"/>
      <stop offset="1" stop-color="#006301"/>
      <stop offset="1"/>
    </linearGradient>
    <path id="XMLID_64_" fill="url(#XMLID_70_)" d="M583.6 74.3c-.8-.3-1.5-.7-2.3-1.1-.4-.2-.8-.4-1.1-.6l-.6-.3c-.1-.1-.2-.1-.3-.2l-.1-.1-.1-.1h-.1s-.1 0-.1-.1c-.1 0-.2-.1-.3-.1-.2-.1-.4-.2-.6-.2-.4-.1-.8-.3-1.2-.4-.8-.3-1.6-.5-2.4-.7-.8-.2-1.6-.4-2.5-.6-.8-.2-1.7-.3-2.5-.4-.8-.1-1.7-.2-2.5-.2H564.9l-.3.1c-1.6.5-3.3.9-4.9 1.4-1.6.4-3.3.9-4.9 1.3s-3.3.8-5 1.1c-.8.2-1.7.3-2.5.5-.8.1-1.7.2-2.6.3-.5-.1-.9-.1-1.4-.2-.5-.1-.9-.1-1.4-.2-.9-.1-1.8-.3-2.7-.4s-1.8-.3-2.7-.5l-2.7-.6c-.4-.1-.9-.2-1.3-.4-.4-.1-.9-.3-1.3-.4-.4-.1-.9-.3-1.3-.4-.4-.1-.9-.3-1.3-.5s-.9-.3-1.3-.5l-1.2-.6c-.4-.2-.8-.5-1.2-.7-.4-.3-.7-.6-1-.9.3.3.7.6 1.1.8.4.3.8.5 1.2.7.8.4 1.7.7 2.5 1.1.4.2.9.3 1.3.4.4.1.9.3 1.3.4.9.2 1.8.5 2.7.7.4.1.9.2 1.3.3.4.1.9.2 1.3.3.9.2 1.8.3 2.7.5.9.2 1.8.3 2.7.4l1.4.2c.5.1.9.1 1.4.2H546.7c.2 0 .4-.1.6-.1.8-.1 1.7-.3 2.5-.4 1.7-.3 3.3-.7 5-1.1 1.6-.4 3.3-.8 4.9-1.2 1.6-.4 3.3-.9 4.9-1.3l.3-.1h2.4c.9 0 1.7.1 2.5.2s1.7.3 2.5.5 1.6.4 2.5.6c.8.2 1.6.5 2.4.7.4.1.8.3 1.2.4.2.1.4.1.6.2.1 0 .2.1.3.1l.1.1h.1l.1.1.1.1c.1.1.2.1.3.2l.6.3c.4.2.7.4 1.1.6.4 0 1.1.4 1.9.8z"/>
    <linearGradient id="XMLID_72_" gradientUnits="userSpaceOnUse" x1="539.211" y1="347.448" x2="536.7" y2="347.448" gradientTransform="matrix(1 0 0 -1 0 420)">
      <stop offset="0" stop-color="#5B5B5B"/>
      <stop offset="0" stop-color="#5A5D5A"/>
      <stop offset="0" stop-color="#566456"/>
      <stop offset="0" stop-color="#506F50"/>
      <stop offset="0" stop-color="#468046"/>
      <stop offset="0" stop-color="#3A963A"/>
      <stop offset="0" stop-color="#2BB22B"/>
      <stop offset="0" stop-color="#19D21A"/>
      <stop offset="0" stop-color="#05F606"/>
      <stop offset="0" stop-color="#00FF01"/>
      <stop offset=".844" stop-color="#007C01"/>
      <stop offset="1" stop-color="#006301"/>
      <stop offset="1"/>
    </linearGradient>
    <path id="XMLID_63_" fill="url(#XMLID_72_)" d="M536.8 76.1v-.5c0-.2 0-.3.1-.5 0-.1 0-.2.1-.2s.1-.1.1-.2l.1-.2c0-.1.1-.1.1-.2.1-.1.1-.3.2-.4.1-.1.2-.3.3-.4 0-.1.1-.1.1-.2l.2-.2.2-.2.2-.2v.1c0-.1-.1-.2-.1-.3s0-.2-.1-.3v-.3-.3-.3-.3-.3c0-.1 0-.2.1-.3s0-.2.1-.3.1-.2.1-.3c.1-.2.1-.3.2-.5 0-.1.1-.2.1-.2 0-.1.1-.2.1-.2l.1-.2.1-.2c-.1.2-.1.3-.2.5 0 .1-.1.2-.1.2 0 .1-.1.2-.1.2-.1.2-.1.3-.1.5 0 .1 0 .2-.1.2 0 .1 0 .2-.1.2s0 .2 0 .3V72c0 .1 0 .2.1.2 0 .1 0 .2.1.2v.1l-.1.1-.2.2-.2.2-.2.2c-.1.1-.1.1-.1.2-.1.1-.2.2-.3.4-.1.1-.2.3-.2.4-.1.1-.1.3-.2.4 0 .1-.1.1-.1.2s-.1.1-.1.2c-.1.1-.1.3-.1.4v.2c-.1.4-.1.5-.1.5z"/>
    <linearGradient id="XMLID_73_" gradientUnits="userSpaceOnUse" x1="540.999" y1="348.743" x2="543.345" y2="347.388" gradientTransform="matrix(1 0 0 -1 0 420)">
      <stop offset="0" stop-color="#5B5B5B"/>
      <stop offset="0" stop-color="#5A5D5A"/>
      <stop offset="0" stop-color="#566456"/>
      <stop offset="0" stop-color="#506F50"/>
      <stop offset="0" stop-color="#468046"/>
      <stop offset="0" stop-color="#3A963A"/>
      <stop offset="0" stop-color="#2BB22B"/>
      <stop offset="0" stop-color="#19D21A"/>
      <stop offset="0" stop-color="#05F606"/>
      <stop offset="0" stop-color="#00FF01"/>
      <stop offset=".844" stop-color="#007C01"/>
      <stop offset="1" stop-color="#006301"/>
      <stop offset="1"/>
    </linearGradient>
    <path id="XMLID_62_" fill="url(#XMLID_73_)" d="M540.9 76.7v-.5c0-.2 0-.3.1-.5 0-.1 0-.2.1-.2s.1-.1.1-.2l.1-.2c0-.1.1-.1.1-.2.1-.1.1-.3.2-.4.1-.1.2-.3.3-.4 0-.1.1-.1.1-.2l.2-.2.2-.2.2-.2v.1c0-.1 0-.3-.1-.4v-.4c0-.3 0-.5-.1-.8V71c0-.3 0-.5.1-.8.1-.5.2-1.1.4-1.6 0-.1.1-.3.1-.4.1-.1.1-.2.2-.4.1-.1.1-.2.2-.3.1-.1.2-.2.2-.3-.2.2-.3.4-.4.7-.1.2-.2.5-.3.7-.1.3-.1.5-.2.8 0 .3-.1.5-.1.8v1.6c0 .3 0 .5.1.8v.4c0 .1 0 .3.1.4v.1l-.2.2-.2.2-.2.2c-.1.1-.1.1-.1.2-.1.1-.2.2-.3.4-.1.1-.2.3-.2.4-.1.1-.1.3-.2.4 0 .1-.1.1-.1.2s-.1.1-.1.2c-.1.1-.1.3-.1.4v.2c-.2 0-.2.1-.2.2z"/>
    <linearGradient id="XMLID_74_" gradientUnits="userSpaceOnUse" x1="544.58" y1="351.135" x2="549.999" y2="345.717" gradientTransform="matrix(1 0 0 -1 0 420)">
      <stop offset="0" stop-color="#5B5B5B"/>
      <stop offset="0" stop-color="#5A5D5A"/>
      <stop offset="0" stop-color="#566456"/>
      <stop offset="0" stop-color="#506F50"/>
      <stop offset="0" stop-color="#468046"/>
      <stop offset="0" stop-color="#3A963A"/>
      <stop offset="0" stop-color="#2BB22B"/>
      <stop offset="0" stop-color="#19D21A"/>
      <stop offset="0" stop-color="#05F606"/>
      <stop offset="0" stop-color="#00FF01"/>
      <stop offset=".844" stop-color="#007C01"/>
      <stop offset="1" stop-color="#006301"/>
      <stop offset="1"/>
    </linearGradient>
    <path id="XMLID_61_" fill="url(#XMLID_74_)" d="M546.5 77.6c0-.2.1-.4.1-.6.1-.2.1-.4.2-.6.1-.2.1-.4.2-.6 0-.1.1-.2.1-.3s.1-.2.1-.3c0-.1.1-.2.1-.3.1-.1.1-.2.1-.3.1-.1.1-.2.2-.3.1-.1.1-.2.2-.3.1-.1.1-.2.2-.3.1-.1.1-.2.2-.2.1-.1.1-.2.2-.2l.2-.2v.2c-.1-.1-.2-.3-.3-.4-.1-.1-.2-.3-.3-.4-.1-.1-.2-.3-.2-.5 0-.1-.1-.2-.1-.2 0-.1-.1-.2-.1-.2l-.1-.2c0-.1-.1-.2-.1-.3l-.1-.3-.1-.3c0-.2-.1-.3-.1-.5v-.2-.6-.5-.3c0-.2 0-.3.1-.5v-.3l.1-.3c0-.2.1-.3.1-.5s.1-.3.1-.5c.1-.2.1-.3.2-.5l.2-.5-.2.5c-.1.2-.1.3-.1.5s-.1.3-.1.5-.1.3-.1.5V70c0 .2.1.3.1.5l.1.2.1.2.1.2.1.2.1.2c0 .1.1.2.1.2.1.1.1.3.2.4.1.1.2.3.3.4.1.1.2.3.3.4l.1.1-.1.1-.2.2-.2.2s-.1.2-.2.2-.1.2-.2.2-.1.2-.2.3c-.1.1-.1.2-.2.3l-.2.3c-.1.1-.1.2-.1.3 0 .1-.1.2-.1.3 0 .1-.1.2-.1.3-.1.2-.2.4-.2.6-.1.2-.1.4-.2.6-.2.3-.2.5-.3.7z"/>
    <g id="XMLID_71_">
      <linearGradient id="XMLID_75_" gradientUnits="userSpaceOnUse" x1="554.356" y1="356.262" x2="554.356" y2="342.342" gradientTransform="matrix(1 0 0 -1 0 420)">
        <stop offset="0" stop-color="#5B5B5B"/>
        <stop offset="0" stop-color="#5A5D5A"/>
        <stop offset="0" stop-color="#566456"/>
        <stop offset="0" stop-color="#506F50"/>
        <stop offset="0" stop-color="#468046"/>
        <stop offset="0" stop-color="#3A963A"/>
        <stop offset="0" stop-color="#2BB22B"/>
        <stop offset="0" stop-color="#19D21A"/>
        <stop offset="0" stop-color="#05F606"/>
        <stop offset="0" stop-color="#00FF01"/>
        <stop offset=".844" stop-color="#007C01"/>
        <stop offset="1" stop-color="#006301"/>
        <stop offset="1"/>
      </linearGradient>
      <path id="XMLID_60_" fill="url(#XMLID_75_)" d="M553 77.6c-.1-.3-.1-.6-.1-.8v-.4-.2-.2-.2-.2-.2c0-.1 0-.1.1-.2 0-.1.1-.3.1-.4l.1-.2.1-.2c0-.1.1-.1.1-.2s.1-.1.1-.2l.1-.2c0-.1.1-.1.1-.2l.1-.1.1-.1.1-.2.1-.2.1-.1.1-.1.1-.2.1-.2.3-.3.3-.3.3-.3v.2c-.1-.1-.2-.3-.3-.4-.1-.1-.2-.3-.3-.5-.1-.2-.2-.3-.3-.5l-.1-.2-.1-.2-.1-.3-.1-.3-.1-.3c0-.1 0-.2-.1-.3s0-.2-.1-.3v-.2c0-.2-.1-.3-.1-.5v-.5-.5-.3-.3c0-.2 0-.3.1-.5v-.3l.1-.3v-.2l.1-.3c0-.2.1-.3.1-.5l.2-.5-.1.5c0 .2-.1.3-.1.5l-.1.3V67.7c0 .2 0 .3.1.5v.2c0 .1 0 .2.1.3s0 .2.1.3l.1.2.1.2.1.2.1.2c0 .1.1.2.1.2.1.2.2.3.2.5.1.1.2.3.3.4.1.1.2.3.3.4l.1.1-.1.1-.3.3-.3.3-.3.3-.1.1-.1.2-.1.1-.1.1-.1.2-.1.2-.1.1-.1.1c0 .1-.1.1-.1.2l-.1.2c0 .1-.1.1-.1.2s-.1.1-.1.2-.1.1-.1.2l-.1.2c-.1.1-.1.3-.1.4 0 .1 0 .1-.1.2 0 .1 0 .1-.1.2v1.6c-.1.2-.1.4 0 .5z"/>
    </g>
    <g id="XMLID_69_">
      <linearGradient id="XMLID_76_" gradientUnits="userSpaceOnUse" x1="562.858" y1="354.47" x2="562.858" y2="343.81" gradientTransform="matrix(1 0 0 -1 0 420)">
        <stop offset="0" stop-color="#5B5B5B"/>
        <stop offset="0" stop-color="#5A5D5A"/>
        <stop offset="0" stop-color="#566456"/>
        <stop offset="0" stop-color="#506F50"/>
        <stop offset="0" stop-color="#468046"/>
        <stop offset="0" stop-color="#3A963A"/>
        <stop offset="0" stop-color="#2BB22B"/>
        <stop offset="0" stop-color="#19D21A"/>
        <stop offset="0" stop-color="#05F606"/>
        <stop offset="0" stop-color="#00FF01"/>
        <stop offset=".844" stop-color="#007C01"/>
        <stop offset="1" stop-color="#006301"/>
        <stop offset="1"/>
      </linearGradient>
      <path id="XMLID_59_" fill="url(#XMLID_76_)" d="M563.1 76.1l-.3-.3c-.1-.1-.2-.3-.2-.4-.1-.1-.1-.3-.1-.4 0-.1 0-.1-.1-.2v-.2-.2-.4-.2c0-.2 0-.3.1-.5 0-.1.1-.3.1-.4 0-.1.1-.3.1-.4s.1-.3.1-.4c.1-.1.1-.3.2-.4.1-.1.1-.3.2-.4.1-.1.1-.3.2-.4.1-.1.1-.3.2-.4.1-.1.1-.3.2-.4l.2-.4.1.2c-.1 0-.2-.1-.3-.1-.1 0-.2-.1-.3-.1-.1-.1-.2-.1-.3-.2-.1-.1-.2-.1-.3-.2l-.1-.1-.1-.1-.1-.1-.1-.1c-.1-.1-.1-.2-.2-.3-.1-.1-.1-.2-.2-.3l-.1-.1s0-.1-.1-.1c0 0 0-.1-.1-.1 0-.1 0-.1-.1-.1 0-.1-.1-.2-.1-.3v-.2c0-.1 0-.2-.1-.3v-.3-.6.3c0 .1 0 .2.1.3 0 .1 0 .2.1.3 0 .1.1.2.1.3v.1l.1.1c0 .1.1.2.1.3 0 .1.1.2.1.3 0 0 0 .1.1.1l.1.1c.1.1.1.2.2.2.1.1.1.2.2.2l.1.1.1.1.1.1.1.1c.1.1.2.1.2.2.1.1.2.1.3.2.1 0 .2.1.3.1.1 0 .2.1.3.1h.1l-.1.1-.2.4c-.1.1-.1.3-.2.4-.1.1-.1.3-.2.4-.1.1-.1.3-.2.4-.1.1-.1.3-.2.4-.1.1-.1.3-.2.4-.1.1-.1.3-.1.4 0 .1-.1.3-.1.4 0 .1-.1.3-.1.4 0 .1-.1.3-.1.4v1.2c0 .1.1.3.1.4.1.1.1.3.2.4l.2.2z"/>
    </g>
    <g id="XMLID_67_">
      <linearGradient id="XMLID_77_" gradientUnits="userSpaceOnUse" x1="531.65" y1="345.891" x2="534.572" y2="348.813" gradientTransform="matrix(1 0 0 -1 0 420)">
        <stop offset="0" stop-color="#5B5B5B"/>
        <stop offset="0" stop-color="#5A5D5A"/>
        <stop offset="0" stop-color="#566456"/>
        <stop offset="0" stop-color="#506F50"/>
        <stop offset="0" stop-color="#468046"/>
        <stop offset="0" stop-color="#3A963A"/>
        <stop offset="0" stop-color="#2BB22B"/>
        <stop offset="0" stop-color="#19D21A"/>
        <stop offset="0" stop-color="#05F606"/>
        <stop offset="0" stop-color="#00FF01"/>
        <stop offset=".844" stop-color="#007C01"/>
        <stop offset="1" stop-color="#006301"/>
        <stop offset="1"/>
      </linearGradient>
      <path id="XMLID_58_" fill="url(#XMLID_77_)" d="M532.3 74.6v-.2-.2c0-.1 0-.3.1-.4.1-.2.2-.5.3-.7.1-.1.1-.2.2-.3 0-.1.1-.1.1-.1 0-.1.1-.1.1-.1.2-.2.3-.4.5-.5v0-.1-.2-.2-.2-.2c0-.1 0-.1.1-.2v-.1s0-.1.1-.1 0-.1.1-.1c0 0 .1 0 .1-.1 0 0 0 .1-.1.1V72.3l-.3.3-.1.1-.1.1-.1.1-.1.1c-.1.1-.2.2-.2.3 0 .1-.1.1-.1.1 0 .1-.1.1-.1.2l-.1.2c0 .1-.1.1-.1.2s0 .1-.1.2 0 .1-.1.2v.2c-.1-.1-.1 0-.1 0z"/>
    </g>
  </g>
</svg>
