<svg id="Ebene_1" xmlns="http://www.w3.org/2000/svg" width="210" height="210" viewBox="0 0 210 210"><title>Blank globe, focus on Africa</title><path fill="#fff" stroke="#ccc" stroke-width=".75" d="M205.5 105.233c0 55.104-44.673 99.777-99.78 99.777S5.937 160.338 5.937 105.233c0-55.107 44.675-99.78 99.783-99.78s99.78 44.673 99.78 99.78z"/><path fill="#ccc" d="M98.17 199.174c-.504-.076-.937-.322-.968-.537-.027-.22-.063-.552-.085-.742-.054-.464-2.39-2.51-3.923-3.438-.774-.464-1.394-1.177-1.648-1.89-.23-.63-.537-1.147-.684-1.147-.144 0-.26-.215-.26-.48 0-.266-.318-.7-.704-.976-.383-.267-.603-.65-.48-.845.136-.22.02-.28-.3-.16-.377.15-.514-.02-.514-.61 0-.51-.574-1.41-1.536-2.42-1.587-1.65-2.268-3.67-1.55-4.59.183-.23.427-.83.55-1.33.12-.5.666-1.24 1.21-1.65 1.182-.87 1.216-1.2.293-2.76-.38-.66-.61-1.42-.5-1.7.11-.28-.42-1.78-1.18-3.33-1.02-2.11-1.84-3.26-3.24-4.53-1.68-1.54-3.37-3.86-3.37-4.64 0-.16.23-.3.5-.3.34 0 .51-.35.51-1.08.01-.6.23-1.37.5-1.73.87-1.15.36-3.51-.56-2.6-.22.23-.6.41-.84.41-.61 0-.53-.98.1-1.22.97-.37-.23-.77-2.35-.78-1.1-.01-2.17-.12-2.37-.25-.21-.14-.77-1.03-1.25-1.98-.76-1.51-1.04-1.76-2.13-1.97-1.67-.32-3.73-.31-6.74.01-2.34.25-2.6.21-4.16-.63-1.29-.69-2.31-.93-4.49-1.08-3.24-.22-3.51-.39-6.42-4.11-.93-1.19-2.38-2.79-3.21-3.57-.99-.92-1.39-1.49-1.14-1.66.6-.42.15-2.25-.82-3.34-.48-.55-1.07-1.27-1.3-1.61-.23-.35-.72-1.08-1.09-1.63-.5-.74-.61-1.26-.43-2 .13-.55.25-1.75.26-2.66.01-1.07.21-1.84.54-2.17.7-.66 1.39-2.33.96-2.33-.18 0-.32-.45-.32-1s.13-1 .29-1 .27.26.25.58c-.09 1.31.58.81.7-.53.09-.96.02-1.37-.22-1.23-.44.27-.45.34.15-2.49.41-1.93.77-2.68 1.92-4.02.78-.91 1.68-1.73 2-1.83.32-.11.58-.41.58-.68 0-.89 1.01-2.05 1.95-2.24.52-.11 1.12-.56 1.37-1.03.36-.66.63-.8 1.23-.66.48.12.79.05.79-.19 0-.21.18-.35.41-.31.23.03.64-.03.92-.15.27-.12.89-.35 1.37-.53.67-.25.92-.62 1.08-1.6.28-1.77 2.28-3.81 4.25-4.33 1.87-.49 3.26-2.22 3.03-3.76-.1-.69-.33-1-.75-1-.33 0-.69-.15-.81-.33-.11-.18-.49-.34-.85-.34-.76 0-.79-.27-.13-1.15.32-.42.42-1.03.3-1.67-.15-.82.02-1.29.83-2.31 1.06-1.33 1.69-3.05 1.69-4.6 0-.78.2-.95 1.37-1.27 1.14-.3 1.46-.28 1.94.15.32.29.8.52 1.07.52s.64.15.82.33c.18.18 1.07.55 1.98.83 1.59.48 1.68.48 2.23-.18.31-.38.67-1.2.78-1.83.25-1.33-.08-3.47-.54-3.47-.17 0-.32-.21-.32-.47s-.22-.55-.5-.65c-.29-.11-.5-.61-.5-1.2 0-.95.08-1 1.31-1 .72 0 1.39.19 1.5.42.11.23.1.05-.01-.38-.16-.63-.09-.76.32-.6.29.11.58.02.66-.2.1-.27.35-.21.82.2.64.57.74.57 1.96.04l1.29-.57-1.17-.29c-.64-.16-2.29-.35-3.66-.42s-2.76-.15-3.08-.16c-.9-.06-.68-.6.33-.82.51-.12 1.22-.44 1.59-.72.54-.42.58-.57.2-.81-.61-.37-.21-1.35.56-1.35.44 0 .6-.24.59-.91-.01-.8.1-.9.9-.81.81.08.91-.01.88-.83-.03-.57-.1-.7-.19-.35-.09.32-.38.58-.67.58-.32 0-.44-.19-.33-.49.16-.41.09-.43-.46-.09-.36.22-.66.72-.66 1.1 0 .39-.26.93-.59 1.21-.68.59-3.45 1.07-4.42.76-.99-.31-.87-1.75.18-2.23.51-.22.78-.57.68-.84-.26-.68.82-2.15 1.42-1.93.27.11.77-.05 1.1-.35.36-.32.94-.48 1.41-.4.54.11.93-.05 1.18-.46.24-.37.26-.61.05-.61-.59 0-.36-.66.25-.7.55-.04.55-.04 0-.19-.78-.2-.73-.57.2-1.58.81-.87 1.88-1.14 1.88-.47 0 .27.15.26.49-.03.26-.22.65-.3.85-.17.2.13.663-.04 1.02-.36.52-.47.74-.505 1.06-.176.33.33.18.61-.677 1.39-.93.84-.99.97-.413.97.88 0 .88 1.04 0 1.83-.77.7-.69 1.83.37 4.75.72 2.014.83 4.27.21 4.49-.23.083-.31.26-.19.39.37.4 2.12-.71 3.07-1.96.82-1.07 1.053-1.18 2.53-1.18 1.79 0 1.85-.077 2.17-2.63.25-1.98.52-2.38 2.02-2.897.99-.34 1.34-.35 1.54-.04.15.24.26-.05.26-.68 0-1.19-.47-1.38-1.517-.59-.36.27-1.1.5-1.65.5-1.486.02-1.94-.93-1.65-3.44.31-2.69.83-3.62 2.46-4.36.75-.33 1.36-.73 1.36-.87s.52-.45 1.17-.68c.79-.29 1.56-.99 2.35-2.15.65-.945 1.545-1.91 1.99-2.146.44-.24.744-.496.67-.57-.08-.08-.466.04-.864.25s-.8.31-.9.21c-.26-.27 1.9-2.17 3.3-2.896.67-.35 1.316-.78 1.43-.97.12-.18.65-.34 1.19-.34.54 0 .98-.12.98-.26 0-.39 1.986-.99 3.38-1.02.85-.01 1.476.23 2.096.8.49.45 1.11.82 1.37.82.27 0 .49.15.49.34s.29.33.66.33c1.18 0 4.92 1.73 5.31 2.46.22.4.74.72 1.22.75.78.04.8 0 .32-.53-.28-.32-.52-.823-.52-1.13 0-.31-.15-.56-.33-.56-.18 0-.33-.24-.33-.53 0-.41.25-.5 1.08-.38.6.08 1.35.26 1.66.4.43.185.89-.104 1.8-1.11.79-.88 1.62-1.43 2.34-1.57 2.137-.395.887-1.8-1.382-1.545-.89.1-1.75-.03-2.42-.38-.88-.45-1.07-.77-1.236-2.12-.11-.87-.29-1.958-.39-2.41-.41-1.83-.22-2.76.67-3.41.48-.35.88-.86.88-1.137 0-.29.23-.45.58-.38.45.09.55.37.45 1.28-.07.63-.14 2.25-.16 3.6-.02 2.16.06 2.52.73 3.06.99.8 3.89 1.34 5.56 1.04l1.33-.25-.92-.79c-.5-.44-.91-1.1-.91-1.466s-.21-.9-.46-1.19c-.26-.284-.57-1.03-.7-1.65-.23-1.08-.2-1.115.61-.91.74.19.86.1.95-.69l.11-.92.75.81c.61.65.75.7.75.24 0-.31-.16-.56-.37-.56s-.3-.35-.21-.83c.09-.452.04-.83-.1-.83s-.35-.63-.47-1.41c-.43-2.82-.56-3.18-1.2-3.342-.91-.24-.83-1.23.11-1.24.73-.01.73-.02.08-.39-.36-.21-.77-.54-.91-.74-.16-.25-.24-.25-.25 0 0 .19-.96.55-2.13.78-2.244.44-2.964.29-3.89-.84-.44-.53-.38-.56.66-.35.79.16 1.38.06 1.95-.3.48-.32 1.12-.45 1.61-.33.47.12.8.05.8-.16 0-.24.5-.29 1.45-.147 1.15.17 1.49.11 1.65-.31.25-.66 1.24-.67 3.3-.05 1.54.47 1.58.46 1.58-.22 0-.38.26-.89.59-1.14.53-.4.5-.444-.32-.454-1.07-.01-1.31-.3-1.05-1.28.15-.59.44-.73 1.56-.75.76-.02 1.19-.1.96-.2-.23-.09-.42-.37-.42-.63 0-1.2-3.42-2.15-4.58-1.28-1.18.9-3.42.33-3.42-.86 0-.35-.15-.73-.33-.84-.6-.37-.36-1.16.36-1.16.42 0 .77.26.87.66.1.36.336.664.53.664.196 0 .626.25.955.546.56.51.62.51.81 0 .12-.3.42-.54.68-.54.556 0 .616-.53.11-.85-.2-.12-.29-.5-.2-.84.11-.44-.17-.81-.97-1.28-1.14-.67-1.49-1.34-.72-1.37.68-.03-2.477-1.55-3.746-1.81-.646-.13-2.82-1.04-4.83-2.01-2.02-.97-4-1.87-4.416-1.99-.85-.25-1.02-.84-.25-.84.27 0 .5-.15.5-.33 0-.18.22-.33.5-.33s.49.15.49.33c0 .18.415.33.92.33.5 0 1.365.24 1.915.53 1.34.71 4.49 1.04 4.49.48 0-.26.22-.33.58-.19.32.12 2.31.59 4.41 1.04 2.11.45 4.13.95 4.5 1.12 1.64.77 3.296 1.34 3.887 1.34.36 0 1.09.23 1.627.51.89.46.98.46.98 0 0-.28.16-.51.34-.51.18 0 .33.23.33.5s.26.5.59.5c.32 0 1.41.31 2.41.7 1 .38 2.357.81 3.01.94 1.33.27 4.64 1.98 4.64 2.4 0 .38-3.793-.46-6.823-1.51-.37-.13-.11.11.58.53s1.24.96 1.24 1.19c0 .22.16.41.34.41s.98.58 1.75 1.29c.77.72 2.98 2.23 4.9 3.37 1.92 1.15 3.96 2.53 4.54 3.07.66.63 1.13.86 1.27.63.32-.52-.09-1.03-.66-.81-.464.18-.54.054-.62-.967-.02-.23-.264-.59-.534-.81-1-.78-.02-.797 2.21-.05 2.33.78 3.01 1.25 2.4 1.63-.2.13-.11.3.22.43.31.12.7.13.87.02.18-.11.52-.03.78.18s.93.395 1.49.41c.74.023 1 .175.94.563-.05.35.16.53.64.54.87.01 4.11 2.65 4.11 3.34 0 .68-.46.6-1.19-.21-.35-.38-.93-.84-1.3-1.014-.79-.37 1.15 1.42 4.06 3.75 1.19.96 2.49 2.39 3.07 3.39 1.04 1.78 5.05 6.08 7.047 7.55l1.13.83-1.25-1.71c-1.3-1.78-1.446-2.12-.936-2.12.44 0 6.16 7.62 5.91 7.87-.12.11-.44.02-.72-.21-.71-.59-.63-.25.16.66.654.76.854 1.33.46 1.33-.11 0-.975-.83-1.92-1.83-.944-1-1.854-1.83-2.02-1.83-.165 0-.6-.26-.96-.58-.645-.58-.645-.57-.1.5.36.7.42 1.08.18 1.08-.21 0-.29.23-.18.51.13.34.06.44-.18.28-.77-.47.09.52 1.02 1.17l.94.68-.116-.99c-.18-1.59.45-1.15 1.57 1.09 1.34 2.67 1.66 3.07 1.99 2.53.18-.28.76.14 1.87 1.36 1.8 1.99 2.67 3.28 4.16 6.18.57 1.1 1.34 2.32 1.73 2.72 1.17 1.2 1.56 1.74 2.06 2.94.63 1.51.62 2.29-.03 2.04-.39-.15-.44-.06-.2.38.44.83 1.71 7 1.71 8.32 0 .62.32 1.82.72 2.68.81 1.75 1.24 5.05.66 5.05-.2 0-.53-.64-.73-1.42-.6-2.32-.71-2.64-.88-2.47-.08.08.06 1.32.34 2.74.45 2.38.61 2.71 1.95 3.95 1.88 1.74 2.45 3.77 2.75 9.76.19 3.87.15 4.41-.31 4.41-.29 0-.53-.225-.53-.5 0-.28-.224-.5-.494-.5-.28 0-.5-.23-.5-.5 0-.75-.59-.6-.85.2-.27.87.12 4.29.49 4.29.15 0 .36.64.48 1.42.15 1.005.42 1.52.92 1.75 1.48.68 2.24 6.81 1.47 11.8-.27 1.73-.65 3.2-.84 3.27-.2.06-.36.33-.36.59 0 .263-.15.475-.33.475-.19 0-.33-.22-.33-.5 0-.63-1.38-3.612-1.74-3.77-.44-.18-.3-.78.27-1.2.47-.35.43-.46-.34-.96-1.11-.723-1.12-1.863-.05-2.87.69-.65.91-.702 1.34-.35.28.24.61.34.73.22.33-.34-.93-4.54-1.37-4.54-.23 0-.65-1.104-.98-2.58-.99-4.452-1.278-5.52-1.99-7.57l-.7-1.994-.34 1.81c-.33 1.72-1.02 2.59-1.3 1.64-.07-.24-.3-1.08-.51-1.85-.21-.78-.51-1.42-.66-1.42-.16 0-.858-.52-1.558-1.16-.7-.65-1.35-1.17-1.45-1.16-.35.01-2.35 4.72-2.35 5.54 0 .44-.21 1.51-.46 2.37-.55 1.86-1.26 5.91-1.23 7 .02.424-.33 1.52-.77 2.44-.74 1.55-.77 1.76-.33 2.81.26.63.49 1.85.51 2.72.04 1.88.51 3.634 1.073 3.98.837.514 1.877 2.384 1.877 3.37 0 1.26-.59 2.61-1.27 2.864-.68.26-1-.32-1.27-2.26-.24-1.76-.66-1.7-1.27.19-.27.822-.54 1.08-1.15 1.08-.64 0-1-.374-1.75-1.83-.52-1-1.09-1.88-1.28-1.94-.18-.06-.7-.88-1.15-1.83-.45-.94-1.18-2.1-1.62-2.57-.44-.47-.9-1.18-1.03-1.58-.13-.4-.38-.724-.57-.724-.19 0-.268-.2-.17-.46s-.18-.99-.63-1.64c-.44-.66-.8-1.34-.8-1.52 0-.19-.548-.27-1.26-.18-.848.1-1.68-.07-2.56-.52-.72-.37-1.51-.67-1.74-.67s-.43-.22-.43-.48-.46-.57-1.02-.693c-.57-.12-1.1-.44-1.2-.7-.1-.26-.48-.64-.85-.83-.53-.28-.86-.22-1.54.28-.48.35-1.41.85-2.04 1.1-.65.26-1.46.74-1.82 1.07-.36.33-.81.54-1 .48-.19-.07-1.02.07-1.85.32-1.87.56-3.74.58-4.27.053-.586-.58-.53.52.09 1.71.56 1.09 1.25 1.43 2.31 1.17.46-.116 1.23.1 2 .55 1.17.68 1.24.81 1.04 1.93-.11.66-.29 1.756-.39 2.44-.115.76-.37 1.25-.65 1.25-.32 0-.47.407-.47 1.25 0 .89-.19 1.37-.67 1.67-.37.23-.67.73-.67 1.11 0 .42-.27.77-.68.874-.41.106-.76.546-.87 1.104-.118.58-.46 1-.9 1.11-1.11.285-3.156 2.13-3.27 2.96-.06.46-.736 1.153-1.77 1.83-.915.6-2.02 1.42-2.45 1.82-.996.92-4.08 2.913-4.51 2.913-.18 0-.735.39-1.23.867-.55.53-1.33.88-1.99.91-.98.05-1.17-.1-1.845-1.44-.94-1.88-1.18-2.58-1.3-3.8-.06-.67-.6-1.43-1.77-2.49-.92-.84-1.76-1.838-1.87-2.22-.1-.38-.68-.9-1.27-1.16-.83-.37-1.18-.81-1.53-1.97-.77-2.52-1.44-3.67-2.28-3.88-.43-.11-1.01-.63-1.28-1.16-.27-.53-.62-.96-.78-.96-.16 0-.38-.34-.49-.75-.36-1.28-2.32-3.3-2.96-3.06-.32.12-.57.45-.57.73 0 .64 1.72 3.67 2.65 4.67.38.41.62.89.52 1.05-.25.4.14 1.36.54 1.36.93 0 2.13 2.03 2.45 4.16.176 1.18.43 1.62 1.19 2.07.53.31 1.295 1.25 1.69 2.07.4.83.88 1.62 1.08 1.75.24.163.225.25-.05.25-.23 0-.32.23-.22.502.26.65.79.64.79-.03 0-.35.25-.49.75-.42s.75.33.75.77c0 .41.54 1.03 1.41 1.61 2.11 1.41 3.28 2.61 3.54 3.63.36 1.47 1.32 1.75 3.14.92.87-.39 1.79-.85 2.07-1.02.28-.17.73-.4 1-.51 2.17-.868 4.21-1.94 4.43-2.33.15-.258.56-.468.92-.468.486 0 .65.23.65.93 0 .517.187 1.127.416 1.357.33.33.3.48-.16.74-.31.17-.49.52-.39.78.1.25-.15 1.09-.55 1.88-.4.78-1.09 2.38-1.53 3.55-1.26 3.336-2.87 5.54-7.24 9.88-6.04 6.02-9.22 9.83-8.19 9.83.52 0 .35 1.28-.18 1.39-.44.1-.44.22-.03 1.01.53 1.026.51 1.64-.09 2.364-.56.68-.16 2.13.64 2.33.57.15.63.47.58 3.11l-.06 2.947-1.37 1.33c-.78.75-2.12 1.59-3.09 1.94-.95.33-1.91.83-2.14 1.1-.23.276-.99.79-1.7 1.15-1.416.73-1.85 1.41-1.3 2.07.42.51.13 2.74-.41 3.176-.21.16-1.14.54-2.08.84-1.43.47-1.8.76-2.28 1.82-.57 1.27-.68 1.36-5.29 3.79-2.82 1.49-4.67 1.85-10.38 2.02-2.93.08-5.74.08-6.24 0zm26.117-22.698c-.276-.698-.66 1.204-.43 2.134.13.513.22.41.402-.47.13-.624.14-1.373.02-1.664zm-7.054-4.65c0-.16-.31-.375-.686-.473-.562-.146-.613-.093-.29.293.44.53.976.63.976.18zm4.8-7.69c.682 0 1.626-1.254 1.396-1.854-.16-.41-.44-.485-1.12-.317-.51.122-.97.364-1.03.532-.07.17-.31.308-.55.308-.24 0-.5.447-.58.99-.12.792-.02.997.54 1.078.38.054.73-.088.79-.317.06-.23.3-.42.53-.42zm80.752-44.38c-.317-.292-.364-.238-.195.233.117.33.234.86.26 1.16.028.3.113.2.194-.23.083-.44-.037-.96-.26-1.17zm-.315-1.044c0-.637-.207-.637-.45 0-.108.276-.053.5.128.5.178 0 .322-.224.322-.5zm-51.936-2.45c.005-.47.052-.477.317-.05.42.66.74.306 2-2.24.57-1.148 1.18-2.08 1.36-2.08s.32-.187.32-.416c0-.23-.39.015-.85.542-1.06 1.204-3.18 1.54-4.72.745-.57-.293-1.26-.444-1.54-.337-.5.188-2.86-1.938-2.86-2.576 0-.158-.16-.288-.35-.288s-.26-.148-.15-.332c.11-.183.05-.332-.15-.332-.19 0-.35.335-.36.747 0 .605-.06.654-.32.25-.28-.43-.32-.426-.33.056 0 .31-.19.64-.42.74-.28.12-.18.36.34.73.41.31.75.76.75 1 0 .26.21.37.48.27.28-.11.71.2 1.08.76.34.52.83 1.14 1.11 1.39.28.24.34.36.15.26-.19-.09-.36.02-.36.26 0 .24.21.43.47.43.32 0 .42-.26.32-.78-.13-.67-.05-.75.56-.56.9.28.84.21 1.19 1.4.2.72.17 1.08-.1 1.19-.27.12-.25.26.09.49.61.41 2.03-.45 2.04-1.23zm-50.947-5.037c.146-1.304.313-1.57 1.33-2.078 1.512-.752 2.84-.74 3.617.04.342.34 1.2.73 1.917.86.71.135 1.45.362 1.63.506.19.146.86.347 1.5.452.64.103 1.92.327 2.83.5 1.43.264 1.8.22 2.56-.32.93-.66 2.6-.82 4.62-.45 1.53.28 1.74.01 2.62-3.523.87-3.48.66-5.398-.62-5.58-.45-.062-.9.1-1.07.392-.43.764-2.21 1.047-2.88.46-.88-.777-2.05-1.04-2.05-.462 0 .957-1.75 1.187-2.6.34-.51-.514-.56-.5-.73.224-.18.79-.99 1.345-.99.686 0-.2-.31-.674-.69-1.052-.37-.378-.6-.913-.5-1.19.15-.368.03-.44-.47-.28-.47.15-.66.056-.66-.332 0-.295.15-.45.34-.337.18.12.33.05.33-.14s-.23-.35-.52-.35c-.4 0-.49-.33-.44-1.49.05-.82-.02-1.59-.15-1.72-.13-.13-.23-.05-.23.16s-.22.39-.49.39-.5-.22-.5-.5c0-.27.15-.5.33-.5.19 0 .34-.25.34-.55 0-.44-.13-.4-.66.21-.37.42-1.13.86-1.7.97l-1.04.21.87.93c.49.53 1.03.83 1.25.7.21-.13.3-.09.19.08s.41.97 1.15 1.77c1.15 1.25 1.27 1.5.8 1.76-.29.16-.45.44-.35.61.11.17.06.32-.12.32s-.4-.22-.51-.49c-.1-.28-.41-.41-.7-.29-.36.14-.51-.01-.51-.51 0-.85-.95-1.31-1.36-.65-.16.26-.3.88-.3 1.38 0 .5-.16.91-.34.91-.18 0-.33-.11-.33-.26 0-.14-.45-.43-1-.63-.67-.25-1-.6-1-1.07 0-.38-.21-.69-.48-.69-.69 0-1.01-.69-.48-1.03.34-.2.35-.29.05-.29-.23 0-.42-.3-.42-.65 0-.36-.15-.74-.34-.85-.63-.39-1.3-2.51-1.11-3.49.16-.77.01-1.14-.71-1.8-.49-.46-1.41-1-2.03-1.21-.62-.2-1.13-.53-1.13-.72 0-.19-.34-.68-.75-1.08-1.24-1.2-1.92-2.15-1.92-2.68 0-.76-.65-.59-.98.26-.22.58-.11.94.51 1.6.44.47.8 1.08.8 1.37 0 .8 1.3 2.27 2.02 2.27.35 0 .64.19.64.43 0 .25.68.91 1.5 1.5 1.52 1.07 1.74 1.51 1.18 2.4-.27.42-.42.38-1.02-.26-.38-.41-.85-.66-1.04-.54-.23.14-.22.33.02.57.2.2.37.62.37.93 0 .78-1.68 2.63-2.4 2.63-.44 0-.59.26-.59 1 0 1.1-.63 1.32-1.45.5-.28-.28-.6-.5-.72-.5-.51 0-2.16-1.41-2.16-1.85 0-.59 1.6-1.01 2.06-.55.42.42 2.66.12 3.02-.4.41-.58-.04-1.86-.92-2.64-1.8-1.61-2.56-2.22-2.77-2.23-.12 0-.66-.6-1.2-1.33-.54-.73-1.17-1.32-1.41-1.32s-.44-.15-.44-.34.16-.33.36-.33c.48 0 .02-1.4-.62-1.87-.38-.28-.76-.24-1.53.14-1.96.97-2.18 1.06-2.63 1.06-.25 0-.93-.24-1.51-.53-1.3-.65-2.03-.41-2.03.65 0 .96-.4 1.31-2.16 1.92-1.75.6-3.56 2.22-3.32 2.97.2.63-1.69 2.77-2.17 2.47-.15-.09-.5.05-.78.33-.57.57-1.47.64-2.66.19-1.1-.42-2.22-.08-2.22.67 0 .74.32.96 1.55 1.05.52.04 1.13.25 1.36.47.28.27.72.3 1.33.11 3.64-1.12 4.46-1.16 10.75-.45 1.01.12 2.63.2 3.6.18 1.23-.02 1.81.11 1.94.44.1.26.39.39.65.29.32-.12.47.05.47.53 0 .39-.22.79-.48.89-.38.15-.4.34-.11.91.98 1.91.99 1.97.55 2.26-.25.16-.69.28-.99.29-.3 0-.64.24-.75.52-.11.3-.06.43.14.31.18-.11.83.33 1.45.98.62.66 1.44 1.19 1.84 1.19 1.33 0 3.69 1.29 3.69 2.01 0 .42.34.79.91 1.02.51.19 1.59.7 2.42 1.12 2.08 1.08 2.45.96 2.65-.82zm6.556-6.23c-.528-.08-.877-.314-.804-.533.14-.45.19-.452 2.32-.09 2.93.507 1.53 1.084-1.52.622zm11.754-.113c0-.48.872-1.326 1.116-1.082.107.107.573-.054 1.04-.36.866-.568 1.152-.312.44.397-.22.22-.265.398-.102.398.17 0 .01.222-.34.49-.75.572-2.14.672-2.14.157zm-7.778-.813c.24-.64.45-.64.45 0 0 .27-.15.5-.32.5-.18 0-.24-.23-.14-.5zm-17.86-1.17c0-.43.23-.43.5 0 .11.18.04.33-.15.33s-.35-.15-.35-.33zm-7.03-6.22c-.03-.16-.01-.42.02-.61s.06-.95.06-1.71c0-1.07.12-1.36.55-1.33.43.03.52-.22.44-1.19-.08-.96.05-1.3.59-1.6.6-.33.68-.28.66.39-.01.42-.14 1.06-.29 1.42-.15.36-.14 1 .01 1.4.21.56-.11 2.49-.5 2.96-.2.24-1.55.44-1.58.23zm-7.45-2.08c-.3-.48.08-1.02.69-1.02.29 0 .46.23.39.55-.13.67-.79.94-1.09.46zm1.82-.67c0-.19.15-.35.33-.35.42 0 .42.23 0 .49-.19.11-.34.04-.34-.15zm27.67 6.54c-.28-.27-.37-.24-.37.14 0 .66.44 1.11.61.61.07-.21-.04-.55-.25-.75zm37.03-4.65c.48-.36.51-.57.15-1.5-.23-.59-.53-1.08-.67-1.08-.15 0-.27-.19-.27-.43 0-.23-.3-.98-.67-1.66s-.67-1.44-.67-1.7c0-.25-.23-.64-.5-.87-.28-.23-.5-.77-.5-1.21 0-.58-.19-.79-.68-.79-.38 0-1.06-.38-1.51-.84-.46-.46-.97-.84-1.13-.84-.16 0-.57-.35-.9-.77-.82-1.03-1.63-1.3-2.13-.7-.31.36-.32.68-.06 1.22.19.4.44 1.11.55 1.57.1.45.3.98.44 1.17.52.7 3.85 3.15 4.29 3.15.25 0 .45.22.45.49s-.23.5-.52.5c-.42 0-.49.37-.41 1.91.09 1.75.17 1.92.93 2.02.46.06.98.25 1.15.41.46.44 1.96.38 2.62-.11zm-32.07-.92c0-.18-.24-.33-.52-.33-.29 0-.43.15-.32.33.26.43.83.43.83 0zm4.25-2.13c1.33-.85 4.4-1.44 4.4-.85 0 .19.15.25.34.14s.57-.04.83.19c.27.22 1.45.4 2.67.4 1.81 0 2.32-.13 2.98-.75 1-.94.7-1.64-1.08-2.57-.7-.37-2.08-1.1-3.09-1.64-1.97-1.05-2.66-1.06-4.05-.07-1.08.76-1.94.81-1.94.1 0-.3-.31-.62-.7-.72-.47-.13-.64-.38-.53-.8.12-.44-.02-.62-.44-.62-.34 0-.69-.19-.78-.42-.22-.55-1.53 1.02-1.54 1.83-.01.32-.31.84-.68 1.15-.37.31-.66.98-.66 1.49s-.14.92-.3.92c-.56 0-.68 1.48-.19 2.24.7 1.06 3.04 1.04 4.74-.04zm5.84-7.65c.1-.26.02-.62-.17-.81-.45-.45-1.93.18-1.93.82 0 .59 1.87.58 2.1-.02zM98.06 71.11c.784-.597 1.905-.63 2.46-.075.285.29.485.3.65.06.13-.2.48-.45.782-.56.35-.13.608-.72.718-1.64.097-.79.44-2.22.77-3.18.5-1.453.76-1.775 1.617-1.992.896-.227.78-.278-.98-.427-1.164-.096-2.05-.03-2.133.16-.234.56-.864 1.075-1.61 1.31-.75.237-1.273 1.28-.924 1.85.23.363-.39 1.703-.96 2.082-.2.135-.7.245-1.112.25-.773.004-1.002.473-.414.836.5.31.397.83-.167.83-.273 0-.498-.15-.498-.33s-.38-.33-.84-.33-.84.15-.84.33.22.332.49.332.5.23.5.5c-.01.65 1.61.644 2.47-.01zm2.183-4.027c0-.39.227-.897.505-1.128.79-.66.86-.24.15.85-.575.87-.648.9-.65.27zm-6.015.895c.39-.247.406-.447.07-1.077-.24-.46-.33-.52-.22-.15.112.38-.05.8-.403 1.08-.656.5-.192.63.558.16zm11.89-1.19c.29-.75-.52-1.6-1.074-1.137-.35.29-.358.5-.045 1 .48.77.86.82 1.12.14zm13.105-2.47c0-.454-.588-.75-.798-.407-.2.32.087.72.52.72.153 0 .277-.14.277-.31zm-9.868-1.52c.243-.637.072-.637-.455 0-.24.29-.27.5-.076.5.185 0 .42-.224.53-.5zM103 61.18c.275-.404.192-3.864-.094-3.864-.1 0-.638.42-1.197.93-1.32 1.204-1.72 2.634-.89 3.252.62.47 1.75.31 2.18-.318zm10.234.306c0-.425-.94-1.18-1.48-1.18-.34 0-.197.86.213 1.266.553.554 1.266.503 1.266-.086zM105.1 56.11c1.263-.963 1.498-1.79.5-1.79-.65 0-1.69.815-1.69 1.33 0 .153-.09.52-.2.805-.286.75.078.66 1.39-.342zm10.3-.795c-.11-.182-.46-.323-.77-.31-.46.02-.44.075.105.31.89.385.9.385.666 0zm1.664-1.796c0-.62-.193-.7-1.685-.7-1.51 0-1.68.07-1.56.66.1.54.4.67 1.68.7 1.37.02 1.55-.05 1.55-.67zm65.24-6.15c.1-.16-.03-.47-.286-.68-.385-.32-.44-.27-.29.29.193.75.303.82.574.39zm-53.377-9.78c-.327-.33-.368-.29-.186.18.13.33.31.51.42.41.11-.1 0-.37-.22-.6zm38.916-9.36c0-.07-.26-.33-.58-.58-.528-.42-.54-.4-.125.12.43.55.704.73.704.45zM143.87 14.57c0-.252-4.12-1.493-4.303-1.295-.202.22-.093.27 2.305 1.118 1.33.472 1.997.53 1.997.176zm-6.764 174.264c-.073-.132-.153-.85-.176-1.597-.036-1.108.145-1.533.97-2.324.88-.84.983-1.123.803-2.188-.24-1.398.542-3.283 1.353-3.283.926 0 3.5-1.414 4.412-2.417 3.67-4.067 3.696-4.092 4.182-3.57.65.687.928 3.2.403 3.64-.228.187-.513.243-.633.126-.122-.12-.22.19-.22.67 0 .49-.15.89-.334.89-.184 0-.332.15-.332.33 0 .39-2.227 3.99-4.163 6.73-1.01 1.44-1.68 2.03-2.8 2.46-1.69.65-3.26.9-3.45.54zm17.752-8.374c0-.195.148-.354.332-.354.427 0 .427.236 0 .498-.183.113-.332.05-.332-.144zm-78.914-20.63c0-.195.154-.354.334-.354.43 0 .43.236 0 .498-.182.115-.334.05-.334-.144zm-55.837-2.934c-3.7-5.778-8.298-16.208-10.532-23.892C6.02 120.758 4.687 106.77 5.99 95.316c.54-4.75 1.132-5.044 1.04-.515-.163 8.38-.102 11.42.245 11.84.203.24.542 1.49.754 2.77.21 1.28.52 2.58.68 2.9.16.32.3 1.3.31 2.16 0 .88.21 2.49.46 3.59.25 1.1.55 2.75.67 3.66.37 2.94 3.1 9.57 4.87 11.84.51.67 1.62 2.65 2.46 4.42.84 1.77 1.66 3.21 1.82 3.21.35 0 .61.63 1.22 2.93.68 2.54.59 3.28-.54 4.69l-1.02 1.26.87 2.63c.96 2.93 1.8 6.13 1.61 6.13-.07 0-.68-.86-1.36-1.91zm134.416-21.045c.657-.42 1.426-.42 1.167 0-.112.19-.534.34-.935.33-.593 0-.637-.06-.232-.32zm-19.31-2.19c0-.58.717-.48.922.14.073.22-.104.4-.396.4-.29 0-.53-.24-.53-.53zm-101.07-12.14c-.12-.19-.14-.43-.04-.53.236-.24.885.18.885.57.002.43-.574.4-.845-.04zm1.18-1.31c0-.43.237-.43.5 0 .11.18.05.34-.15.34-.19 0-.35-.15-.35-.33zm-1.75-2.15c-.667-.91-.72-1.17-.25-1.17.18 0 .333.18.333.39s.25.67.554 1c.304.34.416.61.25.6-.166-.01-.564-.37-.884-.81zm163.48-10.03c-.133-.13-.233-.63-.224-1.09l.02-.86.32.8c.35.87.27 1.56-.12 1.16zM49.17 106.28c-.145-.23-.17-.51-.06-.62.298-.298.623.142.46.622-.112.338-.19.338-.4 0zm2.307-.578c.48-.473.945-.785 1.04-.695.26.26-.964 1.564-1.467 1.564-.255 0-.076-.36.427-.87zm-3.5-.8c0-.18.233-.33.52-.33s.426.15.312.33c-.27.437-.84.437-.84 0zm2.33-7.65c0-.424.237-.424.5 0 .112.184.046.333-.146.333s-.35-.15-.35-.332zm-4.995-12.645c0-.427.237-.427.5 0 .112.18.05.334-.146.334-.198 0-.354-.15-.354-.33zm-1.843-2.68c-.31-.492-.07-.67.47-.336.28.18.32.35.09.49-.19.12-.45.06-.57-.14zM10.4 78.945c0-.457.076-.645.168-.415.09.226.09.6 0 .83-.092.23-.167.044-.167-.418zm.207-3.03c-.247-.644.417-3.622.81-3.622.272 0 .1 1.465-.395 3.315-.16.61-.268.688-.415.308zm3.736-11.943c0-.18.15-.33.332-.33s.33.15.33.33c0 .186-.15.337-.33.337s-.334-.15-.334-.34zm.996-1.84c0-.415 1.06-2.197 1.21-2.043.18.17-.79 2.22-1.06 2.22-.09-.01-.16-.09-.16-.19zm68.93-2.21c-.01-.313.15-.664.35-.784.58-.364.67.02.15.703-.43.57-.49.57-.5.08zm-67.6-.564c0-.183.15-.425.33-.537.18-.11.33-.06.33.13s-.15.43-.33.54c-.18.11-.34.06-.34-.13zm64.73-3.366c0-.367.19-.67.44-.67.33 0 .35.16.08.67-.45.83-.52.83-.52 0zM38.44 53.91c.04-.23.18-.604.325-.834.166-.266.07-.417-.26-.417-.285 0-.52-.22-.52-.49 0-.32.194-.42.55-.28.554.21.537-.21-.095-2.34-.127-.42.032-.66.515-.79.383-.1.696-.29.696-.41s.27-.25.61-.27c1.02-.08 3.4-1.24 3.28-1.59-.06-.19-.45-.36-.87-.38-.88-.05-1.41-.73-1.16-1.51.1-.31.02-.66-.17-.77-.19-.12-.34.06-.34.4s-.22.91-.49 1.27c-.76 1.01-.64-.14.16-1.45.92-1.5.84-1.95-.37-2.2-1.63-.33-1.72-.26-.74.58.9.77.9.81.35 1.66-.32.48-.8.87-1.06.87-.27 0-.49.13-.49.3s-.3.37-.68.47c-.37.1-.65.3-.62.46.15.74-.5 2.44-.93 2.44-.26 0-.4.13-.3.29.1.16.59.22 1.1.14.85-.14.88-.1.34.33-.32.26-.58.66-.58.89 0 .52-1.59.17-2.36-.52-.29-.26-.78-.47-1.1-.47-.47 0-.5-.12-.19-.71.21-.39.67-.78 1.01-.87.35-.09.64-.31.64-.48 0-.17-.13-.24-.28-.14-.15.09-.45-.2-.66-.65-.2-.46-.5-.82-.67-.82-.5 0-2.04 1.35-1.95 1.72.04.19-.14.43-.39.52-.32.12-.4 0-.26-.37.12-.3.07-.54-.11-.54s-.32-.25-.32-.56c0-.51-.04-.51-.61 0-.33.3-.77.55-.96.55-.19 0-1.09.66-1.98 1.46-1.34 1.2-1.8 1.43-2.57 1.28-.74-.14-1.1.01-1.75.78l-.82.96.59-1.08c.32-.59 1.87-2.79 3.44-4.89C40.1 25.72 61.66 12.08 85.8 7.27c9.414-1.88 20.723-2.66 26.326-1.82 1.616.24 2.596.49 2.173.563-.43.07-.86.33-.96.6-.11.27-.64.47-1.29.47-1.22 0-1.84.52-.91.77.48.13.47.16-.1.19-.38.02-.86.21-1.08.43-.27.27-2.5.42-7.14.48-8.04.11-8.6.17-10.93 1.2-1 .44-2.59.89-3.54 1-.95.11-2 .35-2.34.53-.34.18-1.05.43-1.59.54-.73.16-.86.29-.52.5.25.16.58.22.73.13.14-.09.78-.02 1.43.16.7.19 1.24.2 1.35.02.1-.17 0-.31-.23-.31-.26 0-.3-.11-.11-.3.57-.55 2.64-.52 3.44.04.72.5.73.56.15.85-.62.32-2.92.87-5.16 1.23-.91.15-1.27.39-1.41.96-.18.72-.36.77-2.61.77-2.6 0-5.66.705-5.48 1.264.15.46 1.83.63 2.33.24 1.35-1.07 4.75-1.29 4.36-.27-.2.52.74 1 1.04.52.1-.18.48-.32.84-.32.37 0 .65-.23.65-.54 0-.35.18-.47.52-.33.29.11.75.21 1.02.21.43 0 .43.067-.02.51-.81.81-.34 1.37 1.02 1.21.83-.09 1.13-.02.97.24s.25.378 1.3.378 1.58.16 1.72.5c.1.28.4.5.65.5.41 0 .6.41.38.82-.05.088.21.37.57.63.56.41.6.6.26 1.34-.22.47-.76.95-1.21 1.06l-.82.21.72.72c.4.396 1.05.75 1.45.784.39.03 1.19.3 1.75.59.81.42 1.01.71.92 1.38-.06.46-.33.98-.59 1.14-.36.23-.38.31-.05.31.24 0 .34.16.23.34-.11.18.03.33.31.33.29 0 .52.22.52.5s-.2.5-.46.5c-.69 0-3.53 1.32-3.53 1.65 0 .16-.33.22-.75.15-.41-.08-.56-.06-.33.05.31.14.32.36.06.86-.2.37-.45.58-.55.48-.11-.1-.36.04-.57.33-.21.28-.65.55-.98.6-.7.1-1.21.81-.99 1.38.14.35-.55.68-1.72.83-.18.02-.54.22-.79.43s-.67.38-.91.38c-.51.01-3.12 2.43-3.12 2.9 0 .17-.32.21-.71.09-.45-.15-.63-.1-.48.12.18.28-2.43.97-3.12.82-2.88-.61-4.04-.65-6.91-.26-1.18.16-1.9.11-2.22-.15-.37-.31-.75-.28-1.67.1-.66.27-1.2.64-1.2.8 0 .16-.47.31-1.04.33-.57.02-2.05.56-3.3 1.21-2.67 1.4-3.16 1.47-2.83.43.14-.42.27-1.23.32-1.81.09-1.36 1.21-2.8 4.27-5.54 2.87-2.57 6.91-4.67 6.91-3.6 0 .16.38.22.84.13.78-.15.8-.2.25-.62-.57-.44-.56-.49.07-.98.36-.29 1.07-.47 1.57-.4.67.09.97-.04 1.11-.49.11-.37 1.34-1.15 3-1.93 3.22-1.5 4.51-2.59 4.25-3.6-.15-.54.1-.83 1.18-1.37.74-.38 1.47-.67 1.61-.64.14.03.52-.06.83-.2.37-.16 1 .01 1.78.49.98.6 1.27.66 1.49.3.61-.99-2.03-1.67-7.59-1.94-.99-.05-.95-.75.11-2.01.64-.77.73-1.02.35-1.02-.28 0-.6.15-.72.35-.14.23-.51.16-1.07-.21-.75-.49-1.13-.52-3.07-.17-1.22.21-2.66.68-3.19 1.04-.54.35-1.25.64-1.58.65-.33 0-.51.15-.4.33.34.55 1.5.37 2.6-.41 1.13-.81 5.01-1.28 5.61-.68.6.61-1.3 2.85-3.25 3.84-1 .51-1.91 1.14-2.02 1.41s-.4.48-.65.48-.47.18-.47.41c-.01.45-2.67 1.91-3.48 1.91-.28 0-.92.48-1.42 1.06-2.12 2.47-2.32 2.6-3.78 2.54l-1.4-.05 1.05-.93c.58-.52 1.05-1.02 1.05-1.12 0-.35-1.44.59-2.48 1.62-.58.57-1.62 1.21-2.3 1.42-.87.26-1.15.27-.9.02.62-.62.39-1.02-.25-.44-1.02.92-1.14.62-.33-.82.42-.76 1.39-1.89 2.16-2.516.76-.626 1.54-1.58 1.73-2.12.2-.565.71-1.12 1.21-1.31 1.12-.425 1.16-.42 1.16.18 0 .696.99 1.03 1.36.454.21-.33.29-.34.3-.043 0 .23.17.42.37.42.21 0 .29-.3.19-.69-.13-.5.02-.76.56-.97.4-.15.93-.52 1.18-.81.25-.29.8-.54 1.23-.54.44 0 .79-.136.79-.3 0-.17-.51-.17-1.25-.005-.68.16-1.87.2-2.63.09-1.2-.16-1.61-.04-2.94.88-.85.58-1.65.96-1.77.836-.13-.12.04-.42.37-.66.41-.3.48-.52.23-.67-.597-.37.65-1.55 1.383-1.32.9.286 1.38-.13.81-.7-.267-.265-.62-.48-.796-.48-.18 0-.503-.225-.73-.5-.52-.63-2.24-.635-3.33-.01-.46.26-1.343.71-1.97.99-.63.286-1.77 1.08-2.54 1.77-.78.68-2.04 1.74-2.8 2.36s-1.56 1.47-1.75 1.89-.81.96-1.38 1.19c-.56.23-1.48.82-2.03 1.308-.56.49-1.45 1.11-1.97 1.38-.77.39-.85.54-.42.7.3.12.55.07.55-.11 0-.17.15-.32.35-.32s.9-.37 1.58-.83c.68-.46 1.28-.68 1.34-.5.3.89 3.53-.16 4.8-1.57.32-.35.92-.61 1.33-.58.41.04 1.05-.09 1.41-.29.78-.42 2.88-1.2 3.26-1.2.14 0 .03.35-.25.776-.28.42-.43.85-.33.95.09.093-.36.64-1 1.21-.65.562-1.18 1.18-1.18 1.37 0 .18-.56.57-1.25.86-1.32.55-2.75 1.72-2.75 2.25 0 .173.66.24 1.57.14 1.34-.157 1.48-.12.99.25-.58.42-3.22 2.79-5.58 5.02-.66.61-1.39 1.72-1.64 2.45-.24.73-.55 1.26-.68 1.18-.14-.086-.43.28-.65.812-.59 1.43-2.49 3.07-2.99 2.572-.3-.29-.35-.26-.19.16.15.39-.07.64-.81.89-.56.19-1.02.59-1.02.87 0 .29-.18.51-.4.51-.29 0-.3.1-.02.38.47.47.17 1.23-.86 2.19-.45.41-.7.75-.55.75s-.15.37-.64.83c-.99.893-1.51 1.05-1.41.4zm-3.638-14.06c.16-.668.125-.887-.098-.668-.18.182-.44.782-.566 1.33-.16.668-.122.888.098.668.183-.183.44-.78.566-1.33zm-.888-.687c.044-.49-.066-.764-.26-.647-.387.242-.45 1.5-.07 1.5.144-.004.293-.385.33-.853zm3.57-3.14c.71-.78.128-.91-.64-.144-.59.58-.655.8-.243.8.16 0 .56-.3.89-.67zm2-2.998c.262-.422-.177-.422-.832 0-.432.276-.422.325.063.33.31.002.655-.145.77-.33zm3.24-2.068c.575-.535.875-1.072.73-1.3-.16-.26-.1-.306.184-.13.286.173.376.11.273-.2-.19-.59-.67-.498-1.1.217-.18.31-.74.984-1.24 1.497-.5.52-.91 1.12-.91 1.34 0 .43.33.21 2.08-1.42zm29.39-7.248c-.115-.19-.356-.34-.542-.34-.18 0-.24.15-.127.33s.356.33.54.33.242-.15.13-.34zm13.762-3.99c.48 0 .486.05.054.33-.435.28-.43.32.046.32.293 0 .715-.21.933-.47.31-.38.26-.51-.25-.68-.88-.28-1.74.1-1.7.76.01.34.08.39.19.13.09-.23.42-.42.72-.41zm-9.848-3c.28 0 .596-.23.7-.5.26-.67-.07-.63-1.386.17-.65.39-1 .82-.864 1.05.164.26.36.21.635-.17.224-.31.634-.55.915-.55zm3.742-3c.115-.19.06-.34-.127-.34-.183 0-.425.15-.54.33-.115.18-.054.33.13.33s.425-.15.537-.33zm2.832-2.67c0-.19-.225-.34-.498-.34s-.498.15-.498.33c0 .18.225.33.498.33s.498-.15.498-.34zm-7.988 39.09c0-.28-.227-.6-.5-.7-.647-.25-.647-.79 0-.79.273 0 .5-.23.5-.5 0-.28-.16-.5-.356-.5-.193 0-.26-.15-.154-.32s.442-.23.742-.11c.427.16.493.07.313-.41-.26-.68.24-1.15 1.24-1.16.46-.01.57.16.44.66-.14.51-.01.67.54.67.39 0 1.29.15 1.98.35 1.16.33 1.26.44 1.16 1.41-.14 1.38-1.17 1.89-3.85 1.89-1.65 0-2.08-.11-2.08-.51zm45.835-2.71c-.46-.46-.2-1.11.44-1.11.44 0 .66.22.66.66 0 .64-.65.9-1.11.44zm-18.16-9.34c-.21-.4-.38-.95-.38-1.23 0-.29-.15-.52-.34-.52-.39 0-.44-1.32-.06-1.91.15-.24.7-.35 1.32-.28.58.08 1.06 0 1.06-.16 0-.31 2.24-.2 2.56.13.32.32-.65 1.24-1.12 1.06-.62-.23-.57.46.08 1.18.62.68.38 1.27-.49 1.2-.42-.03-.57-.24-.46-.65.27-1.02-.38-.65-1.12.63-.68 1.18-.72 1.2-1.09.52zm-44.75-4.46c.22-.23.49-.33.59-.23s-.08.29-.41.41c-.47.18-.51.14-.19-.19zm69-.47c-.62-.74-.27-.82.42-.1.32.33.45.61.29.61-.17 0-.49-.23-.72-.51zm-14.88-.04c-.28-.12-.23-.34.16-.74.39-.4.67-.47.94-.23.21.19.3.47.2.63-.1.16.03.22.28.13.29-.1.42-.54.36-1.21-.11-1.02-.08-1.04.8-.71.66.25.98.24 1.15-.04.17-.28.3-.28.46-.01.12.2.06.37-.15.37s-.28.15-.17.33c.12.18.01.33-.23.34-.32 0-.3.09.06.32.4.26.36.32-.23.33-.4 0-.8-.19-.89-.42-.11-.26-.18-.21-.2.13-.04.8-1.44 1.2-2.58.74zm-60.89-3.4c.1-.16.52-.38.93-.49.73-.18.73-.17.11.29-.72.53-1.33.64-1.05.19zm8.51-3.37c.65-.42 1.1-.42.83 0-.12.18-.46.33-.77.33-.49-.01-.5-.05-.07-.33zm1.66-1.67c0-.18.23-.34.5-.34s.5.15.5.33-.23.33-.5.33-.5-.15-.5-.33zm29.72-5.86c.11-.11.4-.12.64-.03.26.1.18.18-.21.2-.35.01-.55-.07-.44-.18zm-2.23-.45c-.35-.13-.5-.31-.33-.4.44-.25 3.32-.36 3.09-.12-.41.4-2.15.73-2.76.51zm2.22-1.56c-.71-.29-.46-.83.33-.72.41.06.71.26.66.44-.1.4-.44.5-1 .28zm-4.75-.23c0-.11.34-.56.76-1.01.54-.59 1.23-.87 2.46-1 .94-.1 2.09-.28 2.57-.4.65-.17.87-.09.87.27 0 .66-.88 1.36-1.34 1.07-.21-.13-1.07-.13-1.93.01-1.24.19-1.42.29-.89.51.6.24.59.27-.17.29-.46.01-1.17.11-1.59.22-.42.11-.75.11-.75.01zm31.87-6.1c.22-.09.67-.1 1-.02.32.08.14.16-.41.16-.55.01-.82-.06-.59-.15z"/></svg>