<?xml version="1.0" encoding="utf-8"?>
<!-- Generator: Adobe Illustrator 19.1.0, SVG Export Plug-In . SVG Version: 6.00 Build 0)  -->
<svg version="1.1" id="lightBulbContainer" xmlns="http://www.w3.org/2000/svg" xmlns:xlink="http://www.w3.org/1999/xlink" x="0px"
	 y="0px" viewBox="0 0 555.1 555.1" style="enable-background:new 0 0 555.1 555.1;" xml:space="preserve">
<style type="text/css">
	.st0{fill:#E68A3A;}
	.st1{fill:#FFF3AA;}
	.st2{fill:none;stroke:#BFBFBF;stroke-width:5;stroke-miterlimit:10;}
	.st3{fill:#8D8F92;}
	.st4{fill:#231F20;}
	.st5{fill:#DEA343;}
	.st6{fill:none;stroke:#3C2011;stroke-width:2;stroke-linecap:round;stroke-linejoin:round;stroke-miterlimit:10;}
</style>
<g id="lightbulb">
	<path id="bulbInnerCharging_1_" class="st0" d="M382,276.9c0-57.9-46.9-104.8-104.8-104.8S172.3,219,172.3,276.9
		c0,22.1,6.8,42.6,18.5,59.5h0l86.3,146.1l86.3-146.1h0C375.1,319.5,382,299,382,276.9z"/>
	<path id="bulbInnerLit" class="st1" d="M382,276.9c0-57.9-46.9-104.8-104.8-104.8S172.3,219,172.3,276.9c0,22.1,6.8,42.6,18.5,59.5
		h0l86.3,146.1l86.3-146.1h0C375.1,319.5,382,299,382,276.9z"/>
	<path id="bulbGlass_1_" class="st2" d="M382,276.9c0-57.9-46.9-104.8-104.8-104.8S172.3,219,172.3,276.9c0,22.1,6.8,42.6,18.5,59.5
		h0l86.3,146.1l86.3-146.1h0C375.1,319.5,382,299,382,276.9z"/>
	<polygon id="lightBase" class="st3" points="227,398.1 226.1,481.3 277.1,558.5 328.1,478.3 328.1,398.1 	"/>
	<g id="lightBaseGrooves">
		<g>
			<g>
				<polygon class="st4" points="229.6,415.2 229.6,423.8 324.7,419.5 				"/>
			</g>
		</g>
		<g>
			<g>
				<polygon class="st4" points="229.6,422.2 229.6,430.8 324.7,426.5 				"/>
			</g>
		</g>
		<g>
			<g>
				<polygon class="st4" points="229.6,429.2 229.6,437.8 324.7,433.5 				"/>
			</g>
		</g>
		<g>
			<g>
				<polygon class="st4" points="229.6,436.2 229.6,444.8 324.7,440.5 				"/>
			</g>
		</g>
		<g>
			<g>
				<polygon class="st4" points="229.6,443.2 229.6,451.8 324.7,447.5 				"/>
			</g>
		</g>
		<g>
			<g>
				<polygon class="st4" points="229.6,450.2 229.6,458.8 324.7,454.5 				"/>
			</g>
		</g>
		<g>
			<g>
				<polygon class="st4" points="229.6,457.2 229.6,465.8 324.7,461.5 				"/>
			</g>
		</g>
		<g>
			<g>
				<polygon class="st4" points="229.6,408.2 229.6,416.8 324.7,412.5 				"/>
			</g>
		</g>
	</g>
	<polygon id="lightBaseBottomTexture" class="st4" points="309.9,497.8 277.1,550.7 243.1,497.8 	"/>
	<polygon id="wireSupportLeft" class="st5" points="237.9,398.1 226.6,398.1 222.1,324 201.8,252.3 230.1,324.1 236.3,346 	"/>
	<polygon id="wireSupportRight" class="st5" points="317.3,398.1 328.5,398.1 333.1,324 353.4,252.3 325,324.1 318.9,346 	"/>
	<polyline id="energyWireUnlit_2_" class="st6" points="202.9,253.7 222.1,302 235.6,253.5 251.1,300.2 266.6,253.7 279.9,299.5 
		292.6,255 305.1,301.5 322.1,255.2 333.9,300.7 351.4,254.2 	"/>
	<polyline id="energyWireLit" class="st6" points="202.9,253.2 222.1,301.5 235.6,253 251.1,299.7 266.6,253.2 279.9,299 
		292.6,254.5 305.1,301 322.1,254.7 333.9,300.2 351.4,253.7 	"/>
</g>
</svg>
