<svg xmlns="http://www.w3.org/2000/svg" xmlns:xlink="http://www.w3.org/1999/xlink" viewBox="0 0 100 136">
  <defs>
    <path id="a" d="M49.2 0h-.1-.2C33.1 0 20.4 52.3 20.4 116.5v.5h57.3v-.3C77.6 52.4 65 0 49.2 0z"/>
    <path id="b" d="M71.3 129.5l2.6.4-3.8-2.6-1.1-2 2.6.4-3.8-2.3-4.2-7.4H34.5l-4.2 7.4-3.7 2.4 2.6-.4-2 3.4-3 2.1 2.1-.4-3 5.5h51.5z"/>
    <g id="c">
      <path class="wing left" d="M100 117H75.6V98.6c13 0 24.2 8.4 24.4 18.4z"/>
      <path class="wing right" d="M0 117h24.6V98.6C10.6 98.6.2 107 0 117z"/>
    </g>
  </defs>
  <g class="rocket">
    <use class="fuselage" xlink:href="#a"/>
    <use class="thrusters" xlink:href="#b"/>
    <use class="wings" xlink:href="#c"/>
  </g>
</svg>
