<?xml version="1.0" encoding="utf-8"?>
<!-- Generator: Adobe Illustrator 19.0.0, SVG Export Plug-In . SVG Version: 6.00 Build 0)  -->
<svg version="1.1" xmlns="http://www.w3.org/2000/svg" xmlns:xlink="http://www.w3.org/1999/xlink" x="0px" y="0px"
	 viewBox="0 0 250 292.6" enable-background="new 0 0 250 292.6" xml:space="preserve">
<g id="complete" opacity="0">

		<polyline id="checkPath" fill="none" stroke="#333333" stroke-width="6" stroke-linecap="round" stroke-linejoin="round" stroke-miterlimit="10" points="
		162.8,112.8 116.1,179.5 115.9,179.3 87.1,152.4 	"/>
</g>
<g id="start">
	<rect id="svg-container" fill="#FF0000" width="250" height="292.6"/>
	<g id="icon_x5F_download">
		<path id="icon_x5F_download_x5F_base" fill="#333333" d="M110.9,166h28.2c1.1,0,2-0.9,2-2v-62c0-1.1-0.9-2-2-2h-28.2
			c-1.1,0-2,0.9-2,2v62C108.9,165.1,109.8,166,110.9,166z"/>
		<g id="icon_x5F_download_x5F_arrow">
			<path id="XMLID_179_" fill="#333333" d="M155,162.3c1.1,0,1.3,0.6,0.5,1.4l-29.3,27c-0.8,0.7-2.1,0.7-2.9,0l-29.3-27
				c-0.8-0.7-0.6-1.4,0.5-1.4H155z"/>
		</g>
	</g>
	<circle id="rim" fill="none" stroke="#333333" stroke-width="11" stroke-miterlimit="10" cx="125" cy="146.3" r="75"/>
	<circle id="rimGlowLayer" fill="none" stroke="#333333" stroke-width="11" stroke-miterlimit="10" cx="124" cy="146.3" r="75"/>
</g>
<g id="watchPieces" opacity="0">
	<path id="watchThumbTopHead" fill="#333333" d="M134.4,51.2h-19c-1.7,0-3-1.3-3-3v-11c0-1.7,1.3-3,3-3h19c1.7,0,3,1.3,3,3v11
		C137.4,49.9,136.1,51.2,134.4,51.2z"/>
	<path id="watchThumbSideHead" fill="#333333" d="M63.3,72.9L49.9,86.3c-1.2,1.2-3.1,1.2-4.2,0l-7.8-7.8c-1.2-1.2-1.2-3.1,0-4.2
		l13.4-13.4c1.2-1.2,3.1-1.2,4.2,0l7.8,7.8C64.5,69.8,64.5,71.7,63.3,72.9z"/>
	<rect id="watchThumbTopBase" x="117.9" y="51.2" fill="#333333" width="14" height="15"/>

		<rect id="watchThumbSideBase" x="54.9" y="77.4" transform="matrix(0.7071 -0.7071 0.7071 0.7071 -41.9085 68.6215)" fill="#333333" width="14" height="15"/>
</g>
</svg>
