<?xml version="1.0" encoding="utf-8"?>
<!-- Generator: Adobe Illustrator 19.0.0, SVG Export Plug-In . SVG Version: 6.00 Build 0)  -->
<svg version="1.1" id="cauldron" xmlns="http://www.w3.org/2000/svg" xmlns:xlink="http://www.w3.org/1999/xlink" x="0px" y="0px"
	 viewBox="0 0 612 792" style="enable-background:new 0 0 612 792;" xml:space="preserve">
<style type="text/css">
	.st0{fill:#010101;}
	.st1{fill:#303030;}
	.st2{fill:none;stroke:#303030;stroke-width:14;stroke-miterlimit:10;}
	.st3{fill:#93C841;}
	.st4{fill:none;}
	.st5{fill:#80171A;}
	.st6{fill:#80171A;stroke:#C18E7F;stroke-linejoin:bevel;stroke-miterlimit:10;}
	.st7{fill:#441715;}
	.st8{fill:#A8D166;}
</style>
<g id="cauldron-body">
	<path id="leg-left" class="st0" d="M255.2,491.6c-4.7,12.3-11.4,32.8-7.5,34.8l0,0c5.1,2.7,22.6-20.2,25.4-25.3"/>
	<path id="leg-right" class="st0" d="M364.7,491.6c4.7,12.3,11.4,32.8,7.5,34.8l0,0c-5.1,2.7-22.6-20.2-25.4-25.3"/>
	<path id="XMLID_7_" class="st1" d="M251.8,392.8c-38.7,46.7-40.8,84.8,0,111.6c57,25.3,114,0,114,0c40.8-26.8,44.7-66.9,0-111.6
		C316.5,414.3,251.8,392.8,251.8,392.8"/>
	<path id="XMLID_2_" class="st2" d="M304.7,398.8c-42.9,0-127.5-27.3,2-27.3S369.6,398.8,304.7,398.8z"/>
</g>
<g id="cauldron-top-shadow">
	<path id="XMLID_3_" class="st0" d="M369.9,382.8c-1.1-15.5-36.3-10-78.8-4.3l41.9,0.3C345.8,379,369.9,382.8,369.9,382.8z"/>
	<path id="XMLID_8_" class="st0" d="M371.1,398.3c-0.5,0.4-7.1,3.8-66.7,3.8c-63,0-66.6-12.8-66.6-12.8c-0.8,0.4,2.8,4.5,9.6,9.5
		l0,0l-15.8,23.7c5.2,6,27.3,7.2,89.3-6.7l0,0C351.7,409.5,362.2,405.2,371.1,398.3z"/>
	<path id="XMLID_10_" class="st0" d="M371.1,398.3L371.1,398.3L371.1,398.3z"/>
</g>
<path id="cauldron-bottom-shadow" class="st0" d="M228.6,481.3c-2.5-5.7,11.6-7.6,19.7-5.2c5,1.4,17.4,7.8,20,9.8
	c7.3,5.6,31.2,14.3,40.1,16.6c34.1,8.5,59.9-7.4,75.1-13c0,0-6.5,7.8-16.3,14.3c-4,2.6-9.4,3.9-14.1,5c-12.6,3-29.4,7.7-51.2,6.8
	c-21.4-0.9-36.1-4.5-49.4-10.9C238,497.7,231.1,487,228.6,481.3z"/>
<g id="cauldron_x5F__x5F_liquid-container_1_">
	<path id="cauldron-liquid_x5F__x5F_base_1_" class="st3" d="M369.9,383.3c2.8-2.1-27.6-6.7-61.7-6.7s-61.7,3-61.7,6.7
		C271.1,396.5,356.6,393.5,369.9,383.3z"/>
	<circle id="cauldron_x5F__x5F_liquid-control-point-4" class="st4" cx="370" cy="383" r="0.5"/>
	<circle id="cauldron_x5F__x5F_liquid-control-point-1" class="st4" cx="308.2" cy="376.2" r="0.5"/>
	<circle id="cauldron_x5F__x5F_liquid-control-point-3" class="st4" cx="308.2" cy="392.1" r="0.5"/>
	<circle id="cauldron_x5F__x5F_liquid-control-point-2" class="st4" cx="246.5" cy="383.1" r="0.5"/>
	<g id="cauldron-stick">
		<path id="XMLID_15_" class="st5" d="M376.4,308.9c-3.8,2.3-11.7,7-12.1,7.4l-35.6,68.9h9.4c11.2-23.8,28.1-46.4,39.8-59.2
			c4.8-5.2,8.7-8.8,11.1-10.1c8.1-4.7,0,0,0,0s0,0,3.8,6.6l0,0c0,0,0,0,4.4-3.3c-6.7-15.5,11.4-39.5,20.8-48.4c0,0-6.4-0.5-18.4-7.4
			c0,0-21.9,28.1-23.3,45.1C376.4,308.5,376.4,308.7,376.4,308.9"/>
		<path id="XMLID_13_" class="st6" d="M376.4,308.4h0.3c1.4,0.1,7.9-2.9,9.3-3.5"/>
		<path id="stick-shadow" class="st7" d="M418.1,270.7c0,0,0,0-0.3,0c-7.5-0.2-47.6,59.9-47.6,59.9s-13.3,18.3-8.4,15.3l27.2-30
			l3.8,6.6l4.4-3.3c-5.6-12.9,6.7-30.9,6.7-30.9l-0.1,0.1C408.7,281.7,414.3,274.5,418.1,270.7z M392.6,304.9L392.6,304.9
			L392.6,304.9L392.6,304.9z"/>
	</g>
	<circle id="cauldron_x5F__x5F_stick-measure-point-right" class="st4" cx="338.1" cy="385.1" r="0.5"/>
	<circle id="cauldron_x5F__x5F_stick-measure-point-left" class="st4" cx="328.7" cy="385.2" r="0.5"/>
	<path id="bubble--partial_1_" class="st8" d="M270,385.2c0-5.7,4.6-10.3,10.3-10.3c5.7,0,10.3,4.6,10.3,10.3"/>
	<path id="bubble--partial_25_" class="st8" d="M341.9,382.4c0-5.7,4.6-10.3,10.3-10.3s10.3,4.6,10.3,10.3"/>
	<path id="bubble--partial_28_" class="st8" d="M341.9,384.5c0-6.9,5.6-12.5,12.5-12.5c6.9,0,12.5,5.6,12.5,12.5"/>
	<path id="bubble--partial_3_" class="st8" d="M325.5,388.8c0-5.4,4.5-9.8,10-9.8c5.5,0,10,4.4,10,9.8"/>
	<path id="bubble--partial_23_" class="st8" d="M314.7,382.1c0-4.9,4-8.8,8.9-8.8c4.9,0,8.9,3.9,8.9,8.8"/>
	<path id="bubble--partial_24_" class="st8" d="M294,380.2c0-7.2,5.9-13,13.2-13c7.3,0,13.2,5.8,13.2,13"/>
	<path id="bubble--partial_4_" class="st8" d="M311.4,390.8c0-4.6,3.8-8.3,8.4-8.3s8.4,3.7,8.4,8.3"/>
	<path id="bubble--partial_32_" class="st8" d="M312.5,384.1c0.3-5.7,5.1-10,10.9-9.7s10.2,5.1,9.9,10.7"/>
	<path id="bubble--partial_8_" class="st8" d="M319.2,379.7c0-2.2,1.8-3.9,4-3.9c2.2,0,4,1.8,4,3.9"/>
	<path id="bubble--partial_9_" class="st8" d="M291.1,378.7c0-1.6,1.3-2.9,2.9-2.9s2.9,1.3,2.9,2.9"/>
	<path id="bubble--partial_10_" class="st8" d="M295.4,380.1c0-1.6,1.3-2.9,2.9-2.9s2.9,1.3,2.9,2.9"/>
	<path id="bubble--partial_11_" class="st8" d="M288.9,380.8c0-2.6,2.1-4.7,4.7-4.7s4.7,2.1,4.7,4.7"/>
	<path id="bubble--partial_7_" class="st8" d="M294.2,388.5c0-5,4.1-9.1,9.2-9.1s9.2,4.1,9.2,9.1"/>
	<path id="bubble--partial_5_" class="st8" d="M253.2,383.1c0-4.6,3.8-8.3,8.4-8.3s8.4,3.7,8.4,8.3"/>
	<path id="bubble--partial_31_" class="st8" d="M251.3,384.6c0-5.9,4.9-10.7,10.8-10.7s10.8,4.8,10.8,10.7"/>
	<path id="bubble--partial_6_" class="st8" d="M282.8,390.2c0-5.5,5.4-10,12.1-10c6.7,0,12.1,4.5,12.1,10"/>
	<path id="bubble--partial_16_" class="st8" d="M266.3,386.6c0-4.2,4.1-7.6,9.2-7.6c5.1,0,9.2,3.4,9.2,7.6"/>
	<path id="bubble--partial_17_" class="st8" d="M272.9,389.5c0-2.1,2.1-3.8,4.6-3.8c2.5,0,4.6,1.7,4.6,3.8"/>
	<path id="bubble--partial_18_" class="st8" d="M293.4,389c0-1.6,1.6-2.9,3.5-2.9c1.9,0,3.5,1.3,3.5,2.9"/>
	<path id="bubble--partial_19_" class="st8" d="M297.5,390.9c0-1.4,1.3-2.5,3-2.5s3,1.1,3,2.5"/>
	<path id="bubble--partial_20_" class="st8" d="M309.9,389.7c0-1.4,1.3-2.5,3-2.5s3,1.1,3,2.5"/>
	<path id="bubble--partial_22_" class="st8" d="M330.5,390.1c0-1.7,1.6-3,3.6-3s3.6,1.3,3.6,3"/>
	<path id="bubble--partial_21_" class="st8" d="M319.2,391.4c0-2,1.6-3.7,3.5-3.7s3.5,1.6,3.5,3.7"/>
	<path id="bubble--partial_12_" class="st8" d="M338.8,385.1c0-2.6,2.1-4.7,4.7-4.7s4.7,2.1,4.7,4.7"/>
	<path id="bubble--partial_13_" class="st8" d="M353.1,384c0-1.7,1.4-3,3-3s3,1.3,3,3"/>
	<path id="bubble--partial_27_" class="st8" d="M356.5,386.2c0-1.7,1.4-3,3-3c1.7,0,3,1.3,3,3"/>
	<path id="bubble--partial_14_" class="st8" d="M353.6,386.7c0-1.1,0.9-2,2-2s2,0.9,2,2"/>
	<path id="bubble--partial_15_" class="st8" d="M345.5,387.7c0-1.8,1.5-3.3,3.3-3.3c1.8,0,3.3,1.5,3.3,3.3"/>
	<path id="bubble--partial_29_" class="st8" d="M256.3,384.9c0-1.8,1.5-3.3,3.3-3.3c1.8,0,3.3,1.5,3.3,3.3"/>
	<path id="bubble--partial_30_" class="st8" d="M261.6,387.7c0-2,1.7-3.7,3.7-3.7c2.1,0,3.7,1.7,3.7,3.7"/>
	<path id="bubble--partial_26_" class="st8" d="M334.1,381c0-1.8,1.5-3.3,3.3-3.3c1.8,0,3.3,1.5,3.3,3.3"/>
	<path id="bubble--partial_2_" class="st8" d="M303.6,382.7c0-2.2,2.5-4,5.6-4c3.1,0,5.6,1.8,5.6,4"/>
</g>
</svg>
