<?xml version="1.0" encoding="utf-8"?>
<!-- Generator: Adobe Illustrator 19.0.0, SVG Export Plug-In . SVG Version: 6.00 Build 0)  -->
<svg version="1.1" id="cauldron" xmlns="http://www.w3.org/2000/svg" xmlns:xlink="http://www.w3.org/1999/xlink" x="0px" y="0px"
	 viewBox="0 0 266.7 314.3" style="enable-background:new 0 0 266.7 314.3;" xml:space="preserve">
<style type="text/css">
	.st0{fill:#403231;}
	.st1{fill:#211616;}
	.st2{fill:none;stroke:#211616;stroke-miterlimit:10;}
	.st3{fill:#010101;}
	.st4{fill:#303030;}
	.st5{fill:none;stroke:#303030;stroke-width:14;stroke-miterlimit:10;}
	.st6{fill:#93C841;}
	.st7{fill:none;}
	.st8{fill:#80171A;}
	.st9{fill:#80171A;stroke:#C18E7F;stroke-linejoin:bevel;stroke-miterlimit:10;}
	.st10{fill:#441715;}
	.st11{fill:#A8D166;}
	.st12{fill:url(#flame_js-sine-wave-start-flame_3_);}
	.st13{fill:url(#flame_js-sine-wave-end-flame_3_);}
	.st14{fill:url(#flame_js-sine-wave-start-flame_7_);}
	.st15{fill:url(#flame_js-sine-wave-end-flame_7_);}
	.st16{fill:url(#flame_js-sine-wave-start-flame_8_);}
	.st17{fill:url(#flame_js-sine-wave-end-flame_8_);}
	.st18{fill:url(#flame-base_3_);}
	.st19{fill:url(#flame-base_6_);}
	.st20{fill:url(#flame_js-sine-wave-start-flame_9_);}
	.st21{fill:url(#flame_js-sine-wave-end-flame_9_);}
	.st22{fill:url(#flame-base_7_);}
	.st23{fill:url(#flame_js-sine-wave-start-flame_10_);}
	.st24{fill:url(#flame_js-sine-wave-end-flame_10_);}
</style>
<g id="cauldron_x5F__x5F_firewood-logs">
	<g id="log--right">
		<path id="XMLID_22_" class="st0" d="M160.8,222.9L160.8,222.9c0-6.4,6.2-11.6,13.9-11.6l91.3-0.1c0.4,0,0.7,0.3,0.7,0.6l-6.4,22.9
			l-85.3,0.1C167.1,234.7,160.8,229.4,160.8,222.9z"/>
	</g>
	<g id="log--left">
		<path id="XMLID_21_" class="st0" d="M103.6,222.9L103.6,222.9c0-6.4-6.1-11.6-13.6-11.6l-89.4-0.1c-0.4,0-0.7,0.3-0.7,0.6
			l6.3,22.9l83.5,0.1C97.4,234.7,103.6,229.4,103.6,222.9z"/>
	</g>
	<g id="log--left-diagonal">
		<g id="log_x5F__x5F_side">
			<g id="firewood-log-2">
				<path id="XMLID_30_" class="st1" d="M90.7,226.5L90.7,226.5c-4.5-4.5-11.9-4.5-16.4,0l-45.8,45.9c-0.2,0.2-0.2,0.6,0,0.8
					L44.3,289c0.2,0.2,0.6,0.2,0.8,0l45.7-45.8C95.3,238.6,95.3,231.1,90.7,226.5z"/>
				<path id="XMLID_23_" class="st1" d="M90.7,226.5L90.7,226.5c-4.5-4.5-11.9-4.5-16.4,0l-45.8,45.9c-0.2,0.2-0.2,0.6,0,0.8
					L44.3,289c0.2,0.2,0.6,0.2,0.8,0l45.7-45.8C95.3,238.6,95.3,231.1,90.7,226.5z"/>

					<ellipse id="XMLID_29_" transform="matrix(-0.7082 -0.7061 0.7061 -0.7082 -134.3577 504.956)" class="st0" cx="37.2" cy="280.2" rx="11.9" ry="16.4"/>
			</g>
			<path id="XMLID_25_" class="st0" d="M90.3,226.2L90.3,226.2c-4.3-4.3-11.3-4.3-15.6,0l-46.6,46.3c-0.4,0.6,9.1,9,9.1,9"/>
		</g>
		<path id="log_x5F__x5F_spiral_2_" class="st2" d="M37.3,278.3c-0.8-0.8-2.4-0.6-3.4,0.5c-1.3,1.4-1.5,3.3-0.5,4.3
			c1.3,1.3,3.7,0.9,5.4-0.8c2.1-2.1,2.4-5.1,0.8-6.7c-2.1-2-5.8-1.5-8.4,1.2c-3.2,3.3-3.8,8-1.2,10.5c3.2,3.1,9.1,2.3,13.1-1.8
			c5-5.2,5.3-11.6,0.7-14.8c-4.4-3.1-10.8-0.1-15.7,5.6c-2.7,3.1-3,9.9,0,12.9"/>
	</g>
	<g id="log--right-diagonal">
		<g id="log_x5F__x5F_side_1_">
			<g id="firewood-log-2_1_">
				<path id="XMLID_28_" class="st1" d="M178.3,222.6L178.3,222.6c-5.3,3.7-6.6,10.9-2.9,16.2l37.1,53.2c0.2,0.3,0.5,0.3,0.8,0.1
					l18.3-12.8c0.3-0.2,0.3-0.5,0.1-0.8l-37-53.1C191,220.2,183.7,218.9,178.3,222.6z"/>
				<path id="XMLID_27_" class="st1" d="M178.3,222.6L178.3,222.6c-5.3,3.7-6.6,10.9-2.9,16.2l37.1,53.2c0.2,0.3,0.5,0.3,0.8,0.1
					l18.3-12.8c0.3-0.2,0.3-0.5,0.1-0.8l-37-53.1C191,220.2,183.7,218.9,178.3,222.6z"/>

					<ellipse id="XMLID_26_" transform="matrix(-0.8201 0.5722 -0.5722 -0.8201 566.5204 391.4919)" class="st0" cx="221.7" cy="284.8" rx="11.9" ry="16.4"/>
			</g>
			<path id="XMLID_7_" class="st0" d="M178.7,222.5L178.7,222.5c5-3.5,12.2-2.4,15.7,2.6l37.8,53.7c0.3,0.6-10.5,7.3-10.5,7.3"/>
		</g>
		<path id="log_x5F__x5F_spiral_1_" class="st2" d="M219.8,284.3c-1,0.7-1,2.2-0.1,3.5c1.1,1.5,3,2.1,4.2,1.2
			c1.5-1.1,1.6-3.5,0.2-5.4c-1.7-2.4-4.6-3.3-6.5-1.9c-2.3,1.7-2.5,5.5-0.3,8.5c2.7,3.8,7.2,5.1,10.2,3c3.6-2.6,3.9-8.5,0.5-13.3
			c-4.2-5.9-10.5-7.2-14.5-3.3c-3.8,3.8-2,10.6,2.8,16.4c2.6,3.2,9.2,4.7,12.7,2.3"/>
	</g>
	<g id="log--front">
		<g id="firewood-log_1_">
			<path id="XMLID_20_" class="st1" d="M128.3,229L128.3,229c-6.4,0-11.6,5.2-11.6,11.7l0.2,55.7c0,0.3,0.3,0.6,0.6,0.6l22.3-0.1
				c0.3,0,0.6-0.3,0.6-0.6l-0.2-55.6C140.1,234.3,134.8,229,128.3,229z"/>

				<ellipse id="XMLID_19_" transform="matrix(-1 3.094836e-03 -3.094836e-03 -1 258.1478 591.4332)" class="st0" cx="128.6" cy="295.9" rx="11.7" ry="18.4"/>
		</g>
		<path id="log_x5F__x5F_spiral_3_" class="st2" d="M128.1,293.2c-1,0-1.9,1.3-2,2.9c-0.1,2.1,0.9,3.8,2.2,3.8c1.6,0.1,3-2,3.1-4.6
			c0.1-3.2-1.4-5.9-3.4-6c-2.5-0.1-4.7,3.1-4.9,7.1c-0.2,5.1,2.2,9.3,5.3,9.4c3.9,0.2,7.4-4.8,7.6-11.1c0.3-7.9-3.2-13.3-8.1-12.5
			c-4.7,0.7-8.1,7.8-7.2,16.1c0.7,6.7,3.6,11.3,7.7,11.3"/>
	</g>
</g>
<g id="cauldron-body_1_">
	<path id="leg-left_1_" class="st3" d="M84,235.4c-4.7,12.3-11.4,32.8-7.5,34.8l0,0c5.1,2.7,22.6-20.2,25.4-25.3"/>
	<path id="leg-right_1_" class="st3" d="M177.5,235.4c4.7,12.3,11.4,32.8,7.5,34.8l0,0c-5.1,2.7-22.6-20.2-25.4-25.3"/>
	<path id="XMLID_18_" class="st4" d="M72.6,129.4c-38.7,46.7-40.8,84.8,0,111.6c57,25.3,114,0,114,0c40.8-26.8,44.7-66.9,0-111.6
		C137.3,150.9,72.6,129.4,72.6,129.4"/>
	<path id="XMLID_17_" class="st5" d="M125.5,135.4c-42.9,0-127.5-27.3,2-27.3S190.4,135.4,125.5,135.4z"/>
</g>
<g id="cauldron-top-shadow_1_">
	<path id="XMLID_16_" class="st3" d="M190.7,119.4c-1.1-15.5-36.3-10-78.8-4.3l41.9,0.3C166.6,115.6,190.7,119.4,190.7,119.4z"/>
	<path id="XMLID_14_" class="st3" d="M191.9,134.9c-0.5,0.4-7.1,3.8-66.7,3.8c-63,0-66.6-12.8-66.6-12.8c-0.8,0.4,2.8,4.5,9.6,9.5
		l0,0l-15.8,23.7c5.2,6,27.3,7.2,89.3-6.7l0,0C172.5,146.1,183,141.8,191.9,134.9z"/>
	<path id="XMLID_12_" class="st3" d="M191.9,134.9L191.9,134.9L191.9,134.9z"/>
</g>
<path id="cauldron-bottom-shadow_1_" class="st3" d="M49.4,217.9c-2.5-5.7,11.6-7.6,19.7-5.2c5,1.4,17.4,7.8,20,9.8
	c7.3,5.6,31.2,14.3,40.1,16.6c34.1,8.5,59.9-7.4,75.1-13c0,0-6.5,7.8-16.3,14.3c-4,2.6-9.3,4-14,5.1c-2.1,0.8-4.6,1.2-7.1,1.8
	c-11.6,2.8-26.3,5.6-44.2,4.9c-21.4-0.9-36.1-4.5-49.4-10.9C58.8,234.3,51.9,223.6,49.4,217.9z"/>
<g id="cauldron_x5F__x5F_liquid-container_2_">
	<path id="cauldron-liquid_x5F__x5F_base_2_" class="st6" d="M190.7,119.9c2.8-2.1-27.6-6.7-61.7-6.7s-61.7,3-61.7,6.7
		C91.9,133.1,177.4,130.1,190.7,119.9z"/>
	<circle id="cauldron_x5F__x5F_liquid-control-point-4_1_" class="st7" cx="190.9" cy="119.6" r="0.5"/>
	<circle id="cauldron_x5F__x5F_liquid-control-point-1_1_" class="st7" cx="129.1" cy="112.8" r="0.5"/>
	<circle id="cauldron_x5F__x5F_liquid-control-point-3_1_" class="st7" cx="129.1" cy="128.7" r="0.5"/>
	<circle id="cauldron_x5F__x5F_liquid-control-point-2_1_" class="st7" cx="67.3" cy="119.7" r="0.5"/>
	<g id="cauldron-stick_1_">
		<path id="XMLID_11_" class="st8" d="M197.2,45.5c-3.8,2.3-11.7,7-12.1,7.4l-35.6,68.9h9.4C170.1,98,187,75.4,198.7,62.6
			c4.8-5.2,8.7-8.8,11.1-10.1c8.1-4.7,0,0,0,0s0,0,3.8,6.6l0,0c0,0,0,0,4.4-3.3c-6.7-15.5,11.4-39.5,20.8-48.4c0,0-6.4-0.5-18.4-7.4
			c0,0-21.9,28.1-23.3,45.1C197.2,45.1,197.2,45.3,197.2,45.5"/>
		<path id="XMLID_5_" class="st9" d="M197.2,45h0.3c1.4,0.1,7.9-2.9,9.3-3.5"/>
		<path id="stick-shadow_1_" class="st10" d="M238.9,7.3c0,0,0,0-0.3,0C231.1,7.1,191,67.2,191,67.2s-13.3,18.3-8.4,15.3l27.2-30
			l3.8,6.6l4.4-3.3c-5.6-12.9,6.7-30.9,6.7-30.9l-0.1,0.1C229.5,18.3,235.1,11.1,238.9,7.3z M213.4,41.5L213.4,41.5L213.4,41.5
			L213.4,41.5z"/>
	</g>
	<circle id="cauldron_x5F__x5F_stick-measure-point-right_1_" class="st7" cx="159" cy="121.7" r="0.5"/>
	<circle id="cauldron_x5F__x5F_stick-measure-point-left_1_" class="st7" cx="149.5" cy="121.8" r="0.5"/>
	<path id="bubble--partial_136_" class="st11" d="M90.8,121.8c0-5.7,4.6-10.3,10.3-10.3c5.7,0,10.3,4.6,10.3,10.3"/>
	<path id="bubble--partial_135_" class="st11" d="M162.8,119c0-5.7,4.6-10.3,10.3-10.3s10.3,4.6,10.3,10.3"/>
	<path id="bubble--partial_134_" class="st11" d="M162.8,121.1c0-6.9,5.6-12.5,12.5-12.5s12.5,5.6,12.5,12.5"/>
	<path id="bubble--partial_133_" class="st11" d="M171.2,121.1c0-4.6,3.7-8.2,8.2-8.2s8.2,3.7,8.2,8.2"/>
	<path id="bubble--partial_132_" class="st11" d="M163,122.9c0-4.6,3.7-8.2,8.2-8.2s8.2,3.7,8.2,8.2"/>
	<path id="bubble--partial_131_" class="st11" d="M175.7,120.5c0-3.1,2.9-5.6,6.5-5.6s6.5,2.5,6.5,5.6"/>
	<path id="bubble--partial_130_" class="st11" d="M146.4,125.5c0-5.4,4.5-9.8,10-9.8s10,4.4,10,9.8"/>
	<path id="bubble--partial_129_" class="st11" d="M103.6,119.1c0-3.9,3.9-7,8.7-7c4.8,0,8.7,3.2,8.7,7"/>
	<path id="bubble--partial_128_" class="st11" d="M135.6,118.8c0-4.9,4-8.8,8.9-8.8s8.9,3.9,8.9,8.8"/>
	<path id="bubble--partial_127_" class="st11" d="M114.9,116.8c0-7.2,5.9-13,13.2-13c7.3,0,13.2,5.8,13.2,13"/>
	<path id="bubble--partial_126_" class="st11" d="M114.9,116.8c0-3.6,5.9-6.5,13.2-6.5c7.3,0,13.2,2.9,13.2,6.5"/>
	<path id="bubble--partial_125_" class="st11" d="M83,123.7c0-3.6,5.9-6.5,13.2-6.5c7.3,0,13.2,2.9,13.2,6.5"/>
	<path id="bubble--partial_124_" class="st11" d="M83,123.7c0-3.6,5.9-6.5,13.2-6.5c7.3,0,13.2,2.9,13.2,6.5"/>
	<path id="bubble--partial_123_" class="st11" d="M116.9,125.3c0-7.2,5.9-13,13.2-13c7.3,0,13.2,5.8,13.2,13"/>
	<path id="bubble--partial_122_" class="st11" d="M116.9,125.3c0-7.2,5.9-13,13.2-13c7.3,0,13.2,5.8,13.2,13"/>
	<path id="bubble--partial_121_" class="st11" d="M76.7,123.1c0-7.2,5.9-13,13.2-13s13.2,5.8,13.2,13"/>
	<path id="bubble--partial_120_" class="st11" d="M76.7,123.1c0-7.2,5.9-13,13.2-13s13.2,5.8,13.2,13"/>
	<path id="bubble--partial_119_" class="st11" d="M80.6,118c0-7.2,5.9-13,13.2-13c7.3,0,13.2,5.8,13.2,13"/>
	<path id="bubble--partial_118_" class="st11" d="M86.4,117.4c0-2.9,5.9-5.2,13.2-5.2s13.2,2.3,13.2,5.2"/>
	<path id="bubble--partial_117_" class="st11" d="M97.7,114.7c0-3.6,4.8-6.6,10.8-6.6s10.8,2.9,10.8,6.6"/>
	<path id="bubble--partial_116_" class="st11" d="M132.3,127.4c0-4.6,3.8-8.3,8.4-8.3c4.6,0,8.4,3.7,8.4,8.3"/>
	<path id="bubble--partial_115_" class="st11" d="M142.6,127.3c0-3.7,3-6.6,6.7-6.6c3.7,0,6.7,3,6.7,6.6"/>
	<path id="bubble--partial_114_" class="st11" d="M153.9,117.2c0-2,3-3.6,6.7-3.6s6.7,1.6,6.7,3.6"/>
	<path id="bubble--partial_113_" class="st11" d="M153.9,117.2c0-2,3-3.6,6.7-3.6s6.7,1.6,6.7,3.6"/>
	<path id="bubble--partial_112_" class="st11" d="M149.6,115.6c0-3.1,3-5.7,6.7-5.7c3.7,0,6.7,2.5,6.7,5.7"/>
	<path id="bubble--partial_111_" class="st11" d="M70,120.4c0-4.8,4.8-8.7,10.6-8.7c5.9,0,10.6,3.9,10.6,8.7"/>
	<path id="bubble--partial_110_" class="st11" d="M133.3,120.7c0.3-5.7,5.1-10,10.9-9.7c5.7,0.3,10.2,5.1,9.9,10.7"/>
	<path id="bubble--partial_109_" class="st11" d="M112.3,121c0.2-3.9,5-6.9,10.7-6.6c5.7,0.3,10.2,3.7,10,7.6"/>
	<path id="bubble--partial_108_" class="st11" d="M140,116.3c0-2.2,1.8-3.9,4-3.9s4,1.8,4,3.9"/>
	<path id="bubble--partial_107_" class="st11" d="M111.9,115.3c0-1.6,1.3-2.9,2.9-2.9c1.6,0,2.9,1.3,2.9,2.9"/>
	<path id="bubble--partial_106_" class="st11" d="M116.3,116.7c0-1.6,1.3-2.9,2.9-2.9c1.6,0,2.9,1.3,2.9,2.9"/>
	<path id="bubble--partial_105_" class="st11" d="M109.7,117.4c0-2.6,2.1-4.7,4.7-4.7c2.6,0,4.7,2.1,4.7,4.7"/>
	<path id="bubble--partial_104_" class="st11" d="M115.1,125.1c0-5,4.1-9.1,9.2-9.1c5.1,0,9.2,4.1,9.2,9.1"/>
	<path id="bubble--partial_103_" class="st11" d="M74,119.7c0-4.6,3.8-8.3,8.4-8.3s8.4,3.7,8.4,8.3"/>
	<path id="bubble--partial_102_" class="st11" d="M72.1,121.2c0-5.9,4.9-10.7,10.8-10.7s10.8,4.8,10.8,10.7"/>
	<path id="bubble--partial_101_" class="st11" d="M103.6,126.8c0-5.5,5.4-10,12.1-10s12.1,4.5,12.1,10"/>
	<path id="bubble--partial_100_" class="st11" d="M93.7,115.7c0-3.2,3.1-5.8,7-5.8c3.9,0,7,2.6,7,5.7"/>
	<path id="bubble--partial_99_" class="st11" d="M93.8,126.1c0-2.1,2.1-3.8,4.6-3.8c2.5,0,4.6,1.7,4.6,3.8"/>
	<path id="bubble--partial_98_" class="st11" d="M103.5,116.9c0-3.3,2.1-6,4.6-6c2.5,0,4.6,2.7,4.6,6"/>
	<path id="bubble--partial_97_" class="st11" d="M121,123.8c0-1.3,2.1-2.4,4.6-2.4c2.5,0,4.6,1.1,4.6,2.4"/>
	<path id="bubble--partial_96_" class="st11" d="M141.8,120c0-1.3,2.1-2.4,4.6-2.4c2.5,0,4.6,1.1,4.6,2.4"/>
	<path id="bubble--partial_95_" class="st11" d="M141.8,120c0-1.3,2.1-2.4,4.6-2.4c2.5,0,4.6,1.1,4.6,2.4"/>
	<path id="bubble--partial_94_" class="st11" d="M174.8,122.6c0-1.3,2.1-2.4,4.6-2.4c2.5,0,4.6,1.1,4.6,2.4"/>
	<path id="bubble--partial_93_" class="st11" d="M140.7,128c0-1.3,2.1-2.4,4.6-2.4c2.5,0,4.6,1.1,4.6,2.4"/>
	<path id="bubble--partial_92_" class="st11" d="M114.3,125.7c0-1.6,1.6-2.9,3.5-2.9s3.5,1.3,3.5,2.9"/>
	<path id="bubble--partial_91_" class="st11" d="M118.3,127.6c0-1.4,1.3-2.5,3-2.5c1.7,0,3,1.1,3,2.5"/>
	<path id="bubble--partial_90_" class="st11" d="M130.8,126.3c0-1.4,1.3-2.5,3-2.5s3,1.1,3,2.5"/>
	<path id="bubble--partial_89_" class="st11" d="M151.3,126.7c0-1.7,1.6-3,3.6-3s3.6,1.3,3.6,3"/>
	<path id="bubble--partial_88_" class="st11" d="M140,128c0-2,1.6-3.7,3.5-3.7s3.5,1.6,3.5,3.7"/>
	<path id="bubble--partial_87_" class="st11" d="M159.6,121.7c0-2.6,2.1-4.7,4.7-4.7c2.6,0,4.7,2.1,4.7,4.7"/>
	<path id="bubble--partial_86_" class="st11" d="M173.9,120.6c0-1.7,1.4-3,3-3c1.7,0,3,1.3,3,3"/>
	<path id="bubble--partial_85_" class="st11" d="M177.4,122.8c0-1.7,1.4-3,3-3s3,1.3,3,3"/>
	<path id="bubble--partial_84_" class="st11" d="M174.5,123.3c0-1.1,0.9-2,2-2s2,0.9,2,2"/>
	<path id="bubble--partial_83_" class="st11" d="M166.4,124.3c0-1.8,1.5-3.3,3.3-3.3s3.3,1.5,3.3,3.3"/>
	<path id="bubble--partial_82_" class="st11" d="M161.7,125.1c0-3.1,2.4-5.6,5.4-5.6s5.4,2.5,5.4,5.6"/>
	<path id="bubble--partial_81_" class="st11" d="M169.1,123.8c0-3.1,2.4-5.6,5.4-5.6s5.4,2.5,5.4,5.6"/>
	<path id="bubble--partial_80_" class="st11" d="M157.3,124c0-1.8,1.5-3.3,3.3-3.3s3.3,1.5,3.3,3.3"/>
	<path id="bubble--partial_79_" class="st11" d="M151.3,127.1c0-1.8,1.5-3.3,3.3-3.3s3.3,1.5,3.3,3.3"/>
	<path id="bubble--partial_78_" class="st11" d="M148,127.6c0-1.2,1.5-2.1,3.3-2.1s3.3,0.9,3.3,2.1"/>
	<path id="bubble--partial_77_" class="st11" d="M126.7,128.4c0-1.8,1.5-3.3,3.3-3.3c1.8,0,3.3,1.5,3.3,3.3"/>
	<path id="bubble--partial_76_" class="st11" d="M153.9,116c0-1.8,1.5-3.3,3.3-3.3s3.3,1.5,3.3,3.3"/>
	<path id="bubble--partial_75_" class="st11" d="M150.1,116c0-1.8,1.5-3.3,3.3-3.3s3.3,1.5,3.3,3.3"/>
	<path id="bubble--partial_74_" class="st11" d="M112.4,127.8c0-1.8,1.5-3.3,3.3-3.3c1.8,0,3.3,1.5,3.3,3.3"/>
	<path id="bubble--partial_73_" class="st11" d="M77.2,121.5c0-1.8,1.5-3.3,3.3-3.3s3.3,1.5,3.3,3.3"/>
	<path id="bubble--partial_72_" class="st11" d="M82.4,124.4c0-2,1.7-3.7,3.7-3.7s3.7,1.7,3.7,3.7"/>
	<path id="bubble--partial_71_" class="st11" d="M87.1,125.5c0-0.9,1.7-1.7,3.7-1.7s3.7,0.8,3.7,1.7"/>
	<path id="bubble--partial_70_" class="st11" d="M155,117.6c0-1.8,1.5-3.3,3.3-3.3s3.3,1.5,3.3,3.3"/>
	<path id="bubble--partial_69_" class="st11" d="M124.5,119.3c0-2.2,2.5-4,5.6-4c3.1,0,5.6,1.8,5.6,4"/>
</g>
<g id="flames_flames--layer-1">
	<g id="flame-group_flame-group--right">

			<linearGradient id="flame_js-sine-wave-start-flame_3_" gradientUnits="userSpaceOnUse" x1="-128.1921" y1="174.9252" x2="-138.9886" y2="137.7148" gradientTransform="matrix(-0.963 -0.2694 -0.2694 0.963 142.5939 19.0045)">
			<stop  offset="0" style="stop-color:#FFFFFF"/>
			<stop  offset="0" style="stop-color:#FAF6B9"/>
			<stop  offset="0" style="stop-color:#FAF394"/>
			<stop  offset="5.119305e-02" style="stop-color:#F8ED46"/>
			<stop  offset="0.2174" style="stop-color:#F9EC43"/>
			<stop  offset="0.3124" style="stop-color:#FBE937"/>
			<stop  offset="0.3645" style="stop-color:#FDE62A"/>
			<stop  offset="0.5512" style="stop-color:#FCD304"/>
			<stop  offset="0.6717" style="stop-color:#FDBA1A"/>
			<stop  offset="0.7711" style="stop-color:#FBAB2A"/>
			<stop  offset="0.8671" style="stop-color:#FBAA29"/>
			<stop  offset="0.9208" style="stop-color:#FAA426"/>
			<stop  offset="0.964" style="stop-color:#F89A22"/>
			<stop  offset="1" style="stop-color:#F78D1E"/>
			<stop  offset="1" style="stop-color:#F68C1F"/>
			<stop  offset="1" style="stop-color:#F6871F"/>
			<stop  offset="1" style="stop-color:#F47E20"/>
			<stop  offset="1" style="stop-color:#F27221"/>
			<stop  offset="1" style="stop-color:#F06122"/>
			<stop  offset="1" style="stop-color:#EF5D23"/>
			<stop  offset="1" style="stop-color:#EC5C23"/>
			<stop  offset="1" style="stop-color:#E45524"/>
			<stop  offset="1" style="stop-color:#D94A26"/>
			<stop  offset="1" style="stop-color:#D24327"/>
		</linearGradient>
		<path id="flame_js-sine-wave-start-flame_6_" class="st12" d="M219.5,222.3c27.2,7.6,11.1-38.7,11.1-38.7L219.5,222.3z"/>

			<linearGradient id="flame_js-sine-wave-end-flame_3_" gradientUnits="userSpaceOnUse" x1="608.84" y1="174.891" x2="598.0825" y2="137.8151" gradientTransform="matrix(0.963 0.2694 -0.2694 0.963 -319.0194 -110.114)">
			<stop  offset="0" style="stop-color:#FFFFFF"/>
			<stop  offset="0" style="stop-color:#FAF6B9"/>
			<stop  offset="0" style="stop-color:#FAF394"/>
			<stop  offset="5.119305e-02" style="stop-color:#F8ED46"/>
			<stop  offset="0.2174" style="stop-color:#F9EC43"/>
			<stop  offset="0.3124" style="stop-color:#FBE937"/>
			<stop  offset="0.3645" style="stop-color:#FDE62A"/>
			<stop  offset="0.5512" style="stop-color:#FCD304"/>
			<stop  offset="0.6717" style="stop-color:#FDBA1A"/>
			<stop  offset="0.7711" style="stop-color:#FBAB2A"/>
			<stop  offset="0.8671" style="stop-color:#FBAA29"/>
			<stop  offset="0.9208" style="stop-color:#FAA426"/>
			<stop  offset="0.964" style="stop-color:#F89A22"/>
			<stop  offset="1" style="stop-color:#F78D1E"/>
			<stop  offset="1" style="stop-color:#F68C1F"/>
			<stop  offset="1" style="stop-color:#F6871F"/>
			<stop  offset="1" style="stop-color:#F47E20"/>
			<stop  offset="1" style="stop-color:#F27221"/>
			<stop  offset="1" style="stop-color:#F06122"/>
			<stop  offset="1" style="stop-color:#EF5D23"/>
			<stop  offset="1" style="stop-color:#EC5C23"/>
			<stop  offset="1" style="stop-color:#E45524"/>
			<stop  offset="1" style="stop-color:#D94A26"/>
			<stop  offset="1" style="stop-color:#D24327"/>
		</linearGradient>
		<path id="flame_js-sine-wave-end-flame_6_" class="st13" d="M219.5,222.3c-27.9-7.8,11.1-38.7,11.1-38.7L219.5,222.3z"/>
		<path id="flame-base" class="st7" d="M223,203c1.3-0.8,4.3,0.1,5,1.1c3.7,5.6,10,22.6-8.5,18.1C202.8,218.1,216.9,206.4,223,203z"
			/>
	</g>
	<g id="flame-group_flame-group--left_1_">

			<linearGradient id="flame_js-sine-wave-start-flame_7_" gradientUnits="userSpaceOnUse" x1="-302.892" y1="126.0597" x2="-313.6886" y2="88.8492" gradientTransform="matrix(0.963 -0.2694 0.2694 0.963 302.0795 19.0045)">
			<stop  offset="0" style="stop-color:#FFFFFF"/>
			<stop  offset="0" style="stop-color:#FAF6B9"/>
			<stop  offset="0" style="stop-color:#FAF394"/>
			<stop  offset="5.119305e-02" style="stop-color:#F8ED46"/>
			<stop  offset="0.2174" style="stop-color:#F9EC43"/>
			<stop  offset="0.3124" style="stop-color:#FBE937"/>
			<stop  offset="0.3645" style="stop-color:#FDE62A"/>
			<stop  offset="0.5512" style="stop-color:#FCD304"/>
			<stop  offset="0.6717" style="stop-color:#FDBA1A"/>
			<stop  offset="0.7711" style="stop-color:#FBAB2A"/>
			<stop  offset="0.8671" style="stop-color:#FBAA29"/>
			<stop  offset="0.9208" style="stop-color:#FAA426"/>
			<stop  offset="0.964" style="stop-color:#F89A22"/>
			<stop  offset="1" style="stop-color:#F78D1E"/>
			<stop  offset="1" style="stop-color:#F68C1F"/>
			<stop  offset="1" style="stop-color:#F6871F"/>
			<stop  offset="1" style="stop-color:#F47E20"/>
			<stop  offset="1" style="stop-color:#F27221"/>
			<stop  offset="1" style="stop-color:#F06122"/>
			<stop  offset="1" style="stop-color:#EF5D23"/>
			<stop  offset="1" style="stop-color:#EC5C23"/>
			<stop  offset="1" style="stop-color:#E45524"/>
			<stop  offset="1" style="stop-color:#D94A26"/>
			<stop  offset="1" style="stop-color:#D24327"/>
		</linearGradient>
		<path id="flame_js-sine-wave-start-flame_1_" class="st14" d="M43.8,222.3c-27.2,7.6-11.1-38.7-11.1-38.7L43.8,222.3z"/>

			<linearGradient id="flame_js-sine-wave-end-flame_7_" gradientUnits="userSpaceOnUse" x1="783.5399" y1="126.0255" x2="772.7824" y2="88.9495" gradientTransform="matrix(-0.963 0.2694 0.2694 0.963 763.6928 -110.114)">
			<stop  offset="0" style="stop-color:#FFFFFF"/>
			<stop  offset="0" style="stop-color:#FAF6B9"/>
			<stop  offset="0" style="stop-color:#FAF394"/>
			<stop  offset="5.119305e-02" style="stop-color:#F8ED46"/>
			<stop  offset="0.2174" style="stop-color:#F9EC43"/>
			<stop  offset="0.3124" style="stop-color:#FBE937"/>
			<stop  offset="0.3645" style="stop-color:#FDE62A"/>
			<stop  offset="0.5512" style="stop-color:#FCD304"/>
			<stop  offset="0.6717" style="stop-color:#FDBA1A"/>
			<stop  offset="0.7711" style="stop-color:#FBAB2A"/>
			<stop  offset="0.8671" style="stop-color:#FBAA29"/>
			<stop  offset="0.9208" style="stop-color:#FAA426"/>
			<stop  offset="0.964" style="stop-color:#F89A22"/>
			<stop  offset="1" style="stop-color:#F78D1E"/>
			<stop  offset="1" style="stop-color:#F68C1F"/>
			<stop  offset="1" style="stop-color:#F6871F"/>
			<stop  offset="1" style="stop-color:#F47E20"/>
			<stop  offset="1" style="stop-color:#F27221"/>
			<stop  offset="1" style="stop-color:#F06122"/>
			<stop  offset="1" style="stop-color:#EF5D23"/>
			<stop  offset="1" style="stop-color:#EC5C23"/>
			<stop  offset="1" style="stop-color:#E45524"/>
			<stop  offset="1" style="stop-color:#D94A26"/>
			<stop  offset="1" style="stop-color:#D24327"/>
		</linearGradient>
		<path id="flame_js-sine-wave-end-flame_1_" class="st15" d="M43.8,222.3c27.9-7.8-11.1-38.7-11.1-38.7L43.8,222.3z"/>
		<path id="flame-base_1_" class="st7" d="M40.3,203c-1.3-0.8-4.3,0.1-5,1.1c-3.7,5.6-10,22.6,8.5,18.1 C60.5,218.1,46.3,206.4,40.3,203z"/>
	</g>
	<g id="flame-group_flame-group--left-diagonal">

			<linearGradient id="flame_js-sine-wave-start-flame_8_" gradientUnits="userSpaceOnUse" x1="55.4553" y1="263.7561" x2="41.2626" y2="214.8407" gradientTransform="matrix(0.8114 -0.5845 0.5845 0.8114 -118.2208 75.6462)">
			<stop  offset="0" style="stop-color:#FFFFFF"/>
			<stop  offset="0" style="stop-color:#FAF6B9"/>
			<stop  offset="0" style="stop-color:#FAF394"/>
			<stop  offset="5.119305e-02" style="stop-color:#F8ED46"/>
			<stop  offset="0.2174" style="stop-color:#F9EC43"/>
			<stop  offset="0.3124" style="stop-color:#FBE937"/>
			<stop  offset="0.3645" style="stop-color:#FDE62A"/>
			<stop  offset="0.5512" style="stop-color:#FCD304"/>
			<stop  offset="0.6717" style="stop-color:#FDBA1A"/>
			<stop  offset="0.7711" style="stop-color:#FBAB2A"/>
			<stop  offset="0.8671" style="stop-color:#FBAA29"/>
			<stop  offset="0.9208" style="stop-color:#FAA426"/>
			<stop  offset="0.964" style="stop-color:#F89A22"/>
			<stop  offset="1" style="stop-color:#F78D1E"/>
			<stop  offset="1" style="stop-color:#F68C1F"/>
			<stop  offset="1" style="stop-color:#F6871F"/>
			<stop  offset="1" style="stop-color:#F47E20"/>
			<stop  offset="1" style="stop-color:#F27221"/>
			<stop  offset="1" style="stop-color:#F06122"/>
			<stop  offset="1" style="stop-color:#EF5D23"/>
			<stop  offset="1" style="stop-color:#EC5C23"/>
			<stop  offset="1" style="stop-color:#E45524"/>
			<stop  offset="1" style="stop-color:#D94A26"/>
			<stop  offset="1" style="stop-color:#D24327"/>
		</linearGradient>
		<path id="flame_js-sine-wave-start-flame_4_" class="st16" d="M81.6,256.4c-25.4,15.2-35-38-35-38L81.6,256.4z"/>

			<linearGradient id="flame_js-sine-wave-end-flame_8_" gradientUnits="userSpaceOnUse" x1="428.0478" y1="261.9635" x2="414.8173" y2="216.3646" gradientTransform="matrix(-0.8114 0.5845 0.5845 0.8114 270.7067 -204.5213)">
			<stop  offset="0" style="stop-color:#FFFFFF"/>
			<stop  offset="0" style="stop-color:#FAF6B9"/>
			<stop  offset="0" style="stop-color:#FAF394"/>
			<stop  offset="5.119305e-02" style="stop-color:#F8ED46"/>
			<stop  offset="0.2174" style="stop-color:#F9EC43"/>
			<stop  offset="0.3124" style="stop-color:#FBE937"/>
			<stop  offset="0.3645" style="stop-color:#FDE62A"/>
			<stop  offset="0.5512" style="stop-color:#FCD304"/>
			<stop  offset="0.6717" style="stop-color:#FDBA1A"/>
			<stop  offset="0.7711" style="stop-color:#FBAB2A"/>
			<stop  offset="0.8671" style="stop-color:#FBAA29"/>
			<stop  offset="0.9208" style="stop-color:#FAA426"/>
			<stop  offset="0.964" style="stop-color:#F89A22"/>
			<stop  offset="1" style="stop-color:#F78D1E"/>
			<stop  offset="1" style="stop-color:#F68C1F"/>
			<stop  offset="1" style="stop-color:#F6871F"/>
			<stop  offset="1" style="stop-color:#F47E20"/>
			<stop  offset="1" style="stop-color:#F27221"/>
			<stop  offset="1" style="stop-color:#F06122"/>
			<stop  offset="1" style="stop-color:#EF5D23"/>
			<stop  offset="1" style="stop-color:#EC5C23"/>
			<stop  offset="1" style="stop-color:#E45524"/>
			<stop  offset="1" style="stop-color:#D94A26"/>
			<stop  offset="1" style="stop-color:#D24327"/>
		</linearGradient>
		<path id="flame_js-sine-wave-end-flame_4_" class="st17" d="M81.6,256.4c26-15.6-35-38-35-38L81.6,256.4z"/>

			<linearGradient id="flame-base_3_" gradientUnits="userSpaceOnUse" x1="71.2371" y1="257.9817" x2="63.9414" y2="232.8372" gradientTransform="matrix(0.9389 -0.3443 0.3443 0.9389 -75.3559 39.6832)">
			<stop  offset="0" style="stop-color:#FFFFFF"/>
			<stop  offset="0" style="stop-color:#FAF6B9"/>
			<stop  offset="0" style="stop-color:#FAF394"/>
			<stop  offset="5.119305e-02" style="stop-color:#F8ED46"/>
			<stop  offset="0.4365" style="stop-color:#F8EC43"/>
			<stop  offset="0.5752" style="stop-color:#FAE93A"/>
			<stop  offset="0.6657" style="stop-color:#FDE62A"/>
			<stop  offset="1" style="stop-color:#FCD304"/>
		</linearGradient>
		<path id="flame-base_4_" class="st18" d="M66.3,236.9c-1.9-0.5-4.6,1.2-4.8,2.5c-0.7,6.9,2.3,26.6,20,16.8 C97.4,247.5,75,239,66.3,236.9z"/>
	</g>
	<g id="flame-group_flame-group--right-diagonal_1_">

			<linearGradient id="flame-base_6_" gradientUnits="userSpaceOnUse" x1="-51.1533" y1="212.686" x2="-59.0385" y2="185.5094" gradientTransform="matrix(-0.9389 -0.3443 -0.3443 0.9389 202.4151 39.6832)">
			<stop  offset="0" style="stop-color:#FFFFFF"/>
			<stop  offset="0" style="stop-color:#FAF6B9"/>
			<stop  offset="0" style="stop-color:#FAF394"/>
			<stop  offset="5.119305e-02" style="stop-color:#F8ED46"/>
			<stop  offset="0.4365" style="stop-color:#F8EC43"/>
			<stop  offset="0.5752" style="stop-color:#FAE93A"/>
			<stop  offset="0.6657" style="stop-color:#FDE62A"/>
			<stop  offset="1" style="stop-color:#FCD304"/>
		</linearGradient>
		<path id="flame-base_5_" class="st19" d="M193.3,235.8c2.2-0.5,5.4,1.2,5.6,2.5c0.8,6.9-2.7,26.6-23.3,16.8 C157.1,246.5,183.2,237.9,193.3,235.8z"/>

			<linearGradient id="flame_js-sine-wave-start-flame_9_" gradientUnits="userSpaceOnUse" x1="-51.9911" y1="187.6507" x2="-67.4452" y2="134.3883" gradientTransform="matrix(-0.8114 -0.5845 -0.5845 0.8114 245.28 75.6462)">
			<stop  offset="0" style="stop-color:#FFFFFF"/>
			<stop  offset="0" style="stop-color:#FAF6B9"/>
			<stop  offset="0" style="stop-color:#FAF394"/>
			<stop  offset="5.119305e-02" style="stop-color:#F8ED46"/>
			<stop  offset="0.2174" style="stop-color:#F9EC43"/>
			<stop  offset="0.3124" style="stop-color:#FBE937"/>
			<stop  offset="0.3645" style="stop-color:#FDE62A"/>
			<stop  offset="0.5512" style="stop-color:#FCD304"/>
			<stop  offset="0.6717" style="stop-color:#FDBA1A"/>
			<stop  offset="0.7711" style="stop-color:#FBAB2A"/>
			<stop  offset="0.8671" style="stop-color:#FBAA29"/>
			<stop  offset="0.9208" style="stop-color:#FAA426"/>
			<stop  offset="0.964" style="stop-color:#F89A22"/>
			<stop  offset="1" style="stop-color:#F78D1E"/>
			<stop  offset="1" style="stop-color:#F68C1F"/>
			<stop  offset="1" style="stop-color:#F6871F"/>
			<stop  offset="1" style="stop-color:#F47E20"/>
			<stop  offset="1" style="stop-color:#F27221"/>
			<stop  offset="1" style="stop-color:#F06122"/>
			<stop  offset="1" style="stop-color:#EF5D23"/>
			<stop  offset="1" style="stop-color:#EC5C23"/>
			<stop  offset="1" style="stop-color:#E45524"/>
			<stop  offset="1" style="stop-color:#D94A26"/>
			<stop  offset="1" style="stop-color:#D24327"/>
		</linearGradient>
		<path id="flame_js-sine-wave-start-flame_5_" class="st20" d="M175.5,255.4c29.5,15.2,40.7-38,40.7-38L175.5,255.4z"/>

			<linearGradient id="flame_js-sine-wave-end-flame_9_" gradientUnits="userSpaceOnUse" x1="535.0588" y1="184.4831" x2="521.2913" y2="137.0336" gradientTransform="matrix(0.8114 0.5845 -0.5845 0.8114 -143.6475 -204.5213)">
			<stop  offset="0" style="stop-color:#FFFFFF"/>
			<stop  offset="0" style="stop-color:#FAF6B9"/>
			<stop  offset="0" style="stop-color:#FAF394"/>
			<stop  offset="5.119305e-02" style="stop-color:#F8ED46"/>
			<stop  offset="0.2174" style="stop-color:#F9EC43"/>
			<stop  offset="0.3124" style="stop-color:#FBE937"/>
			<stop  offset="0.3645" style="stop-color:#FDE62A"/>
			<stop  offset="0.5512" style="stop-color:#FCD304"/>
			<stop  offset="0.6717" style="stop-color:#FDBA1A"/>
			<stop  offset="0.7711" style="stop-color:#FBAB2A"/>
			<stop  offset="0.8671" style="stop-color:#FBAA29"/>
			<stop  offset="0.9208" style="stop-color:#FAA426"/>
			<stop  offset="0.964" style="stop-color:#F89A22"/>
			<stop  offset="1" style="stop-color:#F78D1E"/>
			<stop  offset="1" style="stop-color:#F68C1F"/>
			<stop  offset="1" style="stop-color:#F6871F"/>
			<stop  offset="1" style="stop-color:#F47E20"/>
			<stop  offset="1" style="stop-color:#F27221"/>
			<stop  offset="1" style="stop-color:#F06122"/>
			<stop  offset="1" style="stop-color:#EF5D23"/>
			<stop  offset="1" style="stop-color:#EC5C23"/>
			<stop  offset="1" style="stop-color:#E45524"/>
			<stop  offset="1" style="stop-color:#D94A26"/>
			<stop  offset="1" style="stop-color:#D24327"/>
		</linearGradient>
		<path id="flame_js-sine-wave-end-flame_5_" class="st21" d="M175.5,255.4c-30.3-15.6,40.7-38,40.7-38L175.5,255.4z"/>
	</g>
	<g id="flame-group_flame-group--front">

			<linearGradient id="flame-base_7_" gradientUnits="userSpaceOnUse" x1="134.4377" y1="266.6335" x2="128.8943" y2="247.5284" gradientTransform="matrix(0.972 0.2348 -0.2348 0.972 57.6312 -26.3595)">
			<stop  offset="0" style="stop-color:#FFFFFF"/>
			<stop  offset="0" style="stop-color:#FAF6B9"/>
			<stop  offset="0" style="stop-color:#FAF394"/>
			<stop  offset="5.119305e-02" style="stop-color:#F8ED46"/>
			<stop  offset="0.4365" style="stop-color:#F8EC43"/>
			<stop  offset="0.5752" style="stop-color:#FAE93A"/>
			<stop  offset="0.6657" style="stop-color:#FDE62A"/>
			<stop  offset="1" style="stop-color:#FCD304"/>
		</linearGradient>
		<path id="flame-base_2_" class="st22" d="M133.8,245.3c-3.6-1-13.7-1-17-0.1c-16.8,4.3-52.7,18.6,11.1,18.8 C185.1,264.1,150.1,250,133.8,245.3z"/>
		
			<linearGradient id="flame_js-sine-wave-start-flame_10_" gradientUnits="userSpaceOnUse" x1="103.117" y1="292.1957" x2="92.8935" y2="256.9604" gradientTransform="matrix(0.9994 -3.574495e-02 3.574495e-02 0.9994 2.0136 -20.2417)">
			<stop  offset="0" style="stop-color:#FFFFFF"/>
			<stop  offset="0" style="stop-color:#FAF6B9"/>
			<stop  offset="0" style="stop-color:#FAF394"/>
			<stop  offset="5.119305e-02" style="stop-color:#F8ED46"/>
			<stop  offset="0.2174" style="stop-color:#F9EC43"/>
			<stop  offset="0.3124" style="stop-color:#FBE937"/>
			<stop  offset="0.3645" style="stop-color:#FDE62A"/>
			<stop  offset="0.5512" style="stop-color:#FCD304"/>
			<stop  offset="0.6717" style="stop-color:#FDBA1A"/>
			<stop  offset="0.7711" style="stop-color:#FBAB2A"/>
			<stop  offset="0.8671" style="stop-color:#FBAA29"/>
			<stop  offset="0.9208" style="stop-color:#FAA426"/>
			<stop  offset="0.964" style="stop-color:#F89A22"/>
			<stop  offset="1" style="stop-color:#F78D1E"/>
			<stop  offset="1" style="stop-color:#F68C1F"/>
			<stop  offset="1" style="stop-color:#F6871F"/>
			<stop  offset="1" style="stop-color:#F47E20"/>
			<stop  offset="1" style="stop-color:#F27221"/>
			<stop  offset="1" style="stop-color:#F06122"/>
			<stop  offset="1" style="stop-color:#EF5D23"/>
			<stop  offset="1" style="stop-color:#EC5C23"/>
			<stop  offset="1" style="stop-color:#E45524"/>
			<stop  offset="1" style="stop-color:#D94A26"/>
			<stop  offset="1" style="stop-color:#D24327"/>
		</linearGradient>
		<path id="flame_js-sine-wave-start-flame_2_" class="st23" d="M127.6,264.1c-94.2,0.5-0.6-38.4-0.6-38.4L127.6,264.1z"/>

			<linearGradient id="flame_js-sine-wave-end-flame_10_" gradientUnits="userSpaceOnUse" x1="349.9002" y1="292.7141" x2="339.5487" y2="257.0376" gradientTransform="matrix(-0.9994 3.574495e-02 3.574495e-02 0.9994 481.0386 -37.3754)">
			<stop  offset="0" style="stop-color:#FFFFFF"/>
			<stop  offset="0" style="stop-color:#FAF6B9"/>
			<stop  offset="0" style="stop-color:#FAF394"/>
			<stop  offset="5.119305e-02" style="stop-color:#F8ED46"/>
			<stop  offset="0.2174" style="stop-color:#F9EC43"/>
			<stop  offset="0.3124" style="stop-color:#FBE937"/>
			<stop  offset="0.3645" style="stop-color:#FDE62A"/>
			<stop  offset="0.5512" style="stop-color:#FCD304"/>
			<stop  offset="0.6717" style="stop-color:#FDBA1A"/>
			<stop  offset="0.7711" style="stop-color:#FBAB2A"/>
			<stop  offset="0.8671" style="stop-color:#FBAA29"/>
			<stop  offset="0.9208" style="stop-color:#FAA426"/>
			<stop  offset="0.964" style="stop-color:#F89A22"/>
			<stop  offset="1" style="stop-color:#F78D1E"/>
			<stop  offset="1" style="stop-color:#F68C1F"/>
			<stop  offset="1" style="stop-color:#F6871F"/>
			<stop  offset="1" style="stop-color:#F47E20"/>
			<stop  offset="1" style="stop-color:#F27221"/>
			<stop  offset="1" style="stop-color:#F06122"/>
			<stop  offset="1" style="stop-color:#EF5D23"/>
			<stop  offset="1" style="stop-color:#EC5C23"/>
			<stop  offset="1" style="stop-color:#E45524"/>
			<stop  offset="1" style="stop-color:#D94A26"/>
			<stop  offset="1" style="stop-color:#D24327"/>
		</linearGradient>
		<path id="flame_js-sine-wave-end-flame_2_" class="st24" d="M127.6,264.1c96.7-0.5-0.6-38.4-0.6-38.4L127.6,264.1z"/>
	</g>
</g>
</svg>
