<?xml version="1.0" encoding="utf-8"?>
<!-- Generator: Adobe Illustrator 19.0.0, SVG Export Plug-In . SVG Version: 6.00 Build 0)  -->
<svg version="1.1" id="cauldron" xmlns="http://www.w3.org/2000/svg" xmlns:xlink="http://www.w3.org/1999/xlink" x="0px" y="0px"
	 viewBox="0 0 266.8 314.3" style="enable-background:new 0 0 266.8 314.3;" xml:space="preserve">
<style type="text/css">
	.st0{fill:#403231;}
	.st1{fill:#211616;}
	.st2{fill:none;stroke:#211616;stroke-miterlimit:10;}
	.st3{fill:#010101;}
	.st4{fill:#303030;}
	.st5{fill:none;stroke:#303030;stroke-width:14;stroke-miterlimit:10;}
	.st6{fill:#93C841;}
	.st7{fill:none;}
	.st8{fill:#80171A;}
	.st9{fill:#80171A;stroke:#C18E7F;stroke-linejoin:bevel;stroke-miterlimit:10;}
	.st10{fill:#441715;}
	.st11{fill:#A8D166;}
</style>
<g id="cauldron_x5F__x5F_firewood-logs">
	<g id="log--right">
		<path id="XMLID_22_" class="st0" d="M161,222.9L161,222.9c0-6.4,6.2-11.6,13.9-11.6l91.3-0.1c0.4,0,0.7,0.3,0.7,0.6l-6.4,22.9
			l-85.3,0.1C167.3,234.7,161,229.4,161,222.9z"/>
	</g>
	<g id="log--left">
		<path id="XMLID_21_" class="st0" d="M103.8,222.9L103.8,222.9c0-6.4-6.1-11.6-13.6-11.6l-89.4-0.1c-0.4,0-0.7,0.3-0.7,0.6
			l6.3,22.9l83.5,0.1C97.6,234.7,103.8,229.4,103.8,222.9z"/>
	</g>
	<g id="log--left-diagonal">
		<g id="log_x5F__x5F_side">
			<g id="firewood-log-2">
				<path id="XMLID_30_" class="st1" d="M90.9,226.5L90.9,226.5c-4.5-4.5-11.9-4.5-16.4,0l-45.8,45.9c-0.2,0.2-0.2,0.6,0,0.8
					L44.4,289c0.2,0.2,0.6,0.2,0.8,0l45.7-45.8C95.5,238.6,95.5,231.1,90.9,226.5z"/>
				<path id="XMLID_23_" class="st1" d="M90.9,226.5L90.9,226.5c-4.5-4.5-11.9-4.5-16.4,0l-45.8,45.9c-0.2,0.2-0.2,0.6,0,0.8
					L44.4,289c0.2,0.2,0.6,0.2,0.8,0l45.7-45.8C95.5,238.6,95.5,231.1,90.9,226.5z"/>

					<ellipse id="XMLID_29_" transform="matrix(-0.7082 -0.7061 0.7061 -0.7082 -134.0923 505.0656)" class="st0" cx="37.3" cy="280.2" rx="11.9" ry="16.4"/>
			</g>
			<path id="XMLID_25_" class="st0" d="M90.5,226.2L90.5,226.2c-4.3-4.3-11.3-4.3-15.6,0l-46.6,46.3c-0.4,0.6,9.1,9,9.1,9"/>
		</g>
		<path id="log_x5F__x5F_spiral_2_" class="st2" d="M37.5,278.3c-0.8-0.8-2.4-0.6-3.4,0.5c-1.3,1.4-1.5,3.3-0.5,4.3
			c1.3,1.3,3.7,0.9,5.4-0.8c2.1-2.1,2.4-5.1,0.8-6.7c-2.1-2-5.8-1.5-8.4,1.2c-3.2,3.3-3.8,8-1.2,10.5c3.2,3.1,9.1,2.3,13.1-1.8
			c5-5.2,5.3-11.6,0.7-14.8c-4.4-3.1-10.8-0.1-15.7,5.6c-2.7,3.1-3,9.9,0,12.9"/>
	</g>
	<g id="log--right-diagonal">
		<g id="log_x5F__x5F_side_1_">
			<g id="firewood-log-2_1_">
				<path id="XMLID_28_" class="st1" d="M178.5,222.6L178.5,222.6c-5.3,3.7-6.6,10.9-2.9,16.2l37.1,53.2c0.2,0.3,0.5,0.3,0.8,0.1
					l18.3-12.8c0.3-0.2,0.3-0.5,0.1-0.8l-37-53.1C191.2,220.2,183.8,218.9,178.5,222.6z"/>
				<path id="XMLID_27_" class="st1" d="M178.5,222.6L178.5,222.6c-5.3,3.7-6.6,10.9-2.9,16.2l37.1,53.2c0.2,0.3,0.5,0.3,0.8,0.1
					l18.3-12.8c0.3-0.2,0.3-0.5,0.1-0.8l-37-53.1C191.2,220.2,183.8,218.9,178.5,222.6z"/>

					<ellipse id="XMLID_26_" transform="matrix(-0.8201 0.5722 -0.5722 -0.8201 566.8032 391.4031)" class="st0" cx="221.9" cy="284.8" rx="11.9" ry="16.4"/>
			</g>
			<path id="XMLID_7_" class="st0" d="M178.9,222.5L178.9,222.5c5-3.5,12.2-2.4,15.7,2.6l37.8,53.7c0.3,0.6-10.5,7.3-10.5,7.3"/>
		</g>
		<path id="log_x5F__x5F_spiral_1_" class="st2" d="M220,284.3c-1,0.7-1,2.2-0.1,3.5c1.1,1.5,3,2.1,4.2,1.2c1.5-1.1,1.6-3.5,0.2-5.4
			c-1.7-2.4-4.6-3.3-6.5-1.9c-2.3,1.7-2.5,5.5-0.3,8.5c2.7,3.8,7.2,5.1,10.2,3c3.6-2.6,3.9-8.5,0.5-13.3c-4.2-5.9-10.5-7.2-14.5-3.3
			c-3.8,3.8-2,10.6,2.8,16.4c2.6,3.2,9.2,4.7,12.7,2.3"/>
	</g>
	<g id="log--front">
		<g id="firewood-log_1_">
			<path id="XMLID_20_" class="st1" d="M128.4,229L128.4,229c-6.4,0-11.6,5.2-11.6,11.7l0.2,55.7c0,0.3,0.3,0.6,0.6,0.6l22.3-0.1
				c0.3,0,0.6-0.3,0.6-0.6l-0.2-55.6C140.3,234.3,135,229,128.4,229z"/>

				<ellipse id="XMLID_19_" transform="matrix(-1 3.094836e-03 -3.094836e-03 -1 258.4584 591.4327)" class="st0" cx="128.8" cy="295.9" rx="11.7" ry="18.4"/>
		</g>
		<path id="log_x5F__x5F_spiral_3_" class="st2" d="M128.3,293.2c-1,0-1.9,1.3-2,2.9c-0.1,2.1,0.9,3.8,2.2,3.8c1.6,0.1,3-2,3.1-4.6
			c0.1-3.2-1.4-5.9-3.4-6c-2.5-0.1-4.7,3.1-4.9,7.1c-0.2,5.1,2.2,9.3,5.3,9.4c3.9,0.2,7.4-4.8,7.6-11.1c0.3-7.9-3.2-13.3-8.1-12.5
			c-4.7,0.7-8.1,7.8-7.2,16.1c0.7,6.7,3.6,11.3,7.7,11.3"/>
	</g>
</g>
<g id="cauldron-body_1_">
	<path id="leg-left_1_" class="st3" d="M84.2,235.4c-4.7,12.3-11.4,32.8-7.5,34.8l0,0c5.1,2.7,22.6-20.2,25.4-25.3"/>
	<path id="leg-right_1_" class="st3" d="M177.7,235.4c4.7,12.3,11.4,32.8,7.5,34.8l0,0c-5.1,2.7-22.6-20.2-25.4-25.3"/>
	<path id="XMLID_18_" class="st4" d="M72.8,129.4c-38.7,46.7-40.8,84.8,0,111.6c57,25.3,114,0,114,0c40.8-26.8,44.7-66.9,0-111.6
		C137.5,150.9,72.8,129.4,72.8,129.4"/>
	<path id="XMLID_17_" class="st5" d="M125.7,135.4c-42.9,0-127.5-27.3,2-27.3S190.6,135.4,125.7,135.4z"/>
</g>
<g id="cauldron-top-shadow_1_">
	<path id="XMLID_16_" class="st3" d="M190.9,119.4c-1.1-15.5-36.3-10-78.8-4.3l41.9,0.3C166.8,115.6,190.9,119.4,190.9,119.4z"/>
	<path id="XMLID_14_" class="st3" d="M192.1,134.9c-0.5,0.4-7.1,3.8-66.7,3.8c-63,0-66.6-12.8-66.6-12.8c-0.8,0.4,2.8,4.5,9.6,9.5
		l0,0l-15.8,23.7c5.2,6,27.3,7.2,89.3-6.7l0,0C172.7,146.1,183.2,141.8,192.1,134.9z"/>
	<path id="XMLID_12_" class="st3" d="M192.1,134.9L192.1,134.9L192.1,134.9z"/>
</g>
<path id="cauldron-bottom-shadow_1_" class="st3" d="M49.6,217.9c-2.5-5.7,11.6-7.6,19.7-5.2c5,1.4,17.4,7.8,20,9.8
	c7.3,5.6,31.2,14.3,40.1,16.6c34.1,8.5,59.9-7.4,75.1-13c0,0-6.5,7.8-16.3,14.3c-4,2.6-9.3,4-14,5.1c-2.1,0.8-4.6,1.2-7.1,1.8
	c-11.6,2.8-26.3,5.6-44.2,4.9c-21.4-0.9-36.1-4.5-49.4-10.9C59,234.3,52.1,223.6,49.6,217.9z"/>
<g id="cauldron_x5F__x5F_liquid-container_2_">
	<path id="cauldron-liquid_x5F__x5F_base_2_" class="st6" d="M190.9,119.9c2.8-2.1-27.6-6.7-61.7-6.7s-61.7,3-61.7,6.7
		C92.1,133.1,177.6,130.1,190.9,119.9z"/>
	<circle id="cauldron_x5F__x5F_liquid-control-point-4_1_" class="st7" cx="191.1" cy="119.6" r="0.5"/>
	<circle id="cauldron_x5F__x5F_liquid-control-point-1_1_" class="st7" cx="129.3" cy="112.8" r="0.5"/>
	<circle id="cauldron_x5F__x5F_liquid-control-point-3_1_" class="st7" cx="129.3" cy="128.7" r="0.5"/>
	<circle id="cauldron_x5F__x5F_liquid-control-point-2_1_" class="st7" cx="67.5" cy="119.7" r="0.5"/>
	<g id="cauldron-stick_1_">
		<path id="XMLID_11_" class="st8" d="M197.4,45.5c-3.8,2.3-11.7,7-12.1,7.4l-35.6,68.9h9.4c11.2-23.8,28.1-46.4,39.8-59.2
			c4.8-5.2,8.7-8.8,11.1-10.1c8.1-4.7,0,0,0,0s0,0,3.8,6.6l0,0c0,0,0,0,4.4-3.3c-6.7-15.5,11.4-39.5,20.8-48.4c0,0-6.4-0.5-18.4-7.4
			c0,0-21.9,28.1-23.3,45.1C197.4,45.1,197.4,45.3,197.4,45.5"/>
		<path id="XMLID_5_" class="st9" d="M197.4,45h0.3c1.4,0.1,7.9-2.9,9.3-3.5"/>
		<path id="stick-shadow_1_" class="st10" d="M239.1,7.3c0,0,0,0-0.3,0c-7.5-0.2-47.6,59.9-47.6,59.9s-13.3,18.3-8.4,15.3l27.2-30
			l3.8,6.6l4.4-3.3c-5.6-12.9,6.7-30.9,6.7-30.9l-0.1,0.1C229.7,18.3,235.3,11.1,239.1,7.3z M213.6,41.5L213.6,41.5L213.6,41.5
			L213.6,41.5z"/>
	</g>
	<circle id="cauldron_x5F__x5F_stick-measure-point-right_1_" class="st7" cx="159.1" cy="121.7" r="0.5"/>
	<circle id="cauldron_x5F__x5F_stick-measure-point-left_1_" class="st7" cx="149.7" cy="121.8" r="0.5"/>
	<path id="bubble--partial_136_" class="st11" d="M91,121.8c0-5.7,4.6-10.3,10.3-10.3s10.3,4.6,10.3,10.3"/>
	<path id="bubble--partial_135_" class="st11" d="M162.9,119c0-5.7,4.6-10.3,10.3-10.3c5.7,0,10.3,4.6,10.3,10.3"/>
	<path id="bubble--partial_134_" class="st11" d="M162.9,121.1c0-6.9,5.6-12.5,12.5-12.5s12.5,5.6,12.5,12.5"/>
	<path id="bubble--partial_133_" class="st11" d="M171.4,121.1c0-4.6,3.7-8.2,8.2-8.2s8.2,3.7,8.2,8.2"/>
	<path id="bubble--partial_132_" class="st11" d="M163.1,122.9c0-4.6,3.7-8.2,8.2-8.2s8.2,3.7,8.2,8.2"/>
	<path id="bubble--partial_131_" class="st11" d="M175.9,120.5c0-3.1,2.9-5.6,6.5-5.6c3.6,0,6.5,2.5,6.5,5.6"/>
	<path id="bubble--partial_130_" class="st11" d="M146.5,125.5c0-5.4,4.5-9.8,10-9.8s10,4.4,10,9.8"/>
	<path id="bubble--partial_129_" class="st11" d="M103.8,119.1c0-3.9,3.9-7,8.7-7c4.8,0,8.7,3.2,8.7,7"/>
	<path id="bubble--partial_128_" class="st11" d="M135.8,118.8c0-4.9,4-8.8,8.9-8.8c4.9,0,8.9,3.9,8.9,8.8"/>
	<path id="bubble--partial_127_" class="st11" d="M115,116.8c0-7.2,5.9-13,13.2-13c7.3,0,13.2,5.8,13.2,13"/>
	<path id="bubble--partial_126_" class="st11" d="M115,116.8c0-3.6,5.9-6.5,13.2-6.5c7.3,0,13.2,2.9,13.2,6.5"/>
	<path id="bubble--partial_125_" class="st11" d="M83.1,123.7c0-3.6,5.9-6.5,13.2-6.5c7.3,0,13.2,2.9,13.2,6.5"/>
	<path id="bubble--partial_124_" class="st11" d="M83.1,123.7c0-3.6,5.9-6.5,13.2-6.5c7.3,0,13.2,2.9,13.2,6.5"/>
	<path id="bubble--partial_123_" class="st11" d="M117,125.3c0-7.2,5.9-13,13.2-13c7.3,0,13.2,5.8,13.2,13"/>
	<path id="bubble--partial_122_" class="st11" d="M117,125.3c0-7.2,5.9-13,13.2-13c7.3,0,13.2,5.8,13.2,13"/>
	<path id="bubble--partial_121_" class="st11" d="M76.8,123.1c0-7.2,5.9-13,13.2-13s13.2,5.8,13.2,13"/>
	<path id="bubble--partial_120_" class="st11" d="M76.8,123.1c0-7.2,5.9-13,13.2-13s13.2,5.8,13.2,13"/>
	<path id="bubble--partial_119_" class="st11" d="M80.8,118c0-7.2,5.9-13,13.2-13s13.2,5.8,13.2,13"/>
	<path id="bubble--partial_118_" class="st11" d="M86.5,117.4c0-2.9,5.9-5.2,13.2-5.2c7.3,0,13.2,2.3,13.2,5.2"/>
	<path id="bubble--partial_117_" class="st11" d="M97.8,114.7c0-3.6,4.8-6.6,10.8-6.6c6,0,10.8,2.9,10.8,6.6"/>
	<path id="bubble--partial_116_" class="st11" d="M132.5,127.4c0-4.6,3.8-8.3,8.4-8.3s8.4,3.7,8.4,8.3"/>
	<path id="bubble--partial_115_" class="st11" d="M142.7,127.3c0-3.7,3-6.6,6.7-6.6s6.7,3,6.7,6.6"/>
	<path id="bubble--partial_114_" class="st11" d="M154.1,117.2c0-2,3-3.6,6.7-3.6c3.7,0,6.7,1.6,6.7,3.6"/>
	<path id="bubble--partial_113_" class="st11" d="M154.1,117.2c0-2,3-3.6,6.7-3.6c3.7,0,6.7,1.6,6.7,3.6"/>
	<path id="bubble--partial_112_" class="st11" d="M149.8,115.6c0-3.1,3-5.7,6.7-5.7s6.7,2.5,6.7,5.7"/>
	<path id="bubble--partial_111_" class="st11" d="M70.1,120.4c0-4.8,4.8-8.7,10.6-8.7c5.9,0,10.6,3.9,10.6,8.7"/>
	<path id="bubble--partial_110_" class="st11" d="M133.5,120.7c0.3-5.7,5.1-10,10.9-9.7c5.7,0.3,10.2,5.1,9.9,10.7"/>
	<path id="bubble--partial_109_" class="st11" d="M112.4,121c0.2-3.9,5-6.9,10.7-6.6c5.7,0.3,10.2,3.7,10,7.6"/>
	<path id="bubble--partial_108_" class="st11" d="M140.2,116.3c0-2.2,1.8-3.9,4-3.9s4,1.8,4,3.9"/>
	<path id="bubble--partial_107_" class="st11" d="M112.1,115.3c0-1.6,1.3-2.9,2.9-2.9s2.9,1.3,2.9,2.9"/>
	<path id="bubble--partial_106_" class="st11" d="M116.5,116.7c0-1.6,1.3-2.9,2.9-2.9c1.6,0,2.9,1.3,2.9,2.9"/>
	<path id="bubble--partial_105_" class="st11" d="M109.9,117.4c0-2.6,2.1-4.7,4.7-4.7s4.7,2.1,4.7,4.7"/>
	<path id="bubble--partial_104_" class="st11" d="M115.3,125.1c0-5,4.1-9.1,9.2-9.1c5.1,0,9.2,4.1,9.2,9.1"/>
	<path id="bubble--partial_103_" class="st11" d="M74.2,119.7c0-4.6,3.8-8.3,8.4-8.3s8.4,3.7,8.4,8.3"/>
	<path id="bubble--partial_102_" class="st11" d="M72.3,121.2c0-5.9,4.9-10.7,10.8-10.7S94,115.3,94,121.2"/>
	<path id="bubble--partial_101_" class="st11" d="M103.8,126.8c0-5.5,5.4-10,12.1-10c6.7,0,12.1,4.5,12.1,10"/>
	<path id="bubble--partial_100_" class="st11" d="M93.8,115.7c0-3.2,3.1-5.8,7-5.8c3.9,0,7,2.6,7,5.7"/>
	<path id="bubble--partial_99_" class="st11" d="M94,126.1c0-2.1,2.1-3.8,4.6-3.8c2.5,0,4.6,1.7,4.6,3.8"/>
	<path id="bubble--partial_98_" class="st11" d="M103.7,116.9c0-3.3,2.1-6,4.6-6c2.5,0,4.6,2.7,4.6,6"/>
	<path id="bubble--partial_97_" class="st11" d="M121.1,123.8c0-1.3,2.1-2.4,4.6-2.4c2.5,0,4.6,1.1,4.6,2.4"/>
	<path id="bubble--partial_96_" class="st11" d="M141.9,120c0-1.3,2.1-2.4,4.6-2.4c2.5,0,4.6,1.1,4.6,2.4"/>
	<path id="bubble--partial_95_" class="st11" d="M141.9,120c0-1.3,2.1-2.4,4.6-2.4c2.5,0,4.6,1.1,4.6,2.4"/>
	<path id="bubble--partial_94_" class="st11" d="M175,122.6c0-1.3,2.1-2.4,4.6-2.4s4.6,1.1,4.6,2.4"/>
	<path id="bubble--partial_93_" class="st11" d="M140.8,128c0-1.3,2.1-2.4,4.6-2.4c2.5,0,4.6,1.1,4.6,2.4"/>
	<path id="bubble--partial_92_" class="st11" d="M114.5,125.7c0-1.6,1.6-2.9,3.5-2.9s3.5,1.3,3.5,2.9"/>
	<path id="bubble--partial_91_" class="st11" d="M118.5,127.6c0-1.4,1.3-2.5,3-2.5s3,1.1,3,2.5"/>
	<path id="bubble--partial_90_" class="st11" d="M130.9,126.3c0-1.4,1.3-2.5,3-2.5s3,1.1,3,2.5"/>
	<path id="bubble--partial_89_" class="st11" d="M151.5,126.7c0-1.7,1.6-3,3.6-3s3.6,1.3,3.6,3"/>
	<path id="bubble--partial_88_" class="st11" d="M140.2,128c0-2,1.6-3.7,3.5-3.7s3.5,1.6,3.5,3.7"/>
	<path id="bubble--partial_87_" class="st11" d="M159.8,121.7c0-2.6,2.1-4.7,4.7-4.7c2.6,0,4.7,2.1,4.7,4.7"/>
	<path id="bubble--partial_86_" class="st11" d="M174.1,120.6c0-1.7,1.4-3,3-3c1.7,0,3,1.3,3,3"/>
	<path id="bubble--partial_85_" class="st11" d="M177.5,122.8c0-1.7,1.4-3,3-3c1.7,0,3,1.3,3,3"/>
	<path id="bubble--partial_84_" class="st11" d="M174.7,123.3c0-1.1,0.9-2,2-2s2,0.9,2,2"/>
	<path id="bubble--partial_83_" class="st11" d="M166.6,124.3c0-1.8,1.5-3.3,3.3-3.3s3.3,1.5,3.3,3.3"/>
	<path id="bubble--partial_82_" class="st11" d="M161.8,125.1c0-3.1,2.4-5.6,5.4-5.6s5.4,2.5,5.4,5.6"/>
	<path id="bubble--partial_81_" class="st11" d="M169.3,123.8c0-3.1,2.4-5.6,5.4-5.6s5.4,2.5,5.4,5.6"/>
	<path id="bubble--partial_80_" class="st11" d="M157.4,124c0-1.8,1.5-3.3,3.3-3.3s3.3,1.5,3.3,3.3"/>
	<path id="bubble--partial_79_" class="st11" d="M151.5,127.1c0-1.8,1.5-3.3,3.3-3.3c1.8,0,3.3,1.5,3.3,3.3"/>
	<path id="bubble--partial_78_" class="st11" d="M148.1,127.6c0-1.2,1.5-2.1,3.3-2.1s3.3,0.9,3.3,2.1"/>
	<path id="bubble--partial_77_" class="st11" d="M126.9,128.4c0-1.8,1.5-3.3,3.3-3.3s3.3,1.5,3.3,3.3"/>
	<path id="bubble--partial_76_" class="st11" d="M154.1,116c0-1.8,1.5-3.3,3.3-3.3s3.3,1.5,3.3,3.3"/>
	<path id="bubble--partial_75_" class="st11" d="M150.3,116c0-1.8,1.5-3.3,3.3-3.3s3.3,1.5,3.3,3.3"/>
	<path id="bubble--partial_74_" class="st11" d="M112.5,127.8c0-1.8,1.5-3.3,3.3-3.3c1.8,0,3.3,1.5,3.3,3.3"/>
	<path id="bubble--partial_73_" class="st11" d="M77.3,121.5c0-1.8,1.5-3.3,3.3-3.3c1.8,0,3.3,1.5,3.3,3.3"/>
	<path id="bubble--partial_72_" class="st11" d="M82.6,124.4c0-2,1.7-3.7,3.7-3.7c2.1,0,3.7,1.7,3.7,3.7"/>
	<path id="bubble--partial_71_" class="st11" d="M87.2,125.5c0-0.9,1.7-1.7,3.7-1.7s3.7,0.8,3.7,1.7"/>
	<path id="bubble--partial_70_" class="st11" d="M155.1,117.6c0-1.8,1.5-3.3,3.3-3.3s3.3,1.5,3.3,3.3"/>
	<path id="bubble--partial_69_" class="st11" d="M124.6,119.3c0-2.2,2.5-4,5.6-4c3.1,0,5.6,1.8,5.6,4"/>
</g>
<g class="flames flames--end-state">
	<linearGradient id="flame--left_2_" gradientUnits="userSpaceOnUse" x1="58.185" y1="179.7734" x2="1.643457e-09" y2="179.7734">
		<stop  offset="0" style="stop-color:#FFFFFF"/>
		<stop  offset="0" style="stop-color:#FAF6B9"/>
		<stop  offset="0" style="stop-color:#FAF394"/>
		<stop  offset="5.119305e-02" style="stop-color:#F8ED46"/>
		<stop  offset="0.2174" style="stop-color:#F9EC43"/>
		<stop  offset="0.3124" style="stop-color:#FBE937"/>
		<stop  offset="0.3645" style="stop-color:#FDE62A"/>
		<stop  offset="0.5512" style="stop-color:#FCD304"/>
		<stop  offset="0.6717" style="stop-color:#FDBA1A"/>
		<stop  offset="0.7711" style="stop-color:#FBAB2A"/>
		<stop  offset="0.8671" style="stop-color:#FBAA29"/>
		<stop  offset="0.9208" style="stop-color:#FAA426"/>
		<stop  offset="0.964" style="stop-color:#F89A22"/>
		<stop  offset="1" style="stop-color:#F78D1E"/>
		<stop  offset="1" style="stop-color:#F68C1F"/>
		<stop  offset="1" style="stop-color:#F6871F"/>
		<stop  offset="1" style="stop-color:#F47E20"/>
		<stop  offset="1" style="stop-color:#F27221"/>
		<stop  offset="1" style="stop-color:#F06122"/>
		<stop  offset="1" style="stop-color:#EF5D23"/>
		<stop  offset="1" style="stop-color:#EC5C23"/>
		<stop  offset="1" style="stop-color:#E45524"/>
		<stop  offset="1" style="stop-color:#D94A26"/>
		<stop  offset="1" style="stop-color:#D24327"/>
	</linearGradient>
	<path id="flame--left" class="st13" d="M58.2,208.9c-0.4-0.2-0.8-0.4-1.2-0.6c-10.9-5.7-19.9-14.1-24.3-25.2
		c-3.8-9.6-2.5-23.9,1-33.6c0.4-1.1,0-2.2-3.4,2.4c-6,8.1-10.6,12.5-11.6,18.1c-1.1,6.4,1.5,13.4,8.7,20.1c5.9,5.5-6.7,16-23.2,7.1
		c-3-1.6-7.4,0.3-0.6,5.4c19.6,14.6,53.8,5.9,53.8,5.9"/>
	<g id="flame--left-diagonal" class="st14">
		<linearGradient id="XMLID_13_" gradientUnits="userSpaceOnUse" x1="104.8813" y1="199.8609" x2="8.3812" y2="199.8609">
			<stop  offset="0" style="stop-color:#FFFFFF"/>
			<stop  offset="0" style="stop-color:#FAF6B9"/>
			<stop  offset="0" style="stop-color:#FAF394"/>
			<stop  offset="5.119305e-02" style="stop-color:#F8ED46"/>
			<stop  offset="0.2174" style="stop-color:#F9EC43"/>
			<stop  offset="0.3124" style="stop-color:#FBE937"/>
			<stop  offset="0.3645" style="stop-color:#FDE62A"/>
			<stop  offset="0.5512" style="stop-color:#FCD304"/>
			<stop  offset="0.6717" style="stop-color:#FDBA1A"/>
			<stop  offset="0.7711" style="stop-color:#FBAB2A"/>
			<stop  offset="0.8671" style="stop-color:#FBAA29"/>
			<stop  offset="0.9208" style="stop-color:#FAA426"/>
			<stop  offset="0.964" style="stop-color:#F89A22"/>
			<stop  offset="1" style="stop-color:#F78D1E"/>
			<stop  offset="1" style="stop-color:#F68C1F"/>
			<stop  offset="1" style="stop-color:#F6871F"/>
			<stop  offset="1" style="stop-color:#F47E20"/>
			<stop  offset="1" style="stop-color:#F27221"/>
			<stop  offset="1" style="stop-color:#F06122"/>
			<stop  offset="1" style="stop-color:#EF5D23"/>
			<stop  offset="1" style="stop-color:#EC5C23"/>
			<stop  offset="1" style="stop-color:#E45524"/>
			<stop  offset="1" style="stop-color:#D94A26"/>
			<stop  offset="1" style="stop-color:#D24327"/>
		</linearGradient>
		<path id="XMLID_2_" class="st15" d="M12.3,162.8c0.4-0.5,0.9-0.9,1.5-0.8c0.7,0.2,0.8,1.1,0.7,1.9c-1.5,13.3,7.8,27.1,21.7,31.2
			c1.1,0.3,2.2,0.4,3.3,0.4c0.8,0,1.7-0.1,1.9-1.2c0.1-0.7-0.1-1.4-0.6-1.9c-3.2-3.1-3.8-7.8-2.8-11.9c2.3-9.8,11.3-17.1,22-22.5
			c4.8-2.4,8.1-5.4,3.4,2.4c-4.7,7.9-11.1,14.1-13,23.4c-1,5.1-0.7,10.4,0.2,15.6c0.6,3.6,1.5,7.1,2.8,10.6
			c1.9,7,9.4,11.7,15.9,14.7c5.1,2.4,10.6,4.2,16.1,5.7c3.3,0.9,6.6,1.6,10,2.3c2.2,0.4,9.4,1.7,9.4,1.7
			c-19.1,5.4-27.8,2.5-46.8,8.2c-15.1,4.5-24.4-0.1-27.9-6c-4.1-7-4.6-7.8-16.1-17.2c3.3,0.4,6.4,1.6,9.5,2.7
			c3.1,1.1,8.2,1.9,11.3,2.7c3.8,1,7.7,2.3,10.7,4.7c2.1,1.6,5,2.1,3.9-1.2c-0.9-2.7-2.8-5-5-6.9c-6.2-5.6-13-11-20-15.7
			c-13.1-8.9-15.3-19.3-16-25.3C7.2,168.3,12.3,162.8,12.3,162.8z"/>
		<linearGradient id="XMLID_15_" gradientUnits="userSpaceOnUse" x1="53.5239" y1="209.9629" x2="53.5239" y2="209.9629">
			<stop  offset="0" style="stop-color:#FFFFFF"/>
			<stop  offset="0" style="stop-color:#FAF6B9"/>
			<stop  offset="0" style="stop-color:#FAF394"/>
			<stop  offset="5.119305e-02" style="stop-color:#F8ED46"/>
			<stop  offset="0.2174" style="stop-color:#F9EC43"/>
			<stop  offset="0.3124" style="stop-color:#FBE937"/>
			<stop  offset="0.3645" style="stop-color:#FDE62A"/>
			<stop  offset="0.5512" style="stop-color:#FCD304"/>
			<stop  offset="0.6717" style="stop-color:#FDBA1A"/>
			<stop  offset="0.7711" style="stop-color:#FBAB2A"/>
			<stop  offset="0.8671" style="stop-color:#FBAA29"/>
			<stop  offset="0.9208" style="stop-color:#FAA426"/>
			<stop  offset="0.964" style="stop-color:#F89A22"/>
			<stop  offset="1" style="stop-color:#F78D1E"/>
			<stop  offset="1" style="stop-color:#F68C1F"/>
			<stop  offset="1" style="stop-color:#F6871F"/>
			<stop  offset="1" style="stop-color:#F47E20"/>
			<stop  offset="1" style="stop-color:#F27221"/>
			<stop  offset="1" style="stop-color:#F06122"/>
			<stop  offset="1" style="stop-color:#EF5D23"/>
			<stop  offset="1" style="stop-color:#EC5C23"/>
			<stop  offset="1" style="stop-color:#E45524"/>
			<stop  offset="1" style="stop-color:#D94A26"/>
			<stop  offset="1" style="stop-color:#D24327"/>
		</linearGradient>
		<path id="XMLID_4_" class="st16" d="M53.5,210"/>
	</g>

		<linearGradient id="flame--right_2_" gradientUnits="userSpaceOnUse" x1="189.0557" y1="184.7245" x2="248.0999" y2="184.7245" gradientTransform="matrix(0.9999 -1.270875e-02 1.270875e-02 0.9999 2.3537 1.6772)">
		<stop  offset="0" style="stop-color:#FFFFFF"/>
		<stop  offset="0" style="stop-color:#FAF6B9"/>
		<stop  offset="0" style="stop-color:#FAF394"/>
		<stop  offset="5.119305e-02" style="stop-color:#F8ED46"/>
		<stop  offset="0.2174" style="stop-color:#F9EC43"/>
		<stop  offset="0.3124" style="stop-color:#FBE937"/>
		<stop  offset="0.3645" style="stop-color:#FDE62A"/>
		<stop  offset="0.5512" style="stop-color:#FCD304"/>
		<stop  offset="0.6717" style="stop-color:#FDBA1A"/>
		<stop  offset="0.7711" style="stop-color:#FBAB2A"/>
		<stop  offset="0.8671" style="stop-color:#FBAA29"/>
		<stop  offset="0.9208" style="stop-color:#FAA426"/>
		<stop  offset="0.964" style="stop-color:#F89A22"/>
		<stop  offset="1" style="stop-color:#F78D1E"/>
		<stop  offset="1" style="stop-color:#F68C1F"/>
		<stop  offset="1" style="stop-color:#F6871F"/>
		<stop  offset="1" style="stop-color:#F47E20"/>
		<stop  offset="1" style="stop-color:#F27221"/>
		<stop  offset="1" style="stop-color:#F06122"/>
		<stop  offset="1" style="stop-color:#EF5D23"/>
		<stop  offset="1" style="stop-color:#EC5C23"/>
		<stop  offset="1" style="stop-color:#E45524"/>
		<stop  offset="1" style="stop-color:#D94A26"/>
		<stop  offset="1" style="stop-color:#D24327"/>
	</linearGradient>
	<path id="flame--right" class="st17" d="M194.1,213.5c0.4-0.2,0.8-0.4,1.2-0.6c11-5.9,20-14.5,24.3-25.8c3.8-9.8,2.2-24.3-1.4-34.1
		c-0.4-1.1,0-2.2,3.5,2.3c6.2,8.2,10.9,12.6,12,18.2c1.2,6.4-1.4,13.6-8.6,20.5c-6,5.7,7,16.2,23.6,6.9c3-1.7,7.5,0.2,0.7,5.5
		c-19.7,15.1-54.5,6.6-54.5,6.6"/>
	<g id="flame--right-diagonal" class="st14">

			<linearGradient id="XMLID_46_" gradientUnits="userSpaceOnUse" x1="137.6736" y1="243.5718" x2="234.5811" y2="243.5718" gradientTransform="matrix(0.9937 0.112 -0.112 0.9937 44.4944 -63.1814)">
			<stop  offset="0" style="stop-color:#FFFFFF"/>
			<stop  offset="0" style="stop-color:#FAF6B9"/>
			<stop  offset="0" style="stop-color:#FAF394"/>
			<stop  offset="5.119305e-02" style="stop-color:#F8ED46"/>
			<stop  offset="0.2174" style="stop-color:#F9EC43"/>
			<stop  offset="0.3124" style="stop-color:#FBE937"/>
			<stop  offset="0.3645" style="stop-color:#FDE62A"/>
			<stop  offset="0.5512" style="stop-color:#FCD304"/>
			<stop  offset="0.6717" style="stop-color:#FDBA1A"/>
			<stop  offset="0.7711" style="stop-color:#FBAB2A"/>
			<stop  offset="0.8671" style="stop-color:#FBAA29"/>
			<stop  offset="0.9208" style="stop-color:#FAA426"/>
			<stop  offset="0.964" style="stop-color:#F89A22"/>
			<stop  offset="1" style="stop-color:#F78D1E"/>
			<stop  offset="1" style="stop-color:#F68C1F"/>
			<stop  offset="1" style="stop-color:#F6871F"/>
			<stop  offset="1" style="stop-color:#F47E20"/>
			<stop  offset="1" style="stop-color:#F27221"/>
			<stop  offset="1" style="stop-color:#F06122"/>
			<stop  offset="1" style="stop-color:#EF5D23"/>
			<stop  offset="1" style="stop-color:#EC5C23"/>
			<stop  offset="1" style="stop-color:#E45524"/>
			<stop  offset="1" style="stop-color:#D94A26"/>
			<stop  offset="1" style="stop-color:#D24327"/>
		</linearGradient>
		<path id="XMLID_32_" class="st18" d="M250.8,167.5c-0.3-0.5-0.8-1-1.4-0.9c-0.8,0.1-0.9,1.1-0.9,1.8
			c-0.1,13.4-11.1,26.1-25.3,28.7c-1.1,0.2-2.2,0.2-3.3,0.1c-0.8-0.1-1.7-0.3-1.8-1.4c-0.1-0.7,0.3-1.4,0.9-1.8
			c3.6-2.8,4.7-7.3,4.2-11.5c-1.1-10-9.1-18.1-19.1-24.7c-4.5-2.9-7.4-6.2-3.7,2c3.7,8.4,9.3,15.2,10.1,24.6
			c0.4,5.2-0.6,10.5-2.1,15.5c-1,3.5-2.4,6.9-4.1,10.2c-2.7,6.8-10.7,10.6-17.6,13c-5.4,1.9-11,3.1-16.7,4
			c-3.4,0.5-6.8,0.9-10.2,1.2c-2.3,0.2-9.5,0.7-9.5,0.7c18.4,7.4,27.3,5.4,45.5,13.1c14.5,6.1,24.3,2.4,28.4-3
			c4.9-6.5,5.6-7.2,18.1-15.5c-3.4,0-6.6,0.9-9.8,1.6c-3.2,0.7-8.4,1-11.6,1.5c-3.9,0.6-7.9,1.5-11.2,3.6c-2.3,1.4-5.2,1.6-3.7-1.6
			c1.2-2.6,3.4-4.7,5.8-6.4c6.9-4.9,14.2-9.6,21.7-13.6c14.1-7.5,17.6-17.6,19-23.5C255.1,173.5,250.8,167.5,250.8,167.5z"/>

			<linearGradient id="XMLID_47_" gradientUnits="userSpaceOnUse" x1="189.1917" y1="253.6634" x2="189.1917" y2="253.6634" gradientTransform="matrix(0.9937 0.112 -0.112 0.9937 44.4944 -63.1814)">
			<stop  offset="0" style="stop-color:#FFFFFF"/>
			<stop  offset="0" style="stop-color:#FAF6B9"/>
			<stop  offset="0" style="stop-color:#FAF394"/>
			<stop  offset="5.119305e-02" style="stop-color:#F8ED46"/>
			<stop  offset="0.2174" style="stop-color:#F9EC43"/>
			<stop  offset="0.3124" style="stop-color:#FBE937"/>
			<stop  offset="0.3645" style="stop-color:#FDE62A"/>
			<stop  offset="0.5512" style="stop-color:#FCD304"/>
			<stop  offset="0.6717" style="stop-color:#FDBA1A"/>
			<stop  offset="0.7711" style="stop-color:#FBAB2A"/>
			<stop  offset="0.8671" style="stop-color:#FBAA29"/>
			<stop  offset="0.9208" style="stop-color:#FAA426"/>
			<stop  offset="0.964" style="stop-color:#F89A22"/>
			<stop  offset="1" style="stop-color:#F78D1E"/>
			<stop  offset="1" style="stop-color:#F68C1F"/>
			<stop  offset="1" style="stop-color:#F6871F"/>
			<stop  offset="1" style="stop-color:#F47E20"/>
			<stop  offset="1" style="stop-color:#F27221"/>
			<stop  offset="1" style="stop-color:#F06122"/>
			<stop  offset="1" style="stop-color:#EF5D23"/>
			<stop  offset="1" style="stop-color:#EC5C23"/>
			<stop  offset="1" style="stop-color:#E45524"/>
			<stop  offset="1" style="stop-color:#D94A26"/>
			<stop  offset="1" style="stop-color:#D24327"/>
		</linearGradient>
		<path id="XMLID_33_" class="st19" d="M204.1,210.1"/>
	</g>

		<linearGradient id="flame--front_2_" gradientUnits="userSpaceOnUse" x1="123.6664" y1="241.8097" x2="123.6664" y2="147.4975" gradientTransform="matrix(1.2355 0 0 0.6212 -18.8603 101.98)">
		<stop  offset="0" style="stop-color:#FFFFFF"/>
		<stop  offset="0" style="stop-color:#FAF6B9"/>
		<stop  offset="0" style="stop-color:#FAF394"/>
		<stop  offset="5.119305e-02" style="stop-color:#F8ED46"/>
		<stop  offset="0.2174" style="stop-color:#F9EC43"/>
		<stop  offset="0.3124" style="stop-color:#FBE937"/>
		<stop  offset="0.3645" style="stop-color:#FDE62A"/>
		<stop  offset="0.5512" style="stop-color:#FCD304"/>
		<stop  offset="0.6717" style="stop-color:#FDBA1A"/>
		<stop  offset="0.7711" style="stop-color:#FBAB2A"/>
		<stop  offset="0.8671" style="stop-color:#FBAA29"/>
		<stop  offset="0.9208" style="stop-color:#FAA426"/>
		<stop  offset="0.964" style="stop-color:#F89A22"/>
		<stop  offset="1" style="stop-color:#F78D1E"/>
		<stop  offset="1" style="stop-color:#F68C1F"/>
		<stop  offset="1" style="stop-color:#F6871F"/>
		<stop  offset="1" style="stop-color:#F47E20"/>
		<stop  offset="1" style="stop-color:#F27221"/>
		<stop  offset="1" style="stop-color:#F06122"/>
		<stop  offset="1" style="stop-color:#EF5D23"/>
		<stop  offset="1" style="stop-color:#EC5C23"/>
		<stop  offset="1" style="stop-color:#E45524"/>
		<stop  offset="1" style="stop-color:#D94A26"/>
		<stop  offset="1" style="stop-color:#D24327"/>
	</linearGradient>
	<path id="flame--front_3_" class="st20" d="M150.6,194c-34.7-2.7-47.2,8.2-44.4,9.5c3.5,1.6,8,2.7,10.8,4.6
		c1.7,1.1,2.4,2.5,2.4,3.8c0,2.1-1.8,4.1-4.4,5.7c-1.3,0.8-2.9,1.5-4.6,2.1c-2.6,0.9-6.4,1.4-8,1.4c0,0-1.4,0.1-2.1,0
		c-0.3,0-0.5-0.2-0.5-0.3c-0.4-2,2.9-3.2,4.1-5c0.3-0.4,0.5-0.8,0.5-1.2c0.1-1.5-2.2-3.1-4.2-4.2c-0.8-0.4-8.8-4.2-9-2.1
		c-0.2,1.3,1.8,2.5,2.1,3.9c0.2,0.8,0.9,3.7,0.5,4.5c-0.9,1.8-2.5,4-8.8,2c-7.4-2.4-4.3-7.1-3.7-10.4c0.4-2-1.1-4.5-4.8-5.3
		c-0.9-0.2-2-0.1-2.5,0.3c-4.5,2.8-9,5.7-11.5,8.9c-2.6,3.5-2.7,7.6,1.8,10.6c3.2,2.2,8.1,3.6,11.7,5.6c3.3,1.8,5.1,4.2,5.1,6.6
		c0,1.1-0.6,2.1-2,2.9c-0.9,0.5-2,0.8-3.2,1.1c-0.8,0.2-1.7,0.3-2.6,0.3c-1.2,0-2.4-0.3-3.2-0.8c-1.9-0.9-2.9-2.2-3.4-3.4
		c-0.5-1.4-0.5-2.8-1.5-4.1c-2-2.6-6.4-4.5-11.6-5.8c-1.8-0.4-3.8,0.5-2.6,1.2c0,0,0,0,0,0c2.4,1.3,4.5,2.7,5.8,4.2
		c0.5,0.6,0.5,1.3-0.4,1.9c-1.9,1.2-5.7,0.4-8-0.2c-1.9-0.5-3.7-1-3.7-2.1c0-0.8-0.9-0.2-1.1,0.3c-0.5,1.3,0.9,2.7,2,3.9
		c6.5,6.8,21.4,10.5,37.2,13.1c14.4,2.4,29.4,4.4,44.9,4.7c20.4,0.5,40.7-1.8,59.4-5.1c8.4-1.5,16.6-3.3,23.4-5.8
		c4.1-1.5,7.6-3.4,10-5.4c1.3-1.2,4.2-3.8,3.3-5.3c-0.1-0.3-0.4-0.5-0.7-0.7c-0.3,0.1-0.3,0.2-0.3,0.4c0,1.1-1.8,1.6-3.7,2.1
		c-2.2,0.6-6,1.4-8,0.2c-0.8-0.5-0.9-1.2-0.4-1.9c1.4-1.6,3.5-3,5.8-4.2c0,0,0,0,0,0c1.3-0.7-0.7-1.6-2.6-1.2
		c-5.2,1.3-9.6,3.1-11.6,5.8c-1,1.3-1,2.8-1.5,4.1c-0.5,1.2-1.5,2.5-3.4,3.4c-0.9,0.4-2,0.7-3.2,0.8c-0.9,0-1.8-0.1-2.6-0.3
		c-1.2-0.3-2.4-0.6-3.2-1.1c-1.5-0.8-2-1.9-2-2.9c0-2.4,1.7-4.7,5.1-6.6c3.6-2,8.5-3.4,11.7-5.6c4.5-3.1,4.4-7.1,1.8-10.6
		c-2.5-3.3-7-6.1-11.5-8.9c-0.6-0.3-1.7-0.5-2.5-0.3c-3.8,0.9-5.2,3.3-4.8,5.3c0.7,3.3,3.8,8-3.7,10.4c-6.3,2-7.8-0.1-8.8-2
		c-0.4-0.8,0.4-3.7,0.5-4.5c0.3-1.3,2.3-2.5,2.1-3.9c-0.3-2.1-8.2,1.7-9,2.1c-2,1.1-4.3,2.8-4.2,4.2c0,0.4,0.2,0.8,0.5,1.2
		c1.2,1.8,4.5,3,4.1,5c0,0.1-0.3,0.3-0.5,0.3c-0.8,0.1-2.1,0-2.1,0c-1.6-0.1-5.3-0.5-8-1.4c-1.7-0.6-3.3-1.3-4.6-2.1
		c-2.6-1.6-4.4-3.6-4.4-5.7c0-1.4,0.7-2.7,2.4-3.8c2.7-1.9,14.6-4.7,10.8-4.6C141.4,203.7,111.5,200.4,150.6,194"/>
</g>
<g id="flames flames--start-state">
		<linearGradient id="flame--left_3_" gradientUnits="userSpaceOnUse" x1="46.9978" y1="202.1024" x2="16.0608" y2="202.1024" gradientTransform="matrix(0.8596 -0.511 0.511 0.8596 -90.9725 43.3067)">
		<stop  offset="0" style="stop-color:#FFFFFF"/>
		<stop  offset="0" style="stop-color:#FAF6B9"/>
		<stop  offset="0" style="stop-color:#FAF394"/>
		<stop  offset="5.119305e-02" style="stop-color:#F8ED46"/>
		<stop  offset="0.2174" style="stop-color:#F9EC43"/>
		<stop  offset="0.3124" style="stop-color:#FBE937"/>
		<stop  offset="0.3645" style="stop-color:#FDE62A"/>
		<stop  offset="0.5512" style="stop-color:#FCD304"/>
		<stop  offset="0.6717" style="stop-color:#FDBA1A"/>
		<stop  offset="0.7711" style="stop-color:#FBAB2A"/>
		<stop  offset="0.8671" style="stop-color:#FBAA29"/>
		<stop  offset="0.9208" style="stop-color:#FAA426"/>
		<stop  offset="0.964" style="stop-color:#F89A22"/>
		<stop  offset="1" style="stop-color:#F78D1E"/>
		<stop  offset="1" style="stop-color:#F68C1F"/>
		<stop  offset="1" style="stop-color:#F6871F"/>
		<stop  offset="1" style="stop-color:#F47E20"/>
		<stop  offset="1" style="stop-color:#F27221"/>
		<stop  offset="1" style="stop-color:#F06122"/>
		<stop  offset="1" style="stop-color:#EF5D23"/>
		<stop  offset="1" style="stop-color:#EC5C23"/>
		<stop  offset="1" style="stop-color:#E45524"/>
		<stop  offset="1" style="stop-color:#D94A26"/>
		<stop  offset="1" style="stop-color:#D24327"/>
	</linearGradient>
	<path id="flame--left flame" class="st21" d="M60.1,205.5c-0.3,0-0.6,0-0.9,0c-8-0.3-9.9,4.7-16.6-1.2c-5.8-5.1-8.1-7.8-6-17
		c0.2-0.8-4.9-0.5-5,3.5c0,7.2-8,9.1-6.3,13.1c1.2,2.9,1.9-6.1,4.9-4c2.2,1.5,1.9,4.8-0.7,5.7c-1,0.4-2.6,5.5-1.3,4.8
		c9.5-4.9,19-4.6,6.3,5.3c-13,10.1,25-10.3,25-10.3"/>
	<g id="flame--left-diagonal_1_">
		<linearGradient id="XMLID_48_" gradientUnits="userSpaceOnUse" x1="79.7219" y1="225.1792" x2="37.5888" y2="225.1792">
			<stop  offset="0" style="stop-color:#FFFFFF"/>
			<stop  offset="0" style="stop-color:#FAF6B9"/>
			<stop  offset="0" style="stop-color:#FAF394"/>
			<stop  offset="5.119305e-02" style="stop-color:#F8ED46"/>
			<stop  offset="0.2174" style="stop-color:#F9EC43"/>
			<stop  offset="0.3124" style="stop-color:#FBE937"/>
			<stop  offset="0.3645" style="stop-color:#FDE62A"/>
			<stop  offset="0.5512" style="stop-color:#FCD304"/>
			<stop  offset="0.6717" style="stop-color:#FDBA1A"/>
			<stop  offset="0.7711" style="stop-color:#FBAB2A"/>
			<stop  offset="0.8671" style="stop-color:#FBAA29"/>
			<stop  offset="0.9208" style="stop-color:#FAA426"/>
			<stop  offset="0.964" style="stop-color:#F89A22"/>
			<stop  offset="1" style="stop-color:#F78D1E"/>
			<stop  offset="1" style="stop-color:#F68C1F"/>
			<stop  offset="1" style="stop-color:#F6871F"/>
			<stop  offset="1" style="stop-color:#F47E20"/>
			<stop  offset="1" style="stop-color:#F27221"/>
			<stop  offset="1" style="stop-color:#F06122"/>
			<stop  offset="1" style="stop-color:#EF5D23"/>
			<stop  offset="1" style="stop-color:#EC5C23"/>
			<stop  offset="1" style="stop-color:#E45524"/>
			<stop  offset="1" style="stop-color:#D94A26"/>
			<stop  offset="1" style="stop-color:#D24327"/>
		</linearGradient>
		<path id="XMLID_9_" class="st22" d="M44.2,218.9c-1.6-1.1,2.3,10.4-6.6-1.4c0,0,0,0.2,0,0c0.2-1.9,3.4,0.6,5.2,0.2l1.6-1.6
			c0.6-0.6,1.5-0.4,1.8,0.4c1,2.3,0.8,0.9,5.6,2.6c0.4,0.2,0.9,0.2,1.3,0.2c0.3,0,0.7-0.1,0.8-0.6c0.1-0.3,0-0.7-0.3-1
			c-1.3-1.6-6.9-4-6.5-6.1c0.9-5,8.7-0.7,13.1-3.4c2-1.2,3.3-2.7,1.4,1.2c-1.9,4.1-8.7-0.8-9.4,3.9c-0.4,2.6,14.8,6.3,15.2,8.9
			c0.3,1.8-9.1,2.7-8.6,4.5c0.8,3.6,3.8,6,6.5,7.5c2.1,1.2,4.3,2.2,6.5,2.9c1.3,0.5,2.7,0.8,4.1,1.2c0.9,0.2,3.8,0.8,3.8,0.8
			c-7.8,2.8-9.1-0.4-17.1-2.2c-4.3-1-0.2,1-6.2,3.2c-3.2,1.2,11.1-1.8,1,3.2c-0.7,0.3-0.8-0.4-1.5-0.5h0c-2.1-0.4-3.9-3.7-3.9-3.7
			s0.3-4.4,3.4-7.9c0,0-4.2,0.5-4.4,1.8c-1.2,8.8,6.7,4.9,7.6,2.8c0.5-1.1,3.1,0.7,2.7-1c-0.1-0.3-0.1-0.5-0.1-0.6
			c0-0.3,0-0.5-0.2-0.7c-1.7-3.1-6.9-9.3-11.6-5.6c4.6-3.6,14.9-4.9,2.2-6.2C49.2,221.7,46,220.2,44.2,218.9z"/>
		<linearGradient id="XMLID_49_" gradientUnits="userSpaceOnUse" x1="55.1442" y1="222.7042" x2="55.1442" y2="222.7042">
			<stop  offset="0" style="stop-color:#FFFFFF"/>
			<stop  offset="0" style="stop-color:#FAF6B9"/>
			<stop  offset="0" style="stop-color:#FAF394"/>
			<stop  offset="5.119305e-02" style="stop-color:#F8ED46"/>
			<stop  offset="0.2174" style="stop-color:#F9EC43"/>
			<stop  offset="0.3124" style="stop-color:#FBE937"/>
			<stop  offset="0.3645" style="stop-color:#FDE62A"/>
			<stop  offset="0.5512" style="stop-color:#FCD304"/>
			<stop  offset="0.6717" style="stop-color:#FDBA1A"/>
			<stop  offset="0.7711" style="stop-color:#FBAB2A"/>
			<stop  offset="0.8671" style="stop-color:#FBAA29"/>
			<stop  offset="0.9208" style="stop-color:#FAA426"/>
			<stop  offset="0.964" style="stop-color:#F89A22"/>
			<stop  offset="1" style="stop-color:#F78D1E"/>
			<stop  offset="1" style="stop-color:#F68C1F"/>
			<stop  offset="1" style="stop-color:#F6871F"/>
			<stop  offset="1" style="stop-color:#F47E20"/>
			<stop  offset="1" style="stop-color:#F27221"/>
			<stop  offset="1" style="stop-color:#F06122"/>
			<stop  offset="1" style="stop-color:#EF5D23"/>
			<stop  offset="1" style="stop-color:#EC5C23"/>
			<stop  offset="1" style="stop-color:#E45524"/>
			<stop  offset="1" style="stop-color:#D94A26"/>
			<stop  offset="1" style="stop-color:#D24327"/>
		</linearGradient>
		<path id="XMLID_8_" class="st23" d="M55.1,222.7"/>
	</g>

		<linearGradient id="flame--right_3_" gradientUnits="userSpaceOnUse" x1="186.082" y1="284.7779" x2="155.145" y2="284.7779" gradientTransform="matrix(-0.8596 -0.511 -0.511 0.8596 513.9969 43.3067)">
		<stop  offset="0" style="stop-color:#FFFFFF"/>
		<stop  offset="0" style="stop-color:#FAF6B9"/>
		<stop  offset="0" style="stop-color:#FAF394"/>
		<stop  offset="5.119305e-02" style="stop-color:#F8ED46"/>
		<stop  offset="0.2174" style="stop-color:#F9EC43"/>
		<stop  offset="0.3124" style="stop-color:#FBE937"/>
		<stop  offset="0.3645" style="stop-color:#FDE62A"/>
		<stop  offset="0.5512" style="stop-color:#FCD304"/>
		<stop  offset="0.6717" style="stop-color:#FDBA1A"/>
		<stop  offset="0.7711" style="stop-color:#FBAB2A"/>
		<stop  offset="0.8671" style="stop-color:#FBAA29"/>
		<stop  offset="0.9208" style="stop-color:#FAA426"/>
		<stop  offset="0.964" style="stop-color:#F89A22"/>
		<stop  offset="1" style="stop-color:#F78D1E"/>
		<stop  offset="1" style="stop-color:#F68C1F"/>
		<stop  offset="1" style="stop-color:#F6871F"/>
		<stop  offset="1" style="stop-color:#F47E20"/>
		<stop  offset="1" style="stop-color:#F27221"/>
		<stop  offset="1" style="stop-color:#F06122"/>
		<stop  offset="1" style="stop-color:#EF5D23"/>
		<stop  offset="1" style="stop-color:#EC5C23"/>
		<stop  offset="1" style="stop-color:#E45524"/>
		<stop  offset="1" style="stop-color:#D94A26"/>
		<stop  offset="1" style="stop-color:#D24327"/>
	</linearGradient>
	<path id="flame--right_1_" class="st24" d="M201.1,205.5c0.3,0,0.6,0,0.9,0c8-0.3,9.9,4.7,16.6-1.2c5.8-5.1,8.1-7.8,6-17
		c-0.2-0.8,4.9-0.5,5,3.5c0,7.2,8,9.1,6.3,13.1c-1.2,2.9-1.9-6.1-4.9-4c-2.2,1.5-1.9,4.8,0.7,5.7c1,0.4,2.6,5.5,1.3,4.8
		c-9.5-4.9-19-4.6-6.3,5.3c13,10.1-25-10.3-25-10.3"/>
	<g id="flame--right-diagonal_2_">

			<linearGradient id="XMLID_50_" gradientUnits="userSpaceOnUse" x1="242.3582" y1="225.1792" x2="200.225" y2="225.1792" gradientTransform="matrix(-1 0 0 1 423.0243 0)">
			<stop  offset="0" style="stop-color:#FFFFFF"/>
			<stop  offset="0" style="stop-color:#FAF6B9"/>
			<stop  offset="0" style="stop-color:#FAF394"/>
			<stop  offset="5.119305e-02" style="stop-color:#F8ED46"/>
			<stop  offset="0.2174" style="stop-color:#F9EC43"/>
			<stop  offset="0.3124" style="stop-color:#FBE937"/>
			<stop  offset="0.3645" style="stop-color:#FDE62A"/>
			<stop  offset="0.5512" style="stop-color:#FCD304"/>
			<stop  offset="0.6717" style="stop-color:#FDBA1A"/>
			<stop  offset="0.7711" style="stop-color:#FBAB2A"/>
			<stop  offset="0.8671" style="stop-color:#FBAA29"/>
			<stop  offset="0.9208" style="stop-color:#FAA426"/>
			<stop  offset="0.964" style="stop-color:#F89A22"/>
			<stop  offset="1" style="stop-color:#F78D1E"/>
			<stop  offset="1" style="stop-color:#F68C1F"/>
			<stop  offset="1" style="stop-color:#F6871F"/>
			<stop  offset="1" style="stop-color:#F47E20"/>
			<stop  offset="1" style="stop-color:#F27221"/>
			<stop  offset="1" style="stop-color:#F06122"/>
			<stop  offset="1" style="stop-color:#EF5D23"/>
			<stop  offset="1" style="stop-color:#EC5C23"/>
			<stop  offset="1" style="stop-color:#E45524"/>
			<stop  offset="1" style="stop-color:#D94A26"/>
			<stop  offset="1" style="stop-color:#D24327"/>
		</linearGradient>
		<path id="XMLID_10_" class="st25" d="M216.2,218.9c1.6-1.1-2.3,10.4,6.6-1.4c0,0,0,0.2,0,0c-0.2-1.9-3.4,0.6-5.2,0.2l-1.6-1.6
			c-0.6-0.6-1.5-0.4-1.8,0.4c-1,2.3-0.8,0.9-5.6,2.6c-0.4,0.2-0.9,0.2-1.3,0.2c-0.3,0-0.7-0.1-0.8-0.6c-0.1-0.3,0-0.7,0.3-1
			c1.3-1.6,6.9-4,6.5-6.1c-0.9-5-8.7-0.7-13.1-3.4c-2-1.2-3.3-2.7-1.4,1.2c1.9,4.1,8.7-0.8,9.4,3.9c0.4,2.6-14.8,6.3-15.2,8.9
			c-0.3,1.8,9.1,2.7,8.6,4.5c-0.8,3.6-3.8,6-6.5,7.5c-2.1,1.2-4.3,2.2-6.5,2.9c-1.3,0.5-2.7,0.8-4.1,1.2c-0.9,0.2-3.8,0.8-3.8,0.8
			c7.8,2.8,9.1-0.4,17.1-2.2c4.3-1,0.2,1,6.2,3.2c3.2,1.2-11.1-1.8-1,3.2c0.7,0.3,0.8-0.4,1.5-0.5l0,0c2.1-0.4,3.9-3.7,3.9-3.7
			s-0.3-4.4-3.4-7.9c0,0,4.2,0.5,4.4,1.8c1.2,8.8-6.7,4.9-7.6,2.8c-0.5-1.1-3.1,0.7-2.7-1c0.1-0.3,0.1-0.5,0.1-0.6
			c0-0.3,0-0.5,0.2-0.7c1.7-3.1,6.9-9.3,11.6-5.6c-4.6-3.6-14.9-4.9-2.2-6.2C211.2,221.7,214.3,220.2,216.2,218.9z"/>

			<linearGradient id="XMLID_51_" gradientUnits="userSpaceOnUse" x1="217.7804" y1="222.7042" x2="217.7804" y2="222.7042" gradientTransform="matrix(-1 0 0 1 423.0243 0)">
			<stop  offset="0" style="stop-color:#FFFFFF"/>
			<stop  offset="0" style="stop-color:#FAF6B9"/>
			<stop  offset="0" style="stop-color:#FAF394"/>
			<stop  offset="5.119305e-02" style="stop-color:#F8ED46"/>
			<stop  offset="0.2174" style="stop-color:#F9EC43"/>
			<stop  offset="0.3124" style="stop-color:#FBE937"/>
			<stop  offset="0.3645" style="stop-color:#FDE62A"/>
			<stop  offset="0.5512" style="stop-color:#FCD304"/>
			<stop  offset="0.6717" style="stop-color:#FDBA1A"/>
			<stop  offset="0.7711" style="stop-color:#FBAB2A"/>
			<stop  offset="0.8671" style="stop-color:#FBAA29"/>
			<stop  offset="0.9208" style="stop-color:#FAA426"/>
			<stop  offset="0.964" style="stop-color:#F89A22"/>
			<stop  offset="1" style="stop-color:#F78D1E"/>
			<stop  offset="1" style="stop-color:#F68C1F"/>
			<stop  offset="1" style="stop-color:#F6871F"/>
			<stop  offset="1" style="stop-color:#F47E20"/>
			<stop  offset="1" style="stop-color:#F27221"/>
			<stop  offset="1" style="stop-color:#F06122"/>
			<stop  offset="1" style="stop-color:#EF5D23"/>
			<stop  offset="1" style="stop-color:#EC5C23"/>
			<stop  offset="1" style="stop-color:#E45524"/>
			<stop  offset="1" style="stop-color:#D94A26"/>
			<stop  offset="1" style="stop-color:#D24327"/>
		</linearGradient>
		<path id="XMLID_6_" class="st26" d="M205.2,222.7"/>
	</g>

		<linearGradient id="flame--front_4_" gradientUnits="userSpaceOnUse" x1="120.175" y1="245.7187" x2="120.175" y2="169.7141" gradientTransform="matrix(1.2355 0 0 0.6212 -18.8603 101.98)">
		<stop  offset="0" style="stop-color:#FFFFFF"/>
		<stop  offset="0" style="stop-color:#FAF6B9"/>
		<stop  offset="0" style="stop-color:#FAF394"/>
		<stop  offset="5.119305e-02" style="stop-color:#F8ED46"/>
		<stop  offset="0.2174" style="stop-color:#F9EC43"/>
		<stop  offset="0.3124" style="stop-color:#FBE937"/>
		<stop  offset="0.3645" style="stop-color:#FDE62A"/>
		<stop  offset="0.5512" style="stop-color:#FCD304"/>
		<stop  offset="0.6717" style="stop-color:#FDBA1A"/>
		<stop  offset="0.7711" style="stop-color:#FBAB2A"/>
		<stop  offset="0.8671" style="stop-color:#FBAA29"/>
		<stop  offset="0.9208" style="stop-color:#FAA426"/>
		<stop  offset="0.964" style="stop-color:#F89A22"/>
		<stop  offset="1" style="stop-color:#F78D1E"/>
		<stop  offset="1" style="stop-color:#F68C1F"/>
		<stop  offset="1" style="stop-color:#F6871F"/>
		<stop  offset="1" style="stop-color:#F47E20"/>
		<stop  offset="1" style="stop-color:#F27221"/>
		<stop  offset="1" style="stop-color:#F06122"/>
		<stop  offset="1" style="stop-color:#EF5D23"/>
		<stop  offset="1" style="stop-color:#EC5C23"/>
		<stop  offset="1" style="stop-color:#E45524"/>
		<stop  offset="1" style="stop-color:#D94A26"/>
		<stop  offset="1" style="stop-color:#D24327"/>
	</linearGradient>
	<path id="flame--front_1_" class="st27" d="M119,217.2c15.3-12.8,25.8-10,25-8.2c-1,2.1-25.6,11.3-24.1,12.7
		c0.9,0.8,1.4,1.9,1.4,2.9c0,1.5-1,3.1-2.5,4.3c-0.7,0.6-1.6,1.1-2.6,1.6c-1.5,0.7-3.7,1-4.5,1.1c0,0-0.8,0.1-1.2,0
		c-0.1,0-0.3-0.2-0.3-0.3c-0.2-1.5,1.7-2.4,2.3-3.7c0.2-0.3-8.2-3.5-8.1-3.8c0.6-0.9,2.4-1.1,3.8-1c0.6,0,5.9,0.6,5,1.9
		c-0.5,0.8-2,0.9-2.7,1.5c-0.4,0.4-3.6,1.4-3.8,2c-0.5,1.4-1.4,3-5,1.5c-4.2-1.8-2.5-5.3-2.1-7.8c0.2-1.5-1,7-4.1,4.7
		c-0.4-0.3-2.6-4.2-2.5-4.6c1.4-3.2-2.8,0.3-4.2,2.8c-1.5,2.6-1.5,5.7,1,8c1.8,1.6,4.6,2.7,6.7,4.2c1.9,1.4,2.9,3.1,2.9,4.9
		c0,0.8-0.3,1.6-1.2,2.2c-0.5,0.4-1.1,0.6-1.9,0.8c-0.5,0.1-1,0.2-1.5,0.2c-0.7,0-1.4-0.3-1.8-0.6c-1.1-0.7-1.7-1.6-1.9-2.5
		c-0.3-1-0.3-2.1-0.8-3.1c-1.1-2-3.6-3.4-6.6-4.3c-1-0.3-2.2,0.4-1.5,0.9c0,0,0,0,0,0c1.3,1,2.6,2,3.3,3.2c0.3,0.5,0.3,1-0.2,1.4
		c-1.1,0.9-3.3,0.3-4.5-0.1c-1.1-0.4-2.1-0.8-2.1-1.6c0-0.6-0.5-0.1-0.6,0.2c-0.3,0.9,0.5,2,1.2,2.9c3.7,5.1,12.2,7.8,21.2,9.8
		c8.2,1.8,16.8,3.3,25.6,3.5c11.6,0.4,23.2-1.3,33.9-3.9c4.8-1.1,9.5-2.4,13.3-4.3c2.3-1.2,4.3-2.5,5.7-4.1c0.7-0.9,2.4-2.8,1.9-4
		c-0.1-0.2-0.2-0.4-0.4-0.5c-0.2,0.1-0.2,0.2-0.2,0.3c0,0.8-1,1.2-2.1,1.6c-1.3,0.4-3.4,1.1-4.5,0.1c-0.5-0.4-0.5-0.9-0.2-1.4
		c0.8-1.2,2-2.2,3.3-3.2c0,0-1.3,1.3-2.8,2.6c-2.3,2.1-5.4,3.1-8.5,2.5c-0.9-0.2-1.4-0.4-1.2-0.7c6.2-8.4,5.5-3,4.4-1
		c-0.6,1-0.5,2.1-0.8,3.1c-0.3,0.9-0.8,1.9-1.9,2.5c-0.5,0.3-1.1,0.5-1.8,0.6c-0.5,0-1-0.1-1.5-0.2c-0.7-0.2-1.4-0.5-1.9-0.8
		c-0.8-0.6-1.2-1.4-1.2-2.2c0-1.8,1-3.6,2.9-4.9c2.1-1.5,4.9-2.5,6.7-4.2c2.6-2.3-14.5,2,1-8c2.4-1.5-21.2-10.5-17.9-10.6
		c0.4,0,1,0.3,1.3,0.7c1.3,1.8,0.8,3.8-0.3,4.8c-1.8,1.7,8.3,8.1,4.1,9.9c-3.6,1.5-4.5-0.1-5-1.5c-0.2-0.6,4.2-1.4,4.4-2
		c0.5-0.9,0.1-2.3,0.8-3c1.1-1.1,2.9,3.9,3.1,4.4c0.4,1.4-14.5-2.1-14.4-1c0,0.3,0.1,0.6,0.3,0.9c0.7,1.3,2.6,2.2,2.3,3.7
		c0,0.1-0.1,0.2-0.3,0.3c-0.4,0.1-1.2,0-1.2,0c-0.9-0.1-3-0.4-4.5-1.1c-1-0.5-3.1-2.4-2.6-1.6c4.7,8.7-6.4,6.6-6.4,6.6
		c0,0,4.9-0.8,4.9-0.8s-10.7-2.1-13.6-1c-4.7,1.8-10-15.1,20.2-15.4C133.9,218.3,140.2,208.7,119,217.2"/>
</g>
</svg>
