<?xml version="1.0" encoding="utf-8"?>
<!-- Generator: Adobe Illustrator 19.0.0, SVG Export Plug-In . SVG Version: 6.00 Build 0)  -->
<svg version="1.1" id="Layer_1" xmlns="http://www.w3.org/2000/svg" xmlns:xlink="http://www.w3.org/1999/xlink" x="0px" y="0px"
	 viewBox="0 0 150 140.8" style="enable-background:new 0 0 150 140.8;" xml:space="preserve">
<style type="text/css">
	.st0{display:none;}
	.st1{display:inline;}
	.st2{fill:#FFFFFF;}
</style>
<g id="playstation-vue-logo" class="st0">
	<g id="antennaes" class="st1">
		<path id="antennae--left" d="M73.6,24.8c-2.8-1.5-5-3.6-7.3-5.7c-3-2.7-5.9-5.4-8.9-8.1c-3.3-3-6.6-6-9.8-8.9
			c-1.4-1.2-3.2-2.6-4.9-1.8c-2.6,1.2-1,5.2,0.9,7.4c5.5,6.3,16.6,18.9,16.6,18.9L75,25.1C74.5,25.1,74.1,25,73.6,24.8z"/>
		<path id="antennae--right" d="M108,1.2c-1.5-2.1-4.8-0.4-6.7,1.3c-5.9,5.4-11.7,10.8-17.6,16.1c-1.5,1.4-2.9,2.9-4.5,4.2
			C78,23.8,76.5,25,75,25.1l14.7,1c5.6-6.4,11.1-12.8,16.7-19.2C107.8,5.2,109.3,2.9,108,1.2z"/>
	</g>
	<path id="tv_x5F__x5F_outline" class="st1" d="M89.7,26c14.2,2,28.8,0.1,42.8,2c20.8,2.8,16.6,26.3,17.1,41.8
		c0.1,4.7,0.2,9.4,0.2,14.2c0,11.4,0.6,23.2-0.6,34.5c-0.8,7.4-3.8,15.2-10.1,19.1c-5.3,3.3-11.8,3.3-18,3.3
		c-32.2-0.2-64.4-0.5-96.6-0.7c-5.1,0-10.5-0.2-14.8-2.9c-9.5-6-8.3-19.2-9.1-28.9c-1.3-15.1-0.1-30.4,0-45.6
		c0-8.6-1.9-19.5,2.9-27.2c5.4-8.7,18.8-7.7,27.8-7.9c5.1-0.1,10.1-0.4,15.2-0.6c2.7-0.1,13.8-0.6,13.8-0.6L75,25.1L89.7,26z"/>
	<g id="ps-logo" class="st1">
		<path id="p" class="st2" d="M82.2,57.9c1,1.6,1.2,3.4,1.2,5.3c0,4.7,0,9.4,0,14.1c0,4.8,1.5,6.3,6.4,6.1c3.6-0.2,6.3-1.9,8-5.2
			c1.8-3.6,1.2-7.3,1.2-11c0-5.9-2.7-10.4-7.8-13.6c-7-4.3-14.9-6-22.7-8.1c-4.3-1.1-4.7-0.7-4.7,3.9c0,14.8-0.2,29.6,0.6,44.4
			c0,3.1,0.1,6.2,0,9.2c-0.1,2.4,0.7,3.8,3.2,4.3c2.3,0.5,4.6,1.4,6.9,2.1c3.7,1.1,3.9,1,3.8-3c-0.3-15.5,0.6-30.9,0.6-46.4
			c0-0.5,0-1,0-1.4c0.1-0.9,0.2-1.8,1.3-2C81.1,56.5,81.8,57.2,82.2,57.9z"/>
		<g id="s">
			<path id="s_x5F__x5F_bottom" class="st2" d="M113,88.8c-0.7-0.4-1.4-0.7-2.1-1c-4.8-1.6-9.6-2.6-15.6-2.6
				c-2.7,0.2-6.3,0.5-9.9,1.4c-5.1,1.3-5.1,1.3-4.9,6.6c0.1,2.9,0.6,3.3,3.3,2.5c0.6-0.2,1.2-0.5,1.9-0.7c5-1.4,9.7-4.4,15.2-3.9
				c1.1,0.1,2.7-0.4,2.9,1.1c0.2,1.5-1.5,1.6-2.4,2c-5.5,2-11,3.9-16.5,6c-4.4,1.6-4.5,1.9-4.3,6.7c0.1,2.2,0.8,2.9,3,2.1
				c6.5-2.4,13-4.7,19.5-7.1c3.3-1.2,6.7-2.4,9.9-3.8c2-0.9,4.2-2.2,4.2-4.7C117,91,115,89.8,113,88.8z"/>
			<path id="s_x5F__x5F_top" class="st2" d="M48.6,95c3.5-1.3,7.1-2.5,10.6-3.8c2.5-0.9,4.1-6.4,2.5-8.5c-0.6-0.8-1.3-0.6-2.1-0.3
				c-2,0.7-4,1.4-5.9,2.2c-5.9,2.5-12.3,3.9-17.9,7.1c-4,2.3-4,5.5,0.1,7.8c0.7,0.4,1.3,0.8,2,1c5,1.4,9.9,3.1,15.4,2.4
				c1.7,0,3.7,0.1,5.6,0c1.5-0.1,2.6-0.9,2.9-2.4c0.3-1.5,0.7-3.2-0.4-4.4c-1.1-1.2-2.5-0.1-3.7,0.2c-0.6,0.2-1.2,0.5-1.9,0.7
				c-2.2,0.7-4.5,1.2-6.8,1.1c-1,0-2.4-0.2-2.6-1.4C46.2,95.5,47.7,95.4,48.6,95z"/>
		</g>
	</g>
</g>
<path id="ps4-controller" d="M150,111.2c0.1,2.5-0.2,5.1-1.2,7.5c-1.4,3.5-3.8,6.2-7,8.2c-2.4,1.5-5,2.1-7.7,2.3
	c-2.4,0.1-4.6-0.2-6.8-1c-2-0.8-3.7-2.1-5.2-3.6c-1.9-1.9-3-4.2-3.9-6.7c-1.6-4.1-3-8.3-4.3-12.5c-0.5-1.7-1.4-3.2-1.9-4.9
	c-0.2-0.8-0.5-1.6-0.8-2.4c-0.4-1.2-1.4-1.6-2.5-2c-0.2-0.1-0.4,0.1-0.6,0.3c-2.2,1.7-4.8,2.7-7.5,2.9c-4.3,0.4-8.2-0.7-11.5-3.5
	c-0.3-0.2-0.5-0.3-0.9-0.3c-5.4,0-10.8,0-16.2,0c-3.2,0-6.5,0-9.7,0.1c-0.4,0-0.8,0.1-1.1,0.4c-2.4,2-5.2,3.2-8.4,3.5
	c-3.8,0.4-7.3-0.6-10.4-2.9c-0.4-0.3-0.7-0.3-1.2-0.1c-0.4,0.2-0.9,0.5-1.3,0.8c-0.4,0.3-0.8,0.7-0.9,1.2c-0.1,0.4-0.3,0.8-0.6,1.1
	c-0.4,0.4-0.5,1.1-0.7,1.7c-1.3,4.2-2.7,8.5-4,12.7c-1,3.2-2.4,6.2-4,9.2c-1.4,2.4-3.4,4-5.8,5.1c-3.8,1.7-7.7,1.9-11.8,0.8
	c-0.5-0.2-1.1-0.3-1.6-0.6c-1.1-0.5-2.1-1.1-3.2-1.6c-0.8-0.4-1.5-1.1-2.1-1.8c-2.2-2.4-3.7-5.1-4.5-8.2c-0.5-2-0.4-4.1-0.3-6.1
	c0-1,0.2-2,0.2-3c0-2.6,0.3-5.1,0.6-7.7c0.5-4,1.1-8.1,1.8-12.1C3.5,83,4.5,78,5.6,73c1.1-4.7,2.3-9.3,3.6-14
	c0.8-3.1,1.9-6.1,3.4-8.9c0.8-1.4,1.6-2.8,2.5-4.2c0.3-0.5,0.4-1.1,0.7-1.6c0.6-0.9,1.2-1.9,1.8-2.9c0.3-0.6,0.7-1,1.3-1.3
	c0.3-0.1,0.5-0.4,0.5-0.7c0-0.3,0.2-0.6,0.5-0.8c1.6-1.2,3.4-1.7,5.3-2.1c3.8-0.7,7.5-0.6,11.2,0.6c0.3,0.1,0.5,0.2,0.8,0.3
	c0.7,0.2,1.1,0.7,1,1.5c0,0.3,0,0.6,0.4,0.7c1.3,0.3,2.5,1,3.9,1.1c1.3,0.1,2.6,0.1,3.9,0c1.1-0.1,2.2,0,3.2,0.1
	c0.3,0,0.5,0,0.7-0.2c0.4-0.3,0.8-0.4,1.3-0.4c6.1,0,12.2,0.1,18.3,0c9.3-0.1,18.7,0,28-0.1c0.5,0,0.9,0.1,1.3,0.3
	c0.2,0.2,0.5,0.2,0.8,0.2c1.9,0,3.8-0.1,5.7,0c1.1,0,2.1-0.2,3.1-0.4c0.6-0.2,1.2-0.6,1.8-0.7c0.3-0.1,0.4-0.4,0.3-0.6
	c-0.1-0.8,0.3-1.2,1.1-1.5c1.6-0.6,3.3-1,5-1.2c3.4-0.4,6.7,0,9.9,1.1c0.7,0.3,1.5,0.6,2.1,1c0.3,0.2,0.6,0.5,0.6,0.9
	c0,0.3,0.2,0.5,0.5,0.6c0.7,0.2,1.2,0.7,1.6,1.4c1.1,2.1,2.5,3.9,3.9,5.8c2,2.9,3.3,6,4.3,9.4c2.6,8.5,4.6,17.1,6.3,25.7
	c1.1,5.5,2,10.9,2.8,16.5c0.4,2.7,0.6,5.4,0.8,8.1C149.9,108,150,109.6,150,111.2z"/>
</svg>
