<svg xmlns="http://www.w3.org/2000/svg" viewBox="0 0 48 48">
  <style>
    .st0{fill:none;stroke:#000000;stroke-width:2;stroke-miterlimit:10;} .st1{opacity:0;fill:none;stroke:#000000;stroke-miterlimit:10;}
  </style>
  <g id="WandIconCircleBorder">
    <g id="WandBody_1_">
      <path id="handle_1_" d="M15.7 30.8l-3.6 4c-.1.1-.1.4 0 .4l.9.8c.1.1.4.1.4 0l3.3-3.6 14.1-16.2-.6-.5-14.5 15.1"/>
      <path id="star_1_" d="M30.5 13.2l2.7-1.4-.5 3 2.2 2.2-3.1.4-1.3 2.7-1.3-2.7-3.1-.4 2.2-2.2-.5-3 2.7 1.4z"/>
    </g>
    <circle id="border" class="st0" cx="24" cy="24" r="23"/>
    <g id="WandMotionTrails_1_">
      <path id="MotionTrail1_1_" class="st1" d="M32.4 16C41 22.9 40 35.9 40 35.9"/>
      <path id="MotionTrail2_1_" class="st1" d="M30.8 16c8.6 6.9 7.6 19.9 7.6 19.9"/>
      <path id="MotionTrail3_1_" class="st1" d="M28.4 16C37 22.9 36 35.9 36 35.9"/>
    </g>
  </g>
</svg>
