<svg id="toggle-to-x-circular-spin" xmlns="http://www.w3.org/2000/svg" viewBox="0 0 48 48">
  <defs>
    <style>
      .control-points, .icon-paths { fill: none; }
      .icon-paths { stroke: #000; stroke-miterlimit: 10; stroke-width: 3px; }
    </style>
  </defs>
  <title>Hamburger To X Icon Toggle</title>

  <g class="icon">
    <g class="icon-paths">
      <line class="menu-middle" x1="11.04" y1="24" x2="36.96" y2="24"/>
      <path class="menu-bottom-x-bl-tr" d="M35.51,12.49L14.84,33.16,9.46,38.58S12.19,42.94,24,42.94s20-5.2,20-21.26C44,1,18-.19,9.94,10,1.17,21.07,2.9,33,11,33H37"/>
      <path class="menu-top-x-tl-br" d="M35.56,35.56L14.84,14.84,9.94,10s-6,7.13-6,14S6.38,42.94,23,42.94a47.71,47.71,0,0,0,10-.62,9.79,9.79,0,0,0,4.82-2.58,13.54,13.54,0,0,0,3-6,23.21,23.21,0,0,0,1-6.7,17.59,17.59,0,0,0-1-6.69,15.58,15.58,0,0,0-2.65-4.64A2.11,2.11,0,0,0,36.76,15H11"/>
    </g>
    <g class="control-points control-points--x" data-name="control-points control-points--x">
      <circle class="x-control-point x-control-point--tl" cx="12.69" cy="12.44" r="1"/>
      <circle class="x-control-point x-control-point--bl" cx="12.69" cy="35.81" r="1"/>
      <circle class="x-control-point x-control-point--br" cx="35.31" cy="35.81" r="1"/>
      <circle class="x-control-point x-control-point--tr" cx="35.44" cy="12.44" r="1"/>
    </g>

    <g class="control-points control-points--menu" data-name="control-points control-points--menu">
      <circle class="menu-control-point menu-control-point--tr" cx="37.01" cy="14.91" r="0.5"/>
      <circle class="menu-control-point menu-control-point--tl" cx="11.04" cy="15.02" r="0.5"/>
      <circle class="menu-control-point menu-control-point--bl" cx="10.99" cy="32.99" r="0.5"/>
      <circle class="menu-control-point menu-control-point--br" cx="36.96" cy="32.99" r="0.5"/>
    </g>

  </g>
</svg>
